<svg width="41" height="41" viewBox="0 0 41 41" fill="none" xmlns="http://www.w3.org/2000/svg">
<path d="M32.1667 22.9998H30.5001C28.9287 22.9998 28.1431 22.9998 27.6549 22.5117C27.1667 22.0235 27.1667 21.2378 27.1667 19.6665V14.6665M32.1667 22.9998V14.6665M32.1667 22.9998C33.7199 22.9998 34.4964 22.9998 35.1091 23.2535C35.9257 23.5918 36.5747 24.2408 36.9131 25.0575C37.1667 25.6702 37.1667 26.4467 37.1667 27.9998C37.1667 29.5712 37.1667 30.3568 36.6786 30.845C36.1904 31.3332 35.4047 31.3332 33.8334 31.3332H33.0001M27.1667 14.6665H22.1667M27.1667 14.6665H32.1667M32.1667 14.6665C32.1667 13.1134 32.1667 12.3368 31.9131 11.7242C31.5747 10.9075 30.9257 10.2586 30.1091 9.92024C29.4964 9.6665 28.7199 9.6665 27.1667 9.6665H22.1667V14.6665M22.1667 14.6665V31.3332H26.3334" stroke="#007272" stroke-width="1.5" stroke-linecap="round" stroke-linejoin="round"/>
<path d="M22.1666 9.66683C22.1666 8.09548 22.1666 7.30981 21.6784 6.82165C21.1903 6.3335 20.4046 6.3335 18.8333 6.3335" stroke="#007272" stroke-width="1.5" stroke-linecap="round" stroke-linejoin="round"/>
<path d="M13.8333 31.3333H22.1666V23H7.16658C5.59524 23 4.80957 23 4.3214 23.4882C3.83325 23.9763 3.83325 24.762 3.83325 26.3333V28C3.83325 29.5713 3.83325 30.357 4.3214 30.8452C4.80957 31.3333 5.59524 31.3333 7.16658 31.3333" stroke="#007272" stroke-width="1.5" stroke-linecap="round" stroke-linejoin="round"/>
<path d="M32.9999 31.3333C32.9999 33.1743 31.5076 34.6667 29.6666 34.6667C27.8256 34.6667 26.3333 33.1743 26.3333 31.3333C26.3333 29.4923 27.8256 28 29.6666 28C31.5076 28 32.9999 29.4923 32.9999 31.3333Z" stroke="#007272" stroke-width="1.5" stroke-linecap="round" stroke-linejoin="round"/>
<path d="M13.8334 31.3333C13.8334 33.1743 12.341 34.6667 10.5001 34.6667C8.65913 34.6667 7.16675 33.1743 7.16675 31.3333C7.16675 29.4923 8.65913 28 10.5001 28C12.341 28 13.8334 29.4923 13.8334 31.3333Z" stroke="#007272" stroke-width="1.5" stroke-linecap="round" stroke-linejoin="round"/>
</svg>
