<svg width="41" height="41" viewBox="0 0 41 41" fill="none" xmlns="http://www.w3.org/2000/svg">
<path d="M28.8333 33.8332C30.6743 33.8332 32.1667 32.3408 32.1667 30.4998C32.1667 28.6589 30.6743 27.1665 28.8333 27.1665C26.9924 27.1665 25.5 28.6589 25.5 30.4998C25.5 32.3408 26.9924 33.8332 28.8333 33.8332Z" stroke="#007272" stroke-width="1.5"/>
<path d="M12.1666 33.8332C14.0075 33.8332 15.4999 32.3408 15.4999 30.4998C15.4999 28.6589 14.0075 27.1665 12.1666 27.1665C10.3256 27.1665 8.83325 28.6589 8.83325 30.4998C8.83325 32.3408 10.3256 33.8332 12.1666 33.8332Z" stroke="#007272" stroke-width="1.5"/>
<path d="M8.83325 30.4538C7.00539 30.3628 5.86509 30.0908 5.05364 29.2795C4.24219 28.468 3.97029 27.3277 3.87917 25.4998M15.4999 30.4998H25.4999M32.1666 30.4538C33.9944 30.3628 35.1348 30.0908 35.9463 29.2795C37.1666 28.059 37.1666 26.0948 37.1666 22.1665V18.8332H29.3333C28.0924 18.8332 27.4719 18.8332 26.9699 18.67C25.9551 18.3403 25.1594 17.5447 24.8298 16.5299C24.6666 16.0278 24.6666 15.4074 24.6666 14.1665C24.6666 12.3052 24.6666 11.3746 24.4219 10.6214C23.9273 9.09924 22.7339 7.9058 21.2118 7.41122C20.4586 7.1665 19.5279 7.1665 17.6666 7.1665H3.83325" stroke="#007272" stroke-width="1.5" stroke-linecap="round" stroke-linejoin="round"/>
<path d="M3.83325 13.8335H13.8333" stroke="#007272" stroke-width="1.5" stroke-linecap="round" stroke-linejoin="round"/>
<path d="M3.83325 18.8335H10.4999" stroke="#007272" stroke-width="1.5" stroke-linecap="round" stroke-linejoin="round"/>
<path d="M24.6667 10.5H27.7021C30.1277 10.5 31.3404 10.5 32.3274 11.0895C33.3144 11.679 33.8894 12.7469 35.0394 14.8825L37.1667 18.8333" stroke="#007272" stroke-width="1.5" stroke-linecap="round" stroke-linejoin="round"/>
</svg>
