<svg width="41" height="41" viewBox="0 0 41 41" fill="none" xmlns="http://www.w3.org/2000/svg">
<path d="M35.5 23.8332L35.0963 19.7958C34.8877 17.7103 34.7835 16.6676 34.1683 15.8982C33.5533 15.1287 32.5592 14.7973 30.5708 14.1346C29.9558 13.9296 29.539 13.7289 29.145 13.2082C27.8863 11.5442 26.0727 8.31044 24.7125 7.59634C23.8937 7.1665 22.928 7.1665 20.9965 7.1665H18.8333C17.262 7.1665 16.4763 7.1665 15.9881 7.65465C15.5 8.14282 15.5 8.92849 15.5 10.4998V22.9998" stroke="#007272" stroke-width="1.5" stroke-linecap="round" stroke-linejoin="round"/>
<path d="M15.5 16.3335H5.5V23.8335" stroke="#007272" stroke-width="1.5" stroke-linecap="round" stroke-linejoin="round"/>
<path d="M29.6667 13.8332H23.8333C22.262 13.8332 21.4763 13.8332 20.9882 13.345C20.5 12.8569 20.5 12.0712 20.5 10.4998V7.1665" stroke="#007272" stroke-width="1.5" stroke-linecap="round" stroke-linejoin="round"/>
<path d="M15.5002 8.8335H13.8335" stroke="#007272" stroke-width="1.5" stroke-linecap="round" stroke-linejoin="round"/>
<path d="M20.5 18H22.1667" stroke="#007272" stroke-width="1.5" stroke-linecap="round" stroke-linejoin="round"/>
<path d="M23.0002 28.8335H18.0002M16.3335 23.8335H24.6668M8.00016 23.8335H6.3335C5.55693 23.8335 5.16865 23.8335 4.86236 23.9603C3.8373 24.385 3.8335 25.3832 3.8335 26.3335C3.8335 27.2838 3.8373 28.282 4.86236 28.7067C5.16865 28.8335 5.55693 28.8335 6.3335 28.8335M33.0002 23.8335H34.6668C35.4433 23.8335 35.8317 23.8335 36.138 23.9603C37.163 24.385 37.1668 25.3832 37.1668 26.3335C37.1668 27.2838 37.163 28.282 36.138 28.7067C35.8317 28.8335 35.4433 28.8335 34.6668 28.8335" stroke="#007272" stroke-width="1.5" stroke-linecap="round" stroke-linejoin="round"/>
<path d="M18.0002 27.9998C18.0002 31.2215 15.3885 33.8332 12.1668 33.8332C8.94516 33.8332 6.3335 31.2215 6.3335 27.9998C6.3335 24.7782 8.94516 22.1665 12.1668 22.1665C15.3885 22.1665 18.0002 24.7782 18.0002 27.9998Z" stroke="#007272" stroke-width="1.5" stroke-linecap="round" stroke-linejoin="round"/>
<path d="M28.8333 33.8332C32.055 33.8332 34.6667 31.2215 34.6667 27.9998C34.6667 24.7782 32.055 22.1665 28.8333 22.1665C25.6117 22.1665 23 24.7782 23 27.9998C23 31.2215 25.6117 33.8332 28.8333 33.8332Z" stroke="#007272" stroke-width="1.5" stroke-linecap="round" stroke-linejoin="round"/>
</svg>
