<svg width="32" height="45" viewBox="0 0 32 45" fill="none" xmlns="http://www.w3.org/2000/svg">
<path d="M23.3744 8.97927L30.7688 16.7208L27.6919 19.7977L21.255 13.2045L18.0882 16.37L14.9227 13.2045L19.1504 8.97927C19.7111 8.41972 20.4708 8.10547 21.263 8.10547C22.0551 8.10547 22.8137 8.41972 23.3744 8.97927ZM5.9479 25.346C6.15504 25.5552 6.40156 25.7212 6.67323 25.8345C6.9449 25.9478 7.23633 26.0061 7.53067 26.0061C7.82502 26.0061 8.11645 25.9478 8.38812 25.8345C8.65979 25.7212 8.90631 25.5552 9.11344 25.346L12.8021 21.6574L9.63652 18.4771L5.9479 22.1657C5.73847 22.3742 5.57228 22.622 5.45888 22.8949C5.34548 23.1678 5.28711 23.4604 5.28711 23.7559C5.28711 24.0514 5.34548 24.344 5.45888 24.6169C5.57228 24.8898 5.73847 25.1376 5.9479 25.346Z" fill="#007272"/>
<path d="M20.0959 16.4852L19.035 17.5461L18.0885 18.4926L13.3414 13.743C13.1361 13.5314 12.8906 13.3629 12.6194 13.2474C12.3481 13.1319 12.0566 13.0717 11.7617 13.0703C11.4669 13.069 11.1748 13.1264 10.9025 13.2394C10.6302 13.3524 10.3831 13.5186 10.1759 13.7283C9.96674 13.9354 9.80073 14.1819 9.68744 14.4536C9.57414 14.7253 9.51581 15.0167 9.51581 15.311C9.51581 15.6054 9.57414 15.8968 9.68744 16.1685C9.80073 16.4401 9.96674 16.6867 10.1759 16.8938L14.9242 21.6421L13.8645 22.7018L3.14941 33.4169L7.37218 37.6446L22.1993 22.8175C22.4785 23.0967 22.8573 23.2536 23.2522 23.2536C23.6471 23.2536 24.0258 23.0967 24.3051 22.8175C24.5843 22.5382 24.7412 22.1595 24.7412 21.7646C24.7412 21.3697 24.5843 20.9909 24.3051 20.7116L20.0959 16.4852Z" fill="#007272"/>
</svg>
