<svg width="30" height="31" viewBox="0 0 30 31" fill="none" xmlns="http://www.w3.org/2000/svg">
<path d="M0.225586 30.1439H10.0717V14.1439H0.225586V30.1439ZM12.5333 0.605469V30.1439H29.764V0.605469H12.5333ZM17.4564 6.75932H19.9179V9.22085H17.4564V6.75932ZM19.9179 11.6824H17.4564V14.1439H19.9179V11.6824ZM17.4564 16.6055H19.9179V19.067H17.4564V16.6055ZM19.9179 21.5285H17.4564V23.9901H19.9179V21.5285ZM22.3794 6.75932H24.841V9.22085H22.3794V6.75932ZM24.841 11.6824H22.3794V14.1439H24.841V11.6824ZM22.3794 16.6055H24.841V19.067H22.3794V16.6055ZM24.841 21.5285H22.3794V23.9901H24.841V21.5285Z" fill="#007272"/>
</svg>
