<svg width="32" height="45" viewBox="0 0 32 45" fill="none" xmlns="http://www.w3.org/2000/svg">
<path d="M25.8361 14.0093C25.8361 10.6161 23.0755 7.85547 19.6822 7.85547H7.37455C3.98132 7.85547 1.2207 10.6161 1.2207 14.0093C1.2207 17.4025 3.98132 20.1632 7.37455 20.1632H19.6822C23.0755 20.1632 25.8361 17.4025 25.8361 14.0093Z" fill="#007272"/>
<path d="M19.6825 22.6252C24.4333 22.6252 28.2979 18.7605 28.2979 14.0098H30.7595C30.7595 20.1168 25.7896 25.0867 19.6825 25.0867C19.0044 25.0867 18.4518 25.6393 18.4518 26.3175V27.8892H15.9902V26.3175C15.9902 24.2818 17.6468 22.6252 19.6825 22.6252Z" fill="#007272"/>
<path d="M14.7598 27.5479H19.6828V37.394H14.7598V27.5479Z" fill="#007272"/>
</svg>
