<svg width="32" height="45" viewBox="0 0 32 45" fill="none" xmlns="http://www.w3.org/2000/svg">
<path d="M6.14941 23.6054C6.14941 22.6261 6.53842 21.687 7.23087 20.9945C7.92331 20.3021 8.86246 19.9131 9.84172 19.9131H24.611C25.5902 19.9131 26.5294 20.3021 27.2218 20.9945C27.9143 21.687 28.3033 22.6261 28.3033 23.6054V27.2977H6.14941V23.6054ZM15.7863 35.2977H15.731C15.3229 35.2977 14.9316 35.4598 14.6431 35.7483C14.3546 36.0368 14.1925 36.4281 14.1925 36.8362C14.1925 37.2442 14.3546 37.6355 14.6431 37.924C14.9316 38.2125 15.3229 38.3746 15.731 38.3746H15.7863C16.1944 38.3746 16.5857 38.2125 16.8742 37.924C17.1627 37.6355 17.3248 37.2442 17.3248 36.8362C17.3248 36.4281 17.1627 36.0368 16.8742 35.7483C16.5857 35.4598 16.1944 35.2977 15.7863 35.2977ZM20.8177 35.2977H20.7623C20.3543 35.2977 19.963 35.4598 19.6745 35.7483C19.386 36.0368 19.2239 36.4281 19.2239 36.8362C19.2239 37.2442 19.386 37.6355 19.6745 37.924C19.963 38.2125 20.3543 38.3746 20.7623 38.3746H20.8177C21.2257 38.3746 21.6171 38.2125 21.9056 37.924C22.1941 37.6355 22.3562 37.2442 22.3562 36.8362C22.3562 36.4281 22.1941 36.0368 21.9056 35.7483C21.6171 35.4598 21.2257 35.2977 20.8177 35.2977ZM23.331 30.27H23.2768C22.8688 30.27 22.4775 30.4321 22.1889 30.7206C21.9004 31.0091 21.7383 31.4004 21.7383 31.8085C21.7383 32.2165 21.9004 32.6078 22.1889 32.8963C22.4775 33.1848 22.8688 33.3469 23.2768 33.3469H23.331C23.739 33.3469 24.1303 33.1848 24.4188 32.8963C24.7073 32.6078 24.8694 32.2165 24.8694 31.8085C24.8694 31.4004 24.7073 31.0091 24.4188 30.7206C24.1303 30.4321 23.739 30.27 23.331 30.27ZM18.3033 30.27H18.2479C17.8399 30.27 17.4485 30.4321 17.16 30.7206C16.8715 31.0091 16.7094 31.4004 16.7094 31.8085C16.7094 32.2165 16.8715 32.6078 17.16 32.8963C17.4485 33.1848 17.8399 33.3469 18.2479 33.3469H18.302C18.7101 33.3469 19.1014 33.1848 19.3899 32.8963C19.6784 32.6078 19.8405 32.2165 19.8405 31.8085C19.8405 31.4004 19.6784 31.0091 19.3899 30.7206C19.1014 30.4321 18.7101 30.27 18.302 30.27M13.2731 30.27H13.219C12.8109 30.27 12.4196 30.4321 12.1311 30.7206C11.8426 31.0091 11.6805 31.4004 11.6805 31.8085C11.6805 32.2165 11.8426 32.6078 12.1311 32.8963C12.4196 33.1848 12.8109 33.3469 13.219 33.3469H13.2731C13.6811 33.3469 14.0724 33.1848 14.361 32.8963C14.6495 32.6078 14.8116 32.2165 14.8116 31.8085C14.8116 31.4004 14.6495 31.0091 14.361 30.7206C14.0724 30.4321 13.6811 30.27 13.2731 30.27Z" fill="#007272"/>
<path d="M20.9183 7.60547V17.4516H14.7644V13.1218L3.6875 13.123V7.6067L20.9183 7.60547Z" fill="#007272"/>
</svg>
