<svg width="28" height="31" viewBox="0 0 28 31" fill="none" xmlns="http://www.w3.org/2000/svg">
<path d="M0.457031 7.49008H27.534V12.4132C27.534 17.0901 23.5955 21.0285 18.9186 21.0285H9.07242C4.39549 21.0285 0.457031 17.0901 0.457031 12.4132V7.49008ZM11.534 23.4901H16.457V30.8747H11.534V23.4901ZM5.38011 2.56701C5.38011 1.91417 5.63945 1.28806 6.10108 0.826437C6.5627 0.364809 7.18881 0.105469 7.84165 0.105469C8.49449 0.105469 9.12059 0.364809 9.58222 0.826437C10.0438 1.28806 10.3032 1.91417 10.3032 2.56701V7.49008H5.38011V2.56701ZM17.6878 2.56701C17.6878 1.91417 17.9471 1.28806 18.4088 0.826437C18.8704 0.364809 19.4965 0.105469 20.1493 0.105469C20.8022 0.105469 21.4283 0.364809 21.8899 0.826437C22.3515 1.28806 22.6109 1.91417 22.6109 2.56701V7.49008H17.6878V2.56701Z" fill="#007272"/>
</svg>
