<svg width="32" height="32" viewBox="0 0 32 32" fill="none" xmlns="http://www.w3.org/2000/svg">
<path d="M4.8514 18.6958L6.59604 20.4404C6.83507 20.6809 6.96922 21.0063 6.96922 21.3454C6.96922 21.6845 6.83507 22.0098 6.59604 22.2503C6.35551 22.4894 6.03018 22.6235 5.69108 22.6235C5.35198 22.6235 5.02665 22.4894 4.78612 22.2503L3.04148 20.5057L0.325319 23.2206L8.3394 31.2346L15.1554 24.4186L7.14132 16.4046L4.8514 18.6958ZM3.24756 8.87433L8.6786 3.44329L6.86868 1.63337C6.51232 1.27776 6.0893 0.995958 5.62386 0.804097C5.15842 0.612236 4.6597 0.514089 4.15626 0.515278C3.65283 0.516467 3.15458 0.616968 2.69004 0.811026C2.22551 1.00508 1.80383 1.28888 1.44916 1.64617C1.09251 2.00275 0.809602 2.4261 0.616584 2.89203C0.423565 3.35797 0.324219 3.85736 0.324219 4.36169C0.324219 4.86602 0.423565 5.36541 0.616584 5.83134C0.809602 6.29728 1.09251 6.72062 1.44916 7.07721L3.24756 8.87433ZM22.404 17.17L31.0453 8.52873L23.0312 0.514648L20.3164 3.22953L22.061 4.97417C22.3 5.2147 22.4342 5.54003 22.4342 5.87913C22.4342 6.21823 22.3 6.54356 22.061 6.78409C21.8205 7.02311 21.4951 7.15727 21.156 7.15727C20.8169 7.15727 20.4916 7.02311 20.2511 6.78409L18.5064 5.03945L14.3912 9.15465L10.4885 5.25449L5.05876 10.6855L11.5804 17.2071L11.5701 17.2135L16.9653 22.6087L16.973 22.601L23.702 29.33L31.0453 31.2346L29.133 23.899L22.404 17.17Z" fill="#007272"/>
</svg>
