<svg width="32" height="26" viewBox="0 0 32 26" fill="none" xmlns="http://www.w3.org/2000/svg">
<path d="M13.5336 0.317383H31.9951V22.4712H28.256C28.1104 23.4152 27.6318 24.276 26.9067 24.8977C26.1816 25.5195 25.258 25.8613 24.3028 25.8613C23.3476 25.8613 22.424 25.5195 21.6989 24.8977C20.9739 24.276 20.4952 23.4152 20.3496 22.4712H13.5336V0.317383ZM5.76866 7.702C2.58096 7.702 -0.00488281 10.2866 -0.00488281 13.4755V21.8558H3.07204C3.07204 22.9167 3.49347 23.9341 4.24361 24.6843C4.99376 25.4344 6.01117 25.8558 7.07204 25.8558C8.13291 25.8558 9.15032 25.4344 9.90047 24.6843C10.6506 23.9341 11.072 22.9167 11.072 21.8558V7.702H5.76866ZM2.56496 13.4743C2.56496 12.5962 2.91378 11.7541 3.53467 11.1332C4.15556 10.5123 4.99766 10.1635 5.87573 10.1635H8.71881V15.3882H2.56496V13.4743Z" fill="#007272"/>
</svg>
