<svg width="28" height="31" viewBox="0 0 28 31" fill="none" xmlns="http://www.w3.org/2000/svg">
<path d="M9.07242 9.47085C6.78747 9.47085 4.59612 10.3785 2.98042 11.9942C1.36472 13.6099 0.457031 15.8013 0.457031 18.0862V30.3939H17.6878V18.0862C17.6878 15.8013 16.7801 13.6099 15.1644 11.9942C13.5487 10.3785 11.3574 9.47085 9.07242 9.47085ZM16.457 3.31701C16.1306 3.31701 15.8176 3.44668 15.5867 3.67749C15.3559 3.90831 15.2263 4.22136 15.2263 4.54778C15.2263 4.8742 15.3559 5.18725 15.5867 5.41806C15.8176 5.64888 16.1306 5.77855 16.457 5.77855C16.7835 5.77855 17.0965 5.64888 17.3273 5.41806C17.5581 5.18725 17.6878 4.8742 17.6878 4.54778C17.6878 4.22136 17.5581 3.90831 17.3273 3.67749C17.0965 3.44668 16.7835 3.31701 16.457 3.31701ZM12.7647 3.31701C12.7647 2.66417 12.5054 2.03806 12.0438 1.57644C11.5821 1.11481 10.956 0.855469 10.3032 0.855469H7.84165C7.18881 0.855469 6.5627 1.11481 6.10108 1.57644C5.63945 2.03806 5.38011 2.66417 5.38011 3.31701V7.00932H12.7647V3.31701ZM26.3032 5.77855C26.6296 5.77855 26.9427 5.64888 27.1735 5.41806C27.4043 5.18725 27.534 4.8742 27.534 4.54778C27.534 4.22136 27.4043 3.90831 27.1735 3.67749C26.9427 3.44668 26.6296 3.31701 26.3032 3.31701C25.9768 3.31701 25.6637 3.44668 25.4329 3.67749C25.2021 3.90831 25.0724 4.22136 25.0724 4.54778C25.0724 4.8742 25.2021 5.18725 25.4329 5.41806C25.6637 5.64888 25.9768 5.77855 26.3032 5.77855ZM26.3032 13.1632C25.9768 13.1632 25.6637 13.2928 25.4329 13.5236C25.2021 13.7545 25.0724 14.0675 25.0724 14.3939C25.0724 14.7204 25.2021 15.0334 25.4329 15.2642C25.6637 15.495 25.9768 15.6247 26.3032 15.6247C26.6296 15.6247 26.9427 15.495 27.1735 15.2642C27.4043 15.0334 27.534 14.7204 27.534 14.3939C27.534 14.0675 27.4043 13.7545 27.1735 13.5236C26.9427 13.2928 26.6296 13.1632 26.3032 13.1632ZM26.3032 8.24008C25.9768 8.24008 25.6637 8.36975 25.4329 8.60057C25.2021 8.83138 25.0724 9.14443 25.0724 9.47085C25.0724 9.79727 25.2021 10.1103 25.4329 10.3411C25.6637 10.572 25.9768 10.7016 26.3032 10.7016C26.6296 10.7016 26.9427 10.572 27.1735 10.3411C27.4043 10.1103 27.534 9.79727 27.534 9.47085C27.534 9.14443 27.4043 8.83138 27.1735 8.60057C26.9427 8.36975 26.6296 8.24008 26.3032 8.24008ZM21.3801 3.31701C21.0537 3.31701 20.7406 3.44668 20.5098 3.67749C20.279 3.90831 20.1493 4.22136 20.1493 4.54778C20.1493 4.8742 20.279 5.18725 20.5098 5.41806C20.7406 5.64888 21.0537 5.77855 21.3801 5.77855C21.7065 5.77855 22.0196 5.64888 22.2504 5.41806C22.4812 5.18725 22.6109 4.8742 22.6109 4.54778C22.6109 4.22136 22.4812 3.90831 22.2504 3.67749C22.0196 3.44668 21.7065 3.31701 21.3801 3.31701ZM21.3801 8.24008C21.0537 8.24008 20.7406 8.36975 20.5098 8.60057C20.279 8.83138 20.1493 9.14443 20.1493 9.47085C20.1493 9.79727 20.279 10.1103 20.5098 10.3411C20.7406 10.572 21.0537 10.7016 21.3801 10.7016C21.7065 10.7016 22.0196 10.572 22.2504 10.3411C22.4812 10.1103 22.6109 9.79727 22.6109 9.47085C22.6109 9.14443 22.4812 8.83138 22.2504 8.60057C22.0196 8.36975 21.7065 8.24008 21.3801 8.24008Z" fill="#007272"/>
</svg>
