<svg width="24" height="24" viewBox="0 0 24 24" fill="none" xmlns="http://www.w3.org/2000/svg">
<path d="M23 16.5C23 13.4624 20.5376 11 17.5 11C14.4624 11 12 13.4624 12 16.5C12 19.5376 14.4624 22 17.5 22C20.5376 22 23 19.5376 23 16.5Z" fill="#B6F0FF" stroke="#47474F" stroke-width="1.5"/>
<path d="M14.3154 21.1318C14.3154 20.0127 15.741 19.1055 17.4996 19.1055C19.2582 19.1055 20.6839 20.0127 20.6839 21.1318" stroke="#47474F" stroke-width="1.5"/>
<path d="M19.5263 15.3427C19.5263 14.2236 18.619 13.3164 17.4999 13.3164C16.3808 13.3164 15.4736 14.2236 15.4736 15.3427C15.4736 16.4618 16.3808 17.369 17.4999 17.369C18.619 17.369 19.5263 16.4618 19.5263 15.3427Z" stroke="#47474F" stroke-width="1.5"/>
<path d="M9.33823 18H2.23529C1.55306 18 1 17.4457 1 16.7619V6.2381C1 5.55431 1.55306 5 2.23529 5H20.7647C21.4469 5 22 5.55431 22 6.2381V9.16667" stroke="#47474F" stroke-width="1.5" stroke-linecap="round" stroke-linejoin="round"/>
<path d="M1 7C1 9.76142 2.56293 12 4.49091 12H9" stroke="#47474F" stroke-width="1.5" stroke-linecap="round" stroke-linejoin="round"/>
<path d="M7 5V3.5C7 2.67157 7.67157 2 8.5 2H14.5C15.3284 2 16 2.67157 16 3.5V5" stroke="#47474F" stroke-width="1.5" stroke-linejoin="round"/>
</svg>
