<svg width="43" height="42" viewBox="0 0 43 42" fill="none" xmlns="http://www.w3.org/2000/svg">
<path d="M30 40C35.799 40 40.5 35.299 40.5 29.5C40.5 23.701 35.799 19 30 19C24.201 19 19.5 23.701 19.5 29.5C19.5 35.299 24.201 40 30 40Z" fill="#67EEB8" stroke="#3F3F46" stroke-width="2" stroke-linecap="round" stroke-linejoin="round"/>
<path d="M25.3994 33.5195L28.7355 34.8736C29.2474 35.081 29.8155 35.1037 30.3424 34.938C30.8693 34.7723 31.3221 34.4285 31.6232 33.9654C31.9242 33.5023 32.0548 32.949 31.9925 32.4002C31.9301 31.8514 31.6788 31.3414 31.2816 30.9576L28.442 28.2248C28.0447 27.841 27.7934 27.331 27.731 26.7822C27.6687 26.2334 27.7993 25.68 28.1003 25.217C28.4014 24.7539 28.8542 24.41 29.3811 24.2443C29.908 24.0786 30.4761 24.1014 30.988 24.3088L34.3017 25.6537" stroke="#3F3F46" stroke-width="1.5" stroke-linecap="round" stroke-linejoin="round"/>
<path d="M31.8633 24.6635L32.3634 23.4316" stroke="#3F3F46" stroke-width="1.5" stroke-linecap="round" stroke-linejoin="round"/>
<path d="M27.3633 35.7514L27.8633 34.5195" stroke="#3F3F46" stroke-width="1.5" stroke-linecap="round" stroke-linejoin="round"/>
<path d="M29.5 14.8132C27.5902 13.0624 25.0815 12 22.3339 12C16.3505 12 11.5 17.038 11.5 23.2527C11.5 27.4178 13.6787 31.0544 16.9169 33" stroke="#71717A" stroke-width="2" stroke-linecap="round" stroke-linejoin="round"/>
<path d="M15.5 23C15.5 19.134 19.0817 16 23.5 16" stroke="#71717A" stroke-width="2" stroke-linecap="round" stroke-linejoin="round"/>
<path d="M8.64137 27C7.26455 27.9219 6.2025 29.3347 5.74121 31.0718C4.73666 34.8547 6.96149 38.743 10.7105 39.7566C13.2231 40.4359 15.7826 39.6516 17.5 37.9217" stroke="#71717A" stroke-width="2" stroke-linecap="round" stroke-linejoin="round"/>
<path d="M14.5 35.4697C13.5937 35.9776 12.4921 36.148 11.4055 35.861C9.93743 35.4733 8.86909 34.3492 8.5 33" stroke="#71717A" stroke-width="2" stroke-linecap="round" stroke-linejoin="round"/>
<path d="M9.3487 22.907L5.90967 23.1591C4.80805 23.2398 3.84955 22.4123 3.7688 21.3106L2.64607 5.99475C2.56531 4.89313 3.39288 3.93464 4.4945 3.85388L33.1073 1.75642C34.2089 1.67567 35.1674 2.50324 35.2481 3.60485L35.2704 3.90844L36.1504 15.9136" stroke="#71717A" stroke-width="2"/>
<path fill-rule="evenodd" clip-rule="evenodd" d="M18.5382 8.52129L5.59027 9.46986L5.44434 7.47787L18.3923 6.5293L18.5382 8.52129Z" fill="#71717A"/>
<path fill-rule="evenodd" clip-rule="evenodd" d="M11.5664 13.8149L6.57972 14.1803L6.43359 12.1856L11.4202 11.8203L11.5664 13.8149Z" fill="#71717A"/>
</svg>
