<svg width="43" height="43" viewBox="0 0 43 43" fill="none" xmlns="http://www.w3.org/2000/svg">
<path d="M27.6795 18.5V6.5C27.6795 6.10218 27.5133 5.72064 27.2176 5.43934C26.9219 5.15804 26.5208 5 26.1026 5H7.17949L3.5 8.5V35C3.5 35.3978 3.66614 35.7794 3.96187 36.0607C4.2576 36.342 4.6587 36.5 5.07692 36.5H21.9615" stroke="#71717A" stroke-width="2" stroke-linecap="round"/>
<path d="M4.50195 10H8.38361C8.4694 10 8.55168 9.96488 8.61234 9.90237C8.673 9.83986 8.70708 9.75507 8.70708 9.66667V6" stroke="#71717A" stroke-width="2"/>
<path d="M6.5 18H9.5" stroke="#71717A" stroke-width="2"/>
<path d="M6.5 22H13.859" stroke="#71717A" stroke-width="2"/>
<path d="M6.5 14H17.0128" stroke="#71717A" stroke-width="2"/>
<path d="M11.5 18H22.5" stroke="#71717A" stroke-width="2"/>
<path d="M6.5 26H14.9103" stroke="#71717A" stroke-width="2"/>
<path d="M17.5 26H22.5" stroke="#71717A" stroke-width="2"/>
<path d="M6.5 30H18.5" stroke="#71717A" stroke-width="2"/>
<path d="M16.5 22H25.5" stroke="#71717A" stroke-width="2"/>
<path d="M30.0337 21.5342C30.0128 24.1799 28.9525 26.7113 27.0816 28.5821C25.2108 30.453 22.6794 31.5133 20.0337 31.5342C22.6794 31.5551 25.2108 32.6154 27.0816 34.4862C28.9525 36.3571 30.0128 38.8885 30.0337 41.5342C30.0546 38.8885 31.1149 36.3571 32.9857 34.4862C34.8566 32.6154 37.388 31.5551 40.0337 31.5342C37.388 31.5133 34.8566 30.453 32.9857 28.5821C31.1149 26.7113 30.0546 24.1799 30.0337 21.5342Z" fill="#B6F0FF" stroke="#3F3F46" stroke-width="2" stroke-linecap="round" stroke-linejoin="round"/>
</svg>
