<svg width="64" height="64" viewBox="0 0 64 64" fill="none" xmlns="http://www.w3.org/2000/svg">
<path d="M31.9902 62C44.6928 62 54.9902 59.9853 54.9902 57.5C54.9902 55.0147 44.6928 53 31.9902 53C19.2877 53 8.99023 55.0147 8.99023 57.5C8.99023 59.9853 19.2877 62 31.9902 62Z" fill="#F0F0F2"/>
<path d="M56.6304 24.9106L31.8105 19.8193V33.1839L56.6304 24.9106Z" fill="#E1E6EE"/>
<path d="M31.8097 19.8193L6.35352 24.9106L31.8097 32.5475V19.8193Z" fill="#C3CCD9"/>
<path d="M6.35352 49.0145V24.9102L31.809 31.9105V57.366L8.28174 51.4842C7.14851 51.2008 6.35352 50.1826 6.35352 49.0145Z" fill="#E1E6EE"/>
<path d="M56.6296 24.9102L31.8105 31.9105V57.366L54.7162 51.4927C55.8422 51.204 56.6296 50.1892 56.6296 49.0268V24.9102Z" fill="#C3CCD9"/>
<path d="M31.8105 31.5916L38.001 44.6458L63.3523 38.0673L56.6706 24.9102L31.8105 31.5916Z" fill="#F1F4F9"/>
<path d="M-0.00976562 38.0673L6.47547 24.9102L31.7286 31.7971L25.0468 44.6458L-0.00976562 38.0673Z" fill="#F1F4F9"/>
<path d="M38.4911 0C38.4658 3.1991 37.1837 6.26001 34.9216 8.52218C32.6594 10.7844 29.5985 12.0664 26.3994 12.0917C29.5985 12.117 32.6594 13.3991 34.9216 15.6613C37.1837 17.9234 38.4658 20.9843 38.4911 24.1834C38.5164 20.9843 39.7985 17.9234 42.0606 15.6613C44.3228 13.3991 47.3837 12.117 50.5828 12.0917C47.3837 12.0664 44.3228 10.7844 42.0606 8.52218C39.7985 6.26001 38.5164 3.1991 38.4911 0Z" fill="#C3CCD9"/>
<path d="M18.9902 8C18.9756 9.85199 18.2334 11.624 16.9238 12.9336C15.6142 14.2432 13.8422 14.9854 11.9902 15C13.8422 15.0146 15.6142 15.7568 16.9238 17.0664C18.2334 18.376 18.9756 20.148 18.9902 22C19.0048 20.148 19.747 18.376 21.0566 17.0664C22.3662 15.7568 24.1382 15.0146 25.9902 15C24.1382 14.9854 22.3662 14.2432 21.0566 12.9336C19.747 11.624 19.0048 9.85199 18.9902 8Z" fill="#E1E6EE"/>
</svg>
