<svg width="24" height="24" viewBox="0 0 24 24" fill="none" xmlns="http://www.w3.org/2000/svg">
<path d="M9.33823 18H2.23529C1.55306 18 1 17.4457 1 16.7619V6.2381C1 5.55431 1.55306 5 2.23529 5H20.7647C21.4469 5 22 5.55431 22 6.2381V7.16667" stroke="#71717A" stroke-width="1.5"/>
<path d="M1 7C1 9.76142 2.56293 12 4.49091 12H9" stroke="#71717A" stroke-width="1.5" stroke-linecap="round" stroke-linejoin="round"/>
<path d="M7 5V3.5C7 2.67157 7.67157 2 8.5 2H14.5C15.3284 2 16 2.67157 16 3.5V5" stroke="#71717A" stroke-width="1.5" stroke-linejoin="round"/>
<path d="M15.1723 23L17.1569 17.537C17.1808 17.471 17.1904 17.3992 17.185 17.3278C17.1796 17.2563 17.1592 17.1876 17.1258 17.1278C17.0924 17.0679 17.0469 17.0187 16.9935 16.9847C16.94 16.9506 16.8802 16.9327 16.8194 16.9325H15.3682C15.3073 16.9328 15.2472 16.9151 15.1935 16.8812C15.1398 16.8472 15.0941 16.7979 15.0605 16.7379C15.027 16.6778 15.0067 16.6089 15.0014 16.5372C14.9961 16.4656 15.006 16.3935 15.0303 16.3275L17.2784 10.26C17.3069 10.1828 17.354 10.117 17.4138 10.0709C17.4735 10.0247 17.5434 10 17.6148 10H21.3861C21.4553 10 21.5231 10.0231 21.5817 10.0666C21.6403 10.1101 21.6872 10.1723 21.7172 10.2459C21.7471 10.3195 21.7588 10.4016 21.751 10.4827C21.7431 10.5638 21.7159 10.6407 21.6727 10.7044L19.6891 13.6301C19.6459 13.6938 19.6189 13.7707 19.6111 13.8518C19.6033 13.9329 19.6151 14.0149 19.6451 14.0884C19.6751 14.1619 19.722 14.224 19.7806 14.2674C19.8392 14.3109 19.9069 14.3339 19.9761 14.3339H21.6325C21.7052 14.3339 21.7763 14.3593 21.8367 14.4069C21.8972 14.4546 21.9443 14.5223 21.9721 14.6016C21.9999 14.6809 22.0071 14.7681 21.9929 14.8522C21.9786 14.9363 21.9436 15.0136 21.8921 15.0741L15.1723 23Z" fill="#FAE76B" stroke="#71717A" stroke-width="1.5" stroke-linejoin="round"/>
<path d="M13 21H4" stroke="#71717A" stroke-width="1.5" stroke-linejoin="round"/>
<path d="M13 12H12" stroke="#71717A" stroke-width="1.5" stroke-linecap="round" stroke-linejoin="round"/>
</svg>
