<svg width="83" height="42" viewBox="0 0 83 42" fill="none" xmlns="http://www.w3.org/2000/svg">
<path d="M34.6198 34H23.7698C22.5298 34 21.5298 32.98 21.5298 31.71V11.29C21.5298 10.02 22.5298 9 23.7698 9H57.2898C58.5298 9 59.5298 10.02 59.5298 11.29V13" stroke="#007272" stroke-width="2" stroke-linecap="round" stroke-linejoin="round"/>
<path d="M21.5298 13C21.5298 18.52 24.2698 23 27.6398 23H34.5298" stroke="#007272" stroke-width="2" stroke-linecap="round" stroke-linejoin="round"/>
<path d="M32.5298 9V6.5C32.5298 5.12 33.7998 4 35.3598 4H46.6998C48.2598 4 49.5298 5.12 49.5298 6.5V9" stroke="#007272" stroke-width="2" stroke-linejoin="round"/>
<path d="M49.5298 38.25C55.7398 38.25 60.7798 33.21 60.7798 27C60.7798 20.79 55.7398 15.75 49.5298 15.75C43.3198 15.75 38.2798 20.79 38.2798 27C38.2798 33.21 43.3198 38.25 49.5298 38.25Z" fill="#B6F0FF" stroke="#007272" stroke-width="2" stroke-linecap="round" stroke-linejoin="round"/>
<path d="M49.5298 30C52.4298 30 54.7798 27.65 54.7798 24.75C54.7798 21.85 52.4298 19.5 49.5298 19.5C46.6298 19.5 44.2798 21.85 44.2798 24.75C44.2798 27.65 46.6298 30 49.5298 30Z" stroke="#007272" stroke-width="2" stroke-linecap="round" stroke-linejoin="round"/>
<path d="M45.0098 22.0801C45.8198 22.9301 46.7898 23.6001 47.8698 24.0601C48.9498 24.5101 50.1098 24.7501 51.2798 24.7501C52.4398 24.7501 53.5998 24.5201 54.6698 24.0701" stroke="#007272" stroke-width="2" stroke-linecap="round" stroke-linejoin="round"/>
<path d="M42.6196 35.88C43.5196 34.96 44.5996 34.24 45.7896 33.75C46.9696 33.25 48.2396 33 49.5296 33C50.8096 33 52.0896 33.25 53.2696 33.75C54.4496 34.24 55.5196 34.95 56.4196 35.85" stroke="#007272" stroke-width="2" stroke-linecap="round" stroke-linejoin="round"/>
<path d="M68.2917 38.195C71.178 36.89 68.492 33.2529 65.3333 32.5967" stroke="#007272" stroke-width="2" stroke-linecap="round" stroke-linejoin="round" stroke-dasharray="15.9 15.9"/>
<path d="M59.0893 40.1912C56.6573 41.5013 57.6552 35.2814 53.311 35.2779" stroke="#007272" stroke-width="2" stroke-linecap="round" stroke-linejoin="round" stroke-dasharray="15.9 15.9"/>
<path d="M70.4297 2.7998C67.4897 2.7998 68.9897 7.4398 64.4297 7.4398" stroke="#007272" stroke-width="2" stroke-linecap="round" stroke-linejoin="round" stroke-dasharray="15.9 15.9"/>
<path d="M42.0697 38.19H20.3597C19.1397 38.19 18.1597 37.16 18.1597 35.89C18.1897 30.71 18.1797 23.44 18.1597 15.3C18.1597 14.03 19.1397 13 20.3597 13" stroke="#007272" stroke-width="2" stroke-miterlimit="1" stroke-linecap="round" stroke-linejoin="round" stroke-dasharray="15 55"/>
<path d="M69.9799 27.8198C99.7499 6.29977 44.2899 28.1698 80.0999 24.0098" stroke="#06BEFB" stroke-width="2" stroke-linecap="round" stroke-linejoin="round" stroke-dasharray="20 50"/>
<path d="M62.9799 27.8198C92.7499 6.29977 37.2899 28.1698 73.0999 24.0098" stroke="#06BEFB" stroke-width="2" stroke-linecap="round" stroke-linejoin="round" stroke-dasharray="20 50"/>
</svg>
