<svg width="65" height="64" viewBox="0 0 65 64" fill="none" xmlns="http://www.w3.org/2000/svg">
<path d="M28.79 62C39.5596 62 48.29 61.5523 48.29 61C48.29 60.4477 39.5596 60 28.79 60C18.0205 60 9.29004 60.4477 9.29004 61C9.29004 61.5523 18.0205 62 28.79 62Z" fill="#F0F0F2"/>
<mask id="mask0_82_7565" style="mask-type:luminance" maskUnits="userSpaceOnUse" x="1" y="0" width="61" height="62">
<path d="M61.2421 0.96875H1.01953V61.2991H61.2421V0.96875Z" fill="white"/>
</mask>
<g mask="url(#mask0_82_7565)">
<path fill-rule="evenodd" clip-rule="evenodd" d="M48.6465 0.977185L2.83758 5.16507C1.7376 5.26563 0.927405 6.23887 1.02797 7.33885L3.7592 37.2143C3.85976 38.3143 4.83299 39.1244 5.93297 39.0239L12.24 38.4473L16.5801 38.0505C16.3895 37.0632 16.2897 36.0436 16.2897 35.0006C16.2897 26.1641 23.4532 19.0006 32.2897 19.0006C38.2205 19.0006 43.3977 22.2275 46.1612 27.0213C48.6778 27.1413 51.059 27.7781 53.201 28.8278L50.8203 2.7868C50.7197 1.68682 49.7465 0.876624 48.6465 0.977185Z" fill="#E1E6EE"/>
<path fill-rule="evenodd" clip-rule="evenodd" d="M16.6728 38.4951C18.1211 44.9964 23.5252 50.0067 30.2282 50.869C28.6467 53.9176 25.4616 56.0005 21.79 56.0005C16.5433 56.0005 12.29 51.7472 12.29 46.5005C12.29 43.138 14.0369 40.1835 16.6728 38.4951Z" fill="#E1E6EE"/>
<path fill-rule="evenodd" clip-rule="evenodd" d="M27.5709 48.1847C27.3863 47.151 27.29 46.0868 27.29 45C27.29 35.5533 34.5673 27.8062 43.8216 27.059C41.2962 23.3988 37.0733 21 32.29 21C24.558 21 18.29 27.268 18.29 35C18.29 41.0761 22.1607 46.2481 27.5709 48.1847Z" fill="#9BA8BA"/>
<path d="M45.0345 61.2984C53.9858 61.2984 61.2423 54.0419 61.2423 45.0906C61.2423 36.1393 53.9858 28.8828 45.0345 28.8828C36.0832 28.8828 28.8267 36.1393 28.8267 45.0906C28.8267 54.0419 36.0832 61.2984 45.0345 61.2984Z" fill="#E1E6EE"/>
<path d="M38.2324 51.0779L43.3159 53.1413C44.096 53.4573 44.9617 53.492 45.7646 53.2395C46.5674 52.987 47.2574 52.463 47.7162 51.7573C48.175 51.0517 48.3739 50.2085 48.2789 49.3722C48.184 48.536 47.801 47.7588 47.1956 47.174L42.8687 43.0097C42.2633 42.4249 41.8803 41.6478 41.7853 40.8115C41.6904 39.9753 41.8893 39.132 42.3481 38.4264C42.8069 37.7208 43.4969 37.1968 44.2997 36.9443C45.1026 36.6918 45.9683 36.7265 46.7484 37.0425L51.7978 39.092" stroke="#007272" stroke-width="4" stroke-linecap="round" stroke-linejoin="round"/>
<path d="M48.082 37.5833L48.8439 35.7061" stroke="#007272" stroke-width="4" stroke-linecap="round" stroke-linejoin="round"/>
<path d="M41.2246 54.4788L41.9865 52.6016" stroke="#007272" stroke-width="4" stroke-linecap="round" stroke-linejoin="round"/>
<path fill-rule="evenodd" clip-rule="evenodd" d="M26.0206 12.8432L6.28893 14.5975L6.01904 11.5618L25.7507 9.80762L26.0206 12.8432Z" fill="#9BA8BA"/>
<path fill-rule="evenodd" clip-rule="evenodd" d="M14.4176 19.9946L6.82848 20.6694L6.55859 17.6337L14.1477 16.959L14.4176 19.9946Z" fill="#9BA8BA"/>
<path d="M15.3741 39.2471C14.8644 40.9182 13.7181 42.3219 12.1826 43.1553C10.6471 43.9888 8.84547 44.185 7.1665 43.7018C8.83762 44.2115 10.2414 45.3578 11.0747 46.8934C11.9081 48.4289 12.1044 50.2305 11.6212 51.9095C12.1309 50.2384 13.2772 48.8347 14.8127 48.0012C16.3483 47.1678 18.1499 46.9715 19.8289 47.4548C18.1578 46.9451 16.754 45.7988 15.9206 44.2632C15.0872 42.7277 14.8909 40.9261 15.3741 39.2471Z" fill="#9BA8BA"/>
</g>
</svg>
