<svg width="40" height="40" viewBox="0 0 40 40" fill="none" xmlns="http://www.w3.org/2000/svg">
<path d="M31.667 22.4998H30.0003C28.429 22.4998 27.6433 22.4998 27.1552 22.0117C26.667 21.5235 26.667 20.7378 26.667 19.1665V14.1665M31.667 22.4998V14.1665M31.667 22.4998C33.2202 22.4998 33.9967 22.4998 34.6093 22.7535C35.426 23.0918 36.075 23.7408 36.4133 24.5575C36.667 25.1702 36.667 25.9467 36.667 27.4998C36.667 29.0712 36.667 29.8568 36.1788 30.345C35.6907 30.8332 34.905 30.8332 33.3337 30.8332H32.5003M26.667 14.1665H21.667M26.667 14.1665H31.667M31.667 14.1665C31.667 12.6134 31.667 11.8368 31.4133 11.2242C31.075 10.4075 30.426 9.75855 29.6093 9.42024C28.9967 9.1665 28.2202 9.1665 26.667 9.1665H21.667V14.1665M21.667 14.1665V30.8332H25.8337" stroke="#141B34" stroke-width="1.5" stroke-linecap="round" stroke-linejoin="round"/>
<path d="M21.6663 9.16683C21.6663 7.59548 21.6663 6.80981 21.1782 6.32165C20.69 5.8335 19.9043 5.8335 18.333 5.8335" stroke="#141B34" stroke-width="1.5" stroke-linecap="round" stroke-linejoin="round"/>
<path d="M13.333 30.8333H21.6663V22.5H6.66634C5.09499 22.5 4.30932 22.5 3.82116 22.9882C3.33301 23.4763 3.33301 24.262 3.33301 25.8333V27.5C3.33301 29.0713 3.33301 29.857 3.82116 30.3452C4.30932 30.8333 5.09499 30.8333 6.66634 30.8333" stroke="#141B34" stroke-width="1.5" stroke-linecap="round" stroke-linejoin="round"/>
<path d="M32.4997 30.8333C32.4997 32.6743 31.0073 34.1667 29.1663 34.1667C27.3253 34.1667 25.833 32.6743 25.833 30.8333C25.833 28.9923 27.3253 27.5 29.1663 27.5C31.0073 27.5 32.4997 28.9923 32.4997 30.8333Z" stroke="#141B34" stroke-width="1.5" stroke-linecap="round" stroke-linejoin="round"/>
<path d="M13.3337 30.8333C13.3337 32.6743 11.8413 34.1667 10.0003 34.1667C8.15938 34.1667 6.66699 32.6743 6.66699 30.8333C6.66699 28.9923 8.15938 27.5 10.0003 27.5C11.8413 27.5 13.3337 28.9923 13.3337 30.8333Z" stroke="#141B34" stroke-width="1.5" stroke-linecap="round" stroke-linejoin="round"/>
</svg>
