<svg width="40" height="40" viewBox="0 0 40 40" fill="none" xmlns="http://www.w3.org/2000/svg">
<path d="M21.667 18.3333L30.0003 10" stroke="#007272" stroke-width="1.5"/>
<path d="M31.6663 11.6668L28.333 8.3335L32.4997 5.8335L34.1663 7.50016L31.6663 11.6668Z" stroke="#007272" stroke-width="1.5" stroke-linejoin="round"/>
<path d="M6.70855 14.9581C5.0236 13.2732 4.58491 10.8139 5.39246 8.7258L7.76246 11.0958H11.0958V7.76246L8.7258 5.39246C10.8139 4.58491 13.2732 5.0236 14.9581 6.70855C16.6437 8.39411 17.0822 10.8546 16.2733 12.9432L27.0568 23.7267C29.1455 22.9178 31.6058 23.3563 33.2915 25.0418C34.9763 26.7268 35.4152 29.186 34.6075 31.2742L32.2375 28.9042H28.9042V32.2375L31.2742 34.6075C29.186 35.4152 26.7268 34.9763 25.0418 33.2915C23.3575 31.6072 22.9185 29.1492 23.7248 27.0615L12.9385 16.2751C10.8509 17.0815 8.39285 16.6424 6.70855 14.9581Z" stroke="#007272" stroke-width="1.5" stroke-linejoin="round"/>
<path d="M20.338 24.1668L10.998 33.507C10.1183 34.3866 8.692 34.3866 7.8123 33.507L6.49277 32.1875C5.61309 31.3078 5.61309 29.8815 6.49277 29.0018L15.8329 19.6616" stroke="#007272" stroke-width="1.5" stroke-linejoin="round"/>
</svg>
