<?xml version="1.0" encoding="UTF-8"?>
<svg version="1.1" xmlns="http://www.w3.org/2000/svg" width="85" height="95">
<path d="M0 0 C28.05 0 56.1 0 85 0 C85 31.35 85 62.7 85 95 C56.95 95 28.9 95 0 95 C0 63.65 0 32.3 0 0 Z " fill="#FCFDFD" transform="translate(0,0)"/>
<path d="M0 0 C5.12924988 2.29388718 8.72686432 5.69346482 11.84765625 10.34765625 C13.66238376 15.79183879 14.02276975 21.57354901 11.75390625 26.9296875 C8.79412392 31.67635969 5.41457658 35.82124261 -0.15234375 37.34765625 C-6.49398839 38.26403201 -12.29435561 38.57137737 -17.71484375 34.78515625 C-22.90656086 30.06541343 -25.33307196 25.99740682 -25.71484375 18.91015625 C-25.44579897 11.91499208 -22.62269237 7.63724765 -17.58984375 2.97265625 C-11.84381737 -0.85802801 -6.77145597 -2.05232876 0 0 Z " fill="#057575" transform="translate(37.15234375,51.65234375)"/>
<path d="M0 0 C3.38562375 0.72454983 4.97744554 2.76483087 7.0078125 5.4296875 C7.0078125 6.0896875 7.0078125 6.7496875 7.0078125 7.4296875 C9.98632812 7.33203125 9.98632812 7.33203125 12.96484375 7.234375 C15.0078125 7.4296875 15.0078125 7.4296875 18.0078125 9.4296875 C18.0078125 10.4196875 18.0078125 11.4096875 18.0078125 12.4296875 C18.5234375 11.9140625 19.0390625 11.3984375 19.5703125 10.8671875 C22.0078125 9.4296875 22.0078125 9.4296875 25.6328125 9.5546875 C29.0078125 10.4296875 29.0078125 10.4296875 31.0078125 13.4296875 C30.9453125 15.84765625 30.9453125 15.84765625 30.0078125 18.4296875 C28.38115901 19.91231438 26.70769865 21.34412773 25.0078125 22.7421875 C19.28357215 28.62858763 19.16140901 33.84765458 19.1328125 41.8671875 C19.15730469 42.93428955 19.18179688 44.0013916 19.20703125 45.10083008 C19.22636719 46.11556396 19.24570313 47.13029785 19.265625 48.17578125 C19.32967529 49.54754517 19.32967529 49.54754517 19.39501953 50.94702148 C18.88054309 54.24570431 17.60063857 55.40864185 15.0078125 57.4296875 C12.7578125 57.1796875 12.7578125 57.1796875 11.0078125 56.4296875 C11.0078125 55.7696875 11.0078125 55.1096875 11.0078125 54.4296875 C11.9978125 54.0996875 12.9878125 53.7696875 14.0078125 53.4296875 C14.0078125 47.4896875 14.0078125 41.5496875 14.0078125 35.4296875 C12.5640625 36.0896875 11.1203125 36.7496875 9.6328125 37.4296875 C4.28968458 39.59747083 -0.29305549 39.86621676 -5.9921875 39.4296875 C-6.6521875 38.1096875 -7.3121875 36.7896875 -7.9921875 35.4296875 C-4.6921875 35.4296875 -1.3921875 35.4296875 2.0078125 35.4296875 C2.3378125 33.1196875 2.6678125 30.8096875 3.0078125 28.4296875 C-2.2721875 28.4296875 -7.5521875 28.4296875 -12.9921875 28.4296875 C-12.9921875 27.4396875 -12.9921875 26.4496875 -12.9921875 25.4296875 C-12.13838501 25.43923462 -12.13838501 25.43923462 -11.26733398 25.44897461 C-8.65349453 25.4577343 -6.04312048 25.41284496 -3.4296875 25.3671875 C-2.53443359 25.37814453 -1.63917969 25.38910156 -0.71679688 25.40039062 C4.39469221 25.2693268 7.36872501 24.68970893 11.1328125 21.0859375 C13.54173473 18.45417586 13.97726988 17.66966527 14.4453125 13.9921875 C14.3009375 13.1465625 14.1565625 12.3009375 14.0078125 11.4296875 C13.39292969 11.41550781 12.77804688 11.40132812 12.14453125 11.38671875 C9.67466613 11.24096913 7.4085282 11.03740907 5.0078125 10.4296875 C3.3828125 7.9296875 3.3828125 7.9296875 2.0078125 5.4296875 C-1.59138173 4.53376667 -1.59138173 4.53376667 -4.9921875 4.4296875 C-5.4665625 5.3990625 -5.9409375 6.3684375 -6.4296875 7.3671875 C-8.9921875 10.4296875 -8.9921875 10.4296875 -17.9921875 11.4296875 C-18.3221875 19.0196875 -18.6521875 26.6096875 -18.9921875 34.4296875 C-20.9721875 34.9246875 -20.9721875 34.9246875 -22.9921875 35.4296875 C-23.10837514 31.51327039 -23.17943404 27.59729649 -23.2421875 23.6796875 C-23.27570312 22.56851563 -23.30921875 21.45734375 -23.34375 20.3125 C-23.35664063 19.24257813 -23.36953125 18.17265625 -23.3828125 17.0703125 C-23.40375977 16.08579102 -23.42470703 15.10126953 -23.44628906 14.08691406 C-22.86684163 10.69621201 -21.65111234 9.53713163 -18.9921875 7.4296875 C-16.21076707 6.92212903 -13.8464646 7.23940236 -10.9921875 7.4296875 C-10.7240625 6.8315625 -10.4559375 6.2334375 -10.1796875 5.6171875 C-7.59700989 0.85962349 -5.67271961 -0.1883929 0 0 Z " fill="#177E7E" transform="translate(49.9921875,12.5703125)"/>
<path d="M0 0 C1.32 0.66 2.64 1.32 4 2 C4 6.19801334 2.23453814 7.19869611 -0.6875 10.125 C-1.55761719 11.01445313 -2.42773438 11.90390625 -3.32421875 12.8203125 C-6.04754952 15.03873377 -7.55455442 15.6895995 -11 16 C-10.62310484 10.53101059 -8.88820181 8.32565739 -4.9375 4.625 C-4.01839844 3.75101563 -3.09929688 2.87703125 -2.15234375 1.9765625 C-1.44207031 1.32429688 -0.73179688 0.67203125 0 0 Z " fill="#ECF4F4" transform="translate(67,31)"/>
<path d="M0 0 C0 4.95 0 9.9 0 15 C-0.66 15 -1.32 15 -2 15 C-2 11.04 -2 7.08 -2 3 C-3.32 3.33 -4.64 3.66 -6 4 C-5.67 3.01 -5.34 2.02 -5 1 C-2 0 -2 0 0 0 Z " fill="#F0F7F7" transform="translate(32,62)"/>
<path d="M0 0 C2.125 0.375 2.125 0.375 4 1 C3.67 2.65 3.34 4.3 3 6 C1.68 6 0.36 6 -1 6 C-1.625 4.125 -1.625 4.125 -2 2 C-1.34 1.34 -0.68 0.68 0 0 Z " fill="#E1EEEE" transform="translate(73,25)"/>
</svg>
