<?xml version="1.0" encoding="UTF-8"?>
<svg version="1.1" xmlns="http://www.w3.org/2000/svg" width="91" height="96">
<path d="M0 0 C30.03 0 60.06 0 91 0 C91 31.68 91 63.36 91 96 C60.97 96 30.94 96 0 96 C0 64.32 0 32.64 0 0 Z " fill="#FDFEFE" transform="translate(0,0)"/>
<path d="M0 0 C1.18722656 -0.00064453 2.37445313 -0.00128906 3.59765625 -0.00195312 C4.83386719 0.01802734 6.07007813 0.03800781 7.34375 0.05859375 C8.57996094 0.05150391 9.81617188 0.04441406 11.08984375 0.03710938 C20.10549006 0.10073771 20.10549006 0.10073771 23.22851562 1.77319336 C24.84375 3.49609375 24.84375 3.49609375 24.84375 7.49609375 C26.52404297 7.44388672 26.52404297 7.44388672 28.23828125 7.390625 C29.71092251 7.36248536 31.18357998 7.33518538 32.65625 7.30859375 C33.76323242 7.27088867 33.76323242 7.27088867 34.89257812 7.23242188 C40.38512351 7.15786244 40.38512351 7.15786244 42.5559082 8.75878906 C44.12092278 10.87000114 44.22981328 11.9788068 44.2421875 14.5859375 C44.24798828 15.7625293 44.24798828 15.7625293 44.25390625 16.96289062 C44.24230469 17.77822266 44.23070312 18.59355469 44.21875 19.43359375 C44.23035156 20.24505859 44.24195313 21.05652344 44.25390625 21.89257812 C44.23671243 25.38578842 44.15522527 27.86732124 42.58984375 31.02734375 C40.44571718 32.83090435 39.30751627 32.98666975 36.53125 33.05859375 C32.31249185 33.1837576 29.32864717 34.03587515 25.84375 36.49609375 C25.28823854 39.25192713 25.0908691 41.25009585 25.15625 43.99609375 C25.20254066 50.93969224 25.20254066 50.93969224 23.57421875 53.46484375 C21.84375 54.49609375 21.84375 54.49609375 17.84375 54.49609375 C17.84375 53.50609375 17.84375 52.51609375 17.84375 51.49609375 C19.32875 51.00109375 19.32875 51.00109375 20.84375 50.49609375 C21.17375 48.84609375 21.50375 47.19609375 21.84375 45.49609375 C19.86375 45.49609375 17.88375 45.49609375 15.84375 45.49609375 C15.51375 44.17609375 15.18375 42.85609375 14.84375 41.49609375 C17.15375 41.49609375 19.46375 41.49609375 21.84375 41.49609375 C21.84375 40.50609375 21.84375 39.51609375 21.84375 38.49609375 C20.52375 38.16609375 19.20375 37.83609375 17.84375 37.49609375 C17.84375 35.84609375 17.84375 34.19609375 17.84375 32.49609375 C16.750625 32.57859375 15.6575 32.66109375 14.53125 32.74609375 C10.84375 32.49609375 10.84375 32.49609375 9.125 30.96484375 C7.36387715 27.57146069 7.52026512 24.46381598 7.65625 20.74609375 C7.718125 18.35359375 7.78 15.96109375 7.84375 13.49609375 C2.89375 13.49609375 -2.05625 13.49609375 -7.15625 13.49609375 C-7.15625 19.76609375 -7.15625 26.03609375 -7.15625 32.49609375 C-8.14625 32.49609375 -9.13625 32.49609375 -10.15625 32.49609375 C-10.27230098 27.91297291 -10.34345362 23.33022926 -10.40625 18.74609375 C-10.43976562 17.44414063 -10.47328125 16.1421875 -10.5078125 14.80078125 C-10.52070313 13.55039062 -10.53359375 12.3 -10.546875 11.01171875 C-10.56782227 9.85961914 -10.58876953 8.70751953 -10.61035156 7.52050781 C-10.15625 4.49609375 -10.15625 4.49609375 -8.51660156 2.11987305 C-5.49387853 0.04042219 -3.65233992 -0.00623914 0 0 Z " fill="#187F7F" transform="translate(40.15625,16.50390625)"/>
<path d="M0 0 C4.38589238 2.78366602 7.47821119 6.42682106 9.1171875 11.34375 C9.8591583 18.19177554 9.17634161 23.6688161 5.1171875 29.34375 C-0.48646506 34.66721993 -5.14971905 35.9301108 -12.76953125 35.78125 C-18.60801136 34.96078604 -22.70578836 32.10485378 -26.32421875 27.515625 C-29.28302122 22.4433922 -29.94105155 17.09108277 -28.8828125 11.34375 C-26.7218086 6.1892243 -23.542694 2.45033767 -18.8828125 -0.65625 C-18.2846875 -1.06875 -17.6865625 -1.48125 -17.0703125 -1.90625 C-10.95775729 -4.00198321 -5.62752744 -2.72613786 0 0 Z " fill="#047474" transform="translate(44.8828125,54.65625)"/>
<path d="M0 0 C9.24 0 18.48 0 28 0 C28.020625 2.949375 28.04125 5.89875 28.0625 8.9375 C28.071604 9.86812256 28.08070801 10.79874512 28.09008789 11.75756836 C28.09258545 12.48596924 28.09508301 13.21437012 28.09765625 13.96484375 C28.10551147 15.08814087 28.10551147 15.08814087 28.11352539 16.23413086 C28 18 28 18 27 19 C25.60755002 19.15829958 24.21046392 19.27665078 22.8125 19.375 C18.64230484 19.78006673 15.67866893 20.93635645 12 23 C11.34 23 10.68 23 10 23 C9.67 22.01 9.34 21.02 9 20 C7.700625 19.855625 6.40125 19.71125 5.0625 19.5625 C1.125 19.125 1.125 19.125 0 18 C-0.08631874 16.65732587 -0.10706473 15.31025678 -0.09765625 13.96484375 C-0.09515869 13.23644287 -0.09266113 12.50804199 -0.09008789 11.75756836 C-0.08098389 10.8269458 -0.07187988 9.89632324 -0.0625 8.9375 C-0.041875 5.988125 -0.02125 3.03875 0 0 Z " fill="#ECF4F4" transform="translate(52,27)"/>
<path d="M0 0 C8.91 0 17.82 0 27 0 C27.33 0.99 27.66 1.98 28 3 C27.21753906 3.06058594 26.43507813 3.12117188 25.62890625 3.18359375 C24.11103516 3.30927734 24.11103516 3.30927734 22.5625 3.4375 C21.55316406 3.51871094 20.54382813 3.59992187 19.50390625 3.68359375 C17.06359221 3.73211468 17.06359221 3.73211468 16 5 C13.13732433 5.07325168 10.299281 5.09238205 7.4375 5.0625 C6.63119141 5.05798828 5.82488281 5.05347656 4.99414062 5.04882812 C2.99606244 5.03700518 0.99802217 5.01906914 -1 5 C-0.67 3.35 -0.34 1.7 0 0 Z " fill="#F4F9F9" transform="translate(34,21)"/>
<path d="M0 0 C2.31 0 4.62 0 7 0 C7.8125 2.625 7.8125 2.625 8 6 C6.57631048 8.3586498 4.94551992 10.00702837 3 12 C5.97 12.495 5.97 12.495 9 13 C9 13.66 9 14.32 9 15 C5.7 15 2.4 15 -1 15 C0 11 0 11 2 9.0625 C4.29919283 6.69145739 4.64136887 5.22768018 5 2 C1.88214887 2.64644661 1.88214887 2.64644661 1 5 C0.01 5 -0.98 5 -2 5 C-1.34 3.35 -0.68 1.7 0 0 Z " fill="#E3EFEF" transform="translate(31,63)"/>
<path d="M0 0 C2.31 0 4.62 0 7 0 C5 2 5 2 2 3 C1.67 3.66 1.34 4.32 1 5 C0.01 5 -0.98 5 -2 5 C-1.34 3.35 -0.68 1.7 0 0 Z " fill="#C5DFDF" transform="translate(31,63)"/>
</svg>
