<?xml version="1.0" encoding="UTF-8"?>
<svg version="1.1" xmlns="http://www.w3.org/2000/svg" width="77" height="83">
<path d="M0 0 C25.41 0 50.82 0 77 0 C77 27.39 77 54.78 77 83 C51.59 83 26.18 83 0 83 C0 55.61 0 28.22 0 0 Z " fill="#FCFDFD" transform="translate(0,0)"/>
<path d="M0 0 C4.75389107 2.61604657 8.44795424 6.58340848 10.875 11.4375 C11.60825162 18.57768786 11.18727268 24.53429177 6.875 30.4375 C1.21716336 35.8124448 -3.4016007 36.97307696 -11.08203125 36.8046875 C-16.73807215 36.12218706 -20.21834105 33.84762879 -23.72265625 29.41796875 C-26.99548914 24.21243231 -28.26167407 19.52141264 -27.125 13.4375 C-25.15457858 6.75520128 -21.01921441 2.9352987 -15.125 -0.5625 C-9.80670208 -2.33526597 -5.08669816 -2.28462067 0 0 Z " fill="#057575" transform="translate(32.125,39.5625)"/>
<path d="M0 0 C2.0625 0.75 2.0625 0.75 3.8125 1.75 C6.25194698 3.01004897 6.25194698 3.01004897 10 2.8125 C12.10546875 3.01171875 12.10546875 3.01171875 14.0625 3.75 C15.70640157 5.91166585 16.77436449 8.03762984 17.859375 10.5234375 C18.89280577 12.8933259 18.89280577 12.8933259 21.1640625 13.9921875 C23.42677782 16.08729428 23.41259879 16.74824343 23.6640625 19.734375 C23.70191037 21.32248495 23.70831877 22.91157555 23.6875 24.5 C23.68036987 25.72626099 23.68036987 25.72626099 23.6730957 26.97729492 C23.52111009 31.40448871 23.32542755 34.63428026 20.25 38.0625 C19.19187762 38.9634998 18.12991336 39.86002678 17.0625 40.75 C16.60875 41.69875 16.155 42.6475 15.6875 43.625 C13.75696317 46.14954816 13.16478134 46.15383695 10.125 46.5625 C7.4246966 46.75500718 4.77543538 46.75 2.0625 46.75 C2.3925 45.76 2.7225 44.77 3.0625 43.75 C4.953125 43.30078125 4.953125 43.30078125 7.3125 43.0625 C10.23616028 42.5186713 11.65522488 42.18837966 13.69921875 39.98828125 C14.95503845 37.94804564 16.04409676 35.91768561 17.0625 33.75 C17.42601562 33.12738281 17.78953125 32.50476562 18.1640625 31.86328125 C20.04786814 27.43224277 19.71301208 22.44528028 19.0625 17.75 C16.85336457 14.70524698 16.85336457 14.70524698 14.0625 12.75 C13.78792969 12.09644531 13.51335938 11.44289063 13.23046875 10.76953125 C11.58362793 7.92198374 9.81292787 7.5109754 6.75 6.4375 C5.80511719 6.09074219 4.86023438 5.74398438 3.88671875 5.38671875 C0.1246828 4.53856957 -2.50890541 4.96657716 -5.875 6.8125 C-8.62371982 8.0619181 -10.95615753 7.88551557 -13.9375 7.75 C-13.999375 8.471875 -14.06125 9.19375 -14.125 9.9375 C-14.9375 12.75 -14.9375 12.75 -17.5 14.875 C-21.14722085 19.17685023 -20.36488258 23.32698992 -19.9375 28.75 C-21.2575 28.42 -22.5775 28.09 -23.9375 27.75 C-24.22322501 23.71175317 -24.37630538 19.78050869 -23.9375 15.75 C-21.6875 13.5 -21.6875 13.5 -18.9375 11.75 C-18.32626378 10.39596103 -17.76782854 9.01743846 -17.25 7.625 C-16.3046875 5.515625 -16.3046875 5.515625 -14.9375 3.75 C-12.35286267 2.77756219 -10.01921274 2.39018029 -7.27734375 2.1015625 C-4.3277244 1.65838096 -2.95791024 -0.38166584 0 0 Z " fill="#147D7D" transform="translate(44.9375,5.25)"/>
<path d="M0 0 C0.99 0.33 1.98 0.66 3 1 C1.62011693 4.79126288 -0.11060071 7.97523031 -2.375 11.3125 C-2.96023437 12.19550781 -3.54546875 13.07851563 -4.1484375 13.98828125 C-4.75945313 14.65214844 -5.37046875 15.31601562 -6 16 C-10.71906188 16 -12.27037031 14.71245796 -16 12 C-15.67 10.68 -15.34 9.36 -15 8 C-10.25 9.875 -10.25 9.875 -8 11 C-7.50628906 10.28972656 -7.01257812 9.57945313 -6.50390625 8.84765625 C-5.86324219 7.92855469 -5.22257812 7.00945313 -4.5625 6.0625 C-3.92441406 5.14597656 -3.28632812 4.22945312 -2.62890625 3.28515625 C-1 1 -1 1 0 0 Z " fill="#137C7C" transform="translate(50,22)"/>
<path d="M0 0 C2.31 0 4.62 0 7 0 C7.95261487 4.76307437 8.08333357 9.1666528 8 14 C1.25 15.125 1.25 15.125 -1 14 C-1 13.01 -1 12.02 -1 11 C1.97 11.495 1.97 11.495 5 12 C5 11.01 5 10.02 5 9 C4.01 8.67 3.02 8.34 2 8 C2 7.34 2 6.68 2 6 C2.99 5.67 3.98 5.34 5 5 C5 4.34 5 3.68 5 3 C3.68 2.67 2.36 2.34 1 2 C1 2.66 1 3.32 1 4 C0.34 4 -0.32 4 -1 4 C-0.67 2.68 -0.34 1.36 0 0 Z " fill="#E9F3F3" transform="translate(20,49)"/>
<path d="M0 0 C2.31 0 4.62 0 7 0 C6.34 0.66 5.68 1.32 5 2 C3.68 2 2.36 2 1 2 C1 2.66 1 3.32 1 4 C0.34 4 -0.32 4 -1 4 C-0.67 2.68 -0.34 1.36 0 0 Z " fill="#DBEBEB" transform="translate(20,49)"/>
</svg>
