<svg width="32" height="44" viewBox="0 0 32 44" fill="none" xmlns="http://www.w3.org/2000/svg">
<path d="M23.3744 8.10427L30.7688 15.8458L27.6919 18.9227L21.255 12.3295L18.0882 15.495L14.9227 12.3295L19.1504 8.10427C19.7111 7.54472 20.4708 7.23047 21.263 7.23047C22.0551 7.23047 22.8137 7.54472 23.3744 8.10427ZM5.9479 24.471C6.15504 24.6802 6.40156 24.8462 6.67323 24.9595C6.9449 25.0728 7.23633 25.1311 7.53067 25.1311C7.82502 25.1311 8.11645 25.0728 8.38812 24.9595C8.65979 24.8462 8.90631 24.6802 9.11344 24.471L12.8021 20.7824L9.63652 17.6021L5.9479 21.2907C5.73847 21.4992 5.57228 21.747 5.45888 22.0199C5.34548 22.2928 5.28711 22.5854 5.28711 22.8809C5.28711 23.1764 5.34548 23.469 5.45888 23.7419C5.57228 24.0148 5.73847 24.2626 5.9479 24.471Z" fill="#007272"/>
<path d="M20.0959 15.6102L19.035 16.6711L18.0885 17.6176L13.3414 12.868C13.1361 12.6564 12.8906 12.4879 12.6194 12.3724C12.3481 12.2569 12.0566 12.1967 11.7617 12.1953C11.4669 12.194 11.1748 12.2514 10.9025 12.3644C10.6302 12.4774 10.3831 12.6436 10.1759 12.8533C9.96674 13.0604 9.80073 13.3069 9.68744 13.5786C9.57414 13.8503 9.51581 14.1417 9.51581 14.436C9.51581 14.7304 9.57414 15.0218 9.68744 15.2935C9.80073 15.5651 9.96674 15.8117 10.1759 16.0188L14.9242 20.7671L13.8645 21.8268L3.14941 32.5419L7.37218 36.7696L22.1993 21.9425C22.4785 22.2217 22.8573 22.3786 23.2522 22.3786C23.6471 22.3786 24.0258 22.2217 24.3051 21.9425C24.5843 21.6632 24.7412 21.2845 24.7412 20.8896C24.7412 20.4947 24.5843 20.1159 24.3051 19.8366L20.0959 15.6102Z" fill="#007272"/>
</svg>
