<svg width="32" height="44" viewBox="0 0 32 44" fill="none" xmlns="http://www.w3.org/2000/svg">
<path d="M6.14941 23.2304C6.14941 22.2511 6.53842 21.312 7.23087 20.6195C7.92331 19.9271 8.86246 19.5381 9.84172 19.5381H24.611C25.5902 19.5381 26.5294 19.9271 27.2218 20.6195C27.9143 21.312 28.3033 22.2511 28.3033 23.2304V26.9227H6.14941V23.2304ZM15.7863 34.9227H15.731C15.3229 34.9227 14.9316 35.0848 14.6431 35.3733C14.3546 35.6618 14.1925 36.0531 14.1925 36.4612C14.1925 36.8692 14.3546 37.2605 14.6431 37.549C14.9316 37.8375 15.3229 37.9996 15.731 37.9996H15.7863C16.1944 37.9996 16.5857 37.8375 16.8742 37.549C17.1627 37.2605 17.3248 36.8692 17.3248 36.4612C17.3248 36.0531 17.1627 35.6618 16.8742 35.3733C16.5857 35.0848 16.1944 34.9227 15.7863 34.9227ZM20.8177 34.9227H20.7623C20.3543 34.9227 19.963 35.0848 19.6745 35.3733C19.386 35.6618 19.2239 36.0531 19.2239 36.4612C19.2239 36.8692 19.386 37.2605 19.6745 37.549C19.963 37.8375 20.3543 37.9996 20.7623 37.9996H20.8177C21.2257 37.9996 21.6171 37.8375 21.9056 37.549C22.1941 37.2605 22.3562 36.8692 22.3562 36.4612C22.3562 36.0531 22.1941 35.6618 21.9056 35.3733C21.6171 35.0848 21.2257 34.9227 20.8177 34.9227ZM23.331 29.895H23.2768C22.8688 29.895 22.4775 30.0571 22.1889 30.3456C21.9004 30.6341 21.7383 31.0254 21.7383 31.4335C21.7383 31.8415 21.9004 32.2328 22.1889 32.5213C22.4775 32.8098 22.8688 32.9719 23.2768 32.9719H23.331C23.739 32.9719 24.1303 32.8098 24.4188 32.5213C24.7073 32.2328 24.8694 31.8415 24.8694 31.4335C24.8694 31.0254 24.7073 30.6341 24.4188 30.3456C24.1303 30.0571 23.739 29.895 23.331 29.895ZM18.3033 29.895H18.2479C17.8399 29.895 17.4485 30.0571 17.16 30.3456C16.8715 30.6341 16.7094 31.0254 16.7094 31.4335C16.7094 31.8415 16.8715 32.2328 17.16 32.5213C17.4485 32.8098 17.8399 32.9719 18.2479 32.9719H18.302C18.7101 32.9719 19.1014 32.8098 19.3899 32.5213C19.6784 32.2328 19.8405 31.8415 19.8405 31.4335C19.8405 31.0254 19.6784 30.6341 19.3899 30.3456C19.1014 30.0571 18.7101 29.895 18.302 29.895M13.2731 29.895H13.219C12.8109 29.895 12.4196 30.0571 12.1311 30.3456C11.8426 30.6341 11.6805 31.0254 11.6805 31.4335C11.6805 31.8415 11.8426 32.2328 12.1311 32.5213C12.4196 32.8098 12.8109 32.9719 13.219 32.9719H13.2731C13.6811 32.9719 14.0724 32.8098 14.361 32.5213C14.6495 32.2328 14.8116 31.8415 14.8116 31.4335C14.8116 31.0254 14.6495 30.6341 14.361 30.3456C14.0724 30.0571 13.6811 29.895 13.2731 29.895Z" fill="#007272"/>
<path d="M20.9183 7.23047V17.0766H14.7644V12.7468L3.6875 12.748V7.2317L20.9183 7.23047Z" fill="#007272"/>
</svg>
