<svg width="32" height="44" viewBox="0 0 32 44" fill="none" xmlns="http://www.w3.org/2000/svg">
<path d="M1.22559 29.5598H7.5062V36.7684H1.22559V29.5598ZM24.4847 29.5573H30.764V36.7659H24.4847V29.5573ZM4.91789 17.0773H27.0717V15.8465C27.0717 13.888 26.2937 12.0097 24.9088 10.6248C23.524 9.23993 21.6456 8.46191 19.6871 8.46191H12.3025C10.344 8.46191 8.46568 9.23993 7.0808 10.6248C5.69591 12.0097 4.91789 13.888 4.91789 15.8465V17.0773Z" fill="#007272"/>
<path d="M1.22559 20.7695H30.7628V32.4618H1.22559V20.7695ZM9.89512 26.1037C9.9023 26.4175 9.84669 26.7296 9.73156 27.0216C9.61643 27.3136 9.4441 27.5796 9.2247 27.8041C9.0053 28.0286 8.74326 28.2069 8.45395 28.3287C8.16465 28.4505 7.85393 28.5132 7.54005 28.5132C7.22616 28.5132 6.91544 28.4505 6.62614 28.3287C6.33684 28.2069 6.07479 28.0286 5.85539 27.8041C5.63599 27.5796 5.46367 27.3136 5.34854 27.0216C5.23341 26.7296 5.1778 26.4175 5.18497 26.1037C5.19904 25.4884 5.45334 24.9031 5.89347 24.4729C6.3336 24.0427 6.9246 23.8018 7.54005 23.8018C8.15549 23.8018 8.7465 24.0427 9.18663 24.4729C9.62676 24.9031 9.88106 25.4884 9.89512 26.1037ZM24.2213 28.4581C24.8459 28.4581 25.4449 28.21 25.8866 27.7684C26.3282 27.3267 26.5764 26.7277 26.5764 26.1031C26.5764 25.4785 26.3282 24.8794 25.8866 24.4378C25.4449 23.9961 24.8459 23.748 24.2213 23.748C23.5967 23.748 22.9977 23.9961 22.556 24.4378C22.1143 24.8794 21.8662 25.4785 21.8662 26.1031C21.8662 26.7277 22.1143 27.3267 22.556 27.7684C22.9977 28.21 23.5967 28.4581 24.2213 28.4581Z" fill="#007272"/>
</svg>
