<svg width="32" height="44" viewBox="0 0 32 44" fill="none" xmlns="http://www.w3.org/2000/svg">
<path d="M25.8361 13.3843C25.8361 9.99108 23.0755 7.23047 19.6822 7.23047H7.37455C3.98132 7.23047 1.2207 9.99108 1.2207 13.3843C1.2207 16.7775 3.98132 19.5382 7.37455 19.5382H19.6822C23.0755 19.5382 25.8361 16.7775 25.8361 13.3843Z" fill="#007272"/>
<path d="M19.6825 22.0002C24.4333 22.0002 28.2979 18.1355 28.2979 13.3848H30.7595C30.7595 19.4918 25.7896 24.4617 19.6825 24.4617C19.0044 24.4617 18.4518 25.0143 18.4518 25.6925V27.2642H15.9902V25.6925C15.9902 23.6568 17.6468 22.0002 19.6825 22.0002Z" fill="#007272"/>
<path d="M14.7598 26.9229H19.6828V36.769H14.7598V26.9229Z" fill="#007272"/>
</svg>
