<svg width="32" height="44" viewBox="0 0 32 44" fill="none" xmlns="http://www.w3.org/2000/svg">
<path d="M14.3238 28.3648L10.1018 22.7279L5.90298 28.3648H1.44238L7.82298 19.7539L1.82541 11.333H6.23947L10.1018 16.8021L13.9641 11.333H18.3781L12.4048 19.7529L18.7621 28.3648H14.3238ZM20.3476 28.3648V11.333H24.1624V24.7187H31.215V28.3648H20.3476ZM1.44141 35.3233C19.8589 29.2695 30.9648 34.3749 30.9648 34.3749L29.7837 37.0503C18.8087 31.3136 4.70929 35.6346 1.95632 36.5732L1.44238 35.3223L1.44141 35.3233Z" fill="#007272"/>
<path d="M31.1795 34.2934L31.0331 34.2256L31.0321 34.2265L31.0302 34.2246L31.0234 34.2207L30.9982 34.2101C30.8368 34.1407 30.6738 34.0751 30.5094 34.0132C30.1652 33.8842 29.6561 33.7068 28.987 33.5138C27.6488 33.1269 25.6755 32.676 23.1262 32.4151C18.0256 31.8934 10.621 32.133 1.38944 35.1662L1.22266 35.2215L1.29053 35.3844L1.80447 36.6353L1.86266 36.7759L2.00811 36.7274C3.37829 36.26 7.57805 34.9499 12.8008 34.4709C18.0265 33.9919 24.2588 34.3468 29.7075 37.1938L29.8627 37.2753L29.9325 37.1153L31.1145 34.4399L31.1795 34.2934Z" fill="#007272"/>
<path d="M31.0331 34.2256L31.1795 34.2934L31.1145 34.4399L29.9325 37.1153L29.8627 37.2753L29.7075 37.1938C24.2588 34.3468 18.0265 33.9919 12.8008 34.4709C7.57805 34.9499 3.37829 36.26 2.00811 36.7274L1.86266 36.7759L1.80447 36.6353L1.29053 35.3844L1.22266 35.2215L1.38944 35.1662C10.621 32.133 18.0256 31.8934 23.1262 32.4151C25.6755 32.676 27.6488 33.1269 28.987 33.5138C29.6561 33.7068 30.1652 33.8842 30.5094 34.0132C30.6738 34.0751 30.8368 34.1407 30.9982 34.2101L31.0234 34.2207L31.0302 34.2246L31.0321 34.2265L31.0331 34.2256ZM31.0331 34.2256L30.9652 34.3749" stroke="#007272" stroke-width="0.326788"/>
</svg>
