<svg width="28" height="31" viewBox="0 0 28 31" fill="none" xmlns="http://www.w3.org/2000/svg">
<path d="M0.457031 7.61508H27.534V12.5382C27.534 17.2151 23.5955 21.1535 18.9186 21.1535H9.07242C4.39549 21.1535 0.457031 17.2151 0.457031 12.5382V7.61508ZM11.534 23.6151H16.457V30.9997H11.534V23.6151ZM5.38011 2.69201C5.38011 2.03917 5.63945 1.41306 6.10108 0.951437C6.5627 0.489809 7.18881 0.230469 7.84165 0.230469C8.49449 0.230469 9.12059 0.489809 9.58222 0.951437C10.0438 1.41306 10.3032 2.03917 10.3032 2.69201V7.61508H5.38011V2.69201ZM17.6878 2.69201C17.6878 2.03917 17.9471 1.41306 18.4088 0.951437C18.8704 0.489809 19.4965 0.230469 20.1493 0.230469C20.8022 0.230469 21.4283 0.489809 21.8899 0.951437C22.3515 1.41306 22.6109 2.03917 22.6109 2.69201V7.61508H17.6878V2.69201Z" fill="#007272"/>
</svg>
