<svg width="28" height="30" viewBox="0 0 28 30" fill="none" xmlns="http://www.w3.org/2000/svg">
<path d="M9.07242 8.84585C6.78747 8.84585 4.59612 9.75354 2.98042 11.3692C1.36472 12.9849 0.457031 15.1763 0.457031 17.4612V29.7689H17.6878V17.4612C17.6878 15.1763 16.7801 12.9849 15.1644 11.3692C13.5487 9.75354 11.3574 8.84585 9.07242 8.84585ZM16.457 2.69201C16.1306 2.69201 15.8176 2.82168 15.5867 3.05249C15.3559 3.28331 15.2263 3.59636 15.2263 3.92278C15.2263 4.2492 15.3559 4.56225 15.5867 4.79306C15.8176 5.02388 16.1306 5.15355 16.457 5.15355C16.7835 5.15355 17.0965 5.02388 17.3273 4.79306C17.5581 4.56225 17.6878 4.2492 17.6878 3.92278C17.6878 3.59636 17.5581 3.28331 17.3273 3.05249C17.0965 2.82168 16.7835 2.69201 16.457 2.69201ZM12.7647 2.69201C12.7647 2.03917 12.5054 1.41306 12.0438 0.951437C11.5821 0.489809 10.956 0.230469 10.3032 0.230469H7.84165C7.18881 0.230469 6.5627 0.489809 6.10108 0.951437C5.63945 1.41306 5.38011 2.03917 5.38011 2.69201V6.38432H12.7647V2.69201ZM26.3032 5.15355C26.6296 5.15355 26.9427 5.02388 27.1735 4.79306C27.4043 4.56225 27.534 4.2492 27.534 3.92278C27.534 3.59636 27.4043 3.28331 27.1735 3.05249C26.9427 2.82168 26.6296 2.69201 26.3032 2.69201C25.9768 2.69201 25.6637 2.82168 25.4329 3.05249C25.2021 3.28331 25.0724 3.59636 25.0724 3.92278C25.0724 4.2492 25.2021 4.56225 25.4329 4.79306C25.6637 5.02388 25.9768 5.15355 26.3032 5.15355ZM26.3032 12.5382C25.9768 12.5382 25.6637 12.6678 25.4329 12.8986C25.2021 13.1295 25.0724 13.4425 25.0724 13.7689C25.0724 14.0954 25.2021 14.4084 25.4329 14.6392C25.6637 14.87 25.9768 14.9997 26.3032 14.9997C26.6296 14.9997 26.9427 14.87 27.1735 14.6392C27.4043 14.4084 27.534 14.0954 27.534 13.7689C27.534 13.4425 27.4043 13.1295 27.1735 12.8986C26.9427 12.6678 26.6296 12.5382 26.3032 12.5382ZM26.3032 7.61508C25.9768 7.61508 25.6637 7.74475 25.4329 7.97557C25.2021 8.20638 25.0724 8.51943 25.0724 8.84585C25.0724 9.17227 25.2021 9.48532 25.4329 9.71614C25.6637 9.94695 25.9768 10.0766 26.3032 10.0766C26.6296 10.0766 26.9427 9.94695 27.1735 9.71614C27.4043 9.48532 27.534 9.17227 27.534 8.84585C27.534 8.51943 27.4043 8.20638 27.1735 7.97557C26.9427 7.74475 26.6296 7.61508 26.3032 7.61508ZM21.3801 2.69201C21.0537 2.69201 20.7406 2.82168 20.5098 3.05249C20.279 3.28331 20.1493 3.59636 20.1493 3.92278C20.1493 4.2492 20.279 4.56225 20.5098 4.79306C20.7406 5.02388 21.0537 5.15355 21.3801 5.15355C21.7065 5.15355 22.0196 5.02388 22.2504 4.79306C22.4812 4.56225 22.6109 4.2492 22.6109 3.92278C22.6109 3.59636 22.4812 3.28331 22.2504 3.05249C22.0196 2.82168 21.7065 2.69201 21.3801 2.69201ZM21.3801 7.61508C21.0537 7.61508 20.7406 7.74475 20.5098 7.97557C20.279 8.20638 20.1493 8.51943 20.1493 8.84585C20.1493 9.17227 20.279 9.48532 20.5098 9.71614C20.7406 9.94695 21.0537 10.0766 21.3801 10.0766C21.7065 10.0766 22.0196 9.94695 22.2504 9.71614C22.4812 9.48532 22.6109 9.17227 22.6109 8.84585C22.6109 8.51943 22.4812 8.20638 22.2504 7.97557C22.0196 7.74475 21.7065 7.61508 21.3801 7.61508Z" fill="#007272"/>
</svg>
