<svg width="32" height="32" viewBox="0 0 32 32" fill="none" xmlns="http://www.w3.org/2000/svg">
<path d="M4.8514 18.8208L6.59604 20.5654C6.83507 20.8059 6.96922 21.1313 6.96922 21.4704C6.96922 21.8095 6.83507 22.1348 6.59604 22.3753C6.35551 22.6144 6.03018 22.7485 5.69108 22.7485C5.35198 22.7485 5.02665 22.6144 4.78612 22.3753L3.04148 20.6307L0.325319 23.3456L8.3394 31.3596L15.1554 24.5436L7.14132 16.5296L4.8514 18.8208ZM3.24756 8.99933L8.6786 3.56829L6.86868 1.75837C6.51232 1.40276 6.0893 1.12096 5.62386 0.929097C5.15842 0.737236 4.6597 0.639089 4.15626 0.640278C3.65283 0.641467 3.15458 0.741968 2.69004 0.936026C2.22551 1.13008 1.80383 1.41388 1.44916 1.77117C1.09251 2.12775 0.809602 2.5511 0.616584 3.01703C0.423565 3.48297 0.324219 3.98236 0.324219 4.48669C0.324219 4.99102 0.423565 5.49041 0.616584 5.95634C0.809602 6.42228 1.09251 6.84562 1.44916 7.20221L3.24756 8.99933ZM22.404 17.295L31.0453 8.65373L23.0312 0.639648L20.3164 3.35453L22.061 5.09917C22.3 5.3397 22.4342 5.66503 22.4342 6.00413C22.4342 6.34323 22.3 6.66856 22.061 6.90909C21.8205 7.14811 21.4951 7.28227 21.156 7.28227C20.8169 7.28227 20.4916 7.14811 20.2511 6.90909L18.5064 5.16445L14.3912 9.27965L10.4885 5.37949L5.05876 10.8105L11.5804 17.3321L11.5701 17.3385L16.9653 22.7337L16.973 22.726L23.702 29.455L31.0453 31.3596L29.133 24.024L22.404 17.295Z" fill="#007272"/>
</svg>
