<svg width="32" height="27" viewBox="0 0 32 27" fill="none" xmlns="http://www.w3.org/2000/svg">
<path d="M13.5336 0.692383H31.9951V22.8462H28.256C28.1104 23.7902 27.6318 24.651 26.9067 25.2727C26.1816 25.8945 25.258 26.2363 24.3028 26.2363C23.3476 26.2363 22.424 25.8945 21.6989 25.2727C20.9739 24.651 20.4952 23.7902 20.3496 22.8462H13.5336V0.692383ZM5.76866 8.077C2.58096 8.077 -0.00488281 10.6616 -0.00488281 13.8505V22.2308H3.07204C3.07204 23.2917 3.49347 24.3091 4.24361 25.0593C4.99376 25.8094 6.01117 26.2308 7.07204 26.2308C8.13291 26.2308 9.15032 25.8094 9.90047 25.0593C10.6506 24.3091 11.072 23.2917 11.072 22.2308V8.077H5.76866ZM2.56496 13.8493C2.56496 12.9712 2.91378 12.1291 3.53467 11.5082C4.15556 10.8873 4.99766 10.5385 5.87573 10.5385H8.71881V15.7632H2.56496V13.8493Z" fill="#007272"/>
</svg>
