<svg width="30" height="30" viewBox="0 0 30 30" fill="none" xmlns="http://www.w3.org/2000/svg">
<path d="M0.225586 29.7689H10.0717V13.7689H0.225586V29.7689ZM12.5333 0.230469V29.7689H29.764V0.230469H12.5333ZM17.4564 6.38432H19.9179V8.84585H17.4564V6.38432ZM19.9179 11.3074H17.4564V13.7689H19.9179V11.3074ZM17.4564 16.2305H19.9179V18.692H17.4564V16.2305ZM19.9179 21.1535H17.4564V23.6151H19.9179V21.1535ZM22.3794 6.38432H24.841V8.84585H22.3794V6.38432ZM24.841 11.3074H22.3794V13.7689H24.841V11.3074ZM22.3794 16.2305H24.841V18.692H22.3794V16.2305ZM24.841 21.1535H22.3794V23.6151H24.841V21.1535Z" fill="#007272"/>
</svg>
