<svg width="25" height="24" viewBox="0 0 25 24" fill="none" xmlns="http://www.w3.org/2000/svg">
<path d="M21.4849 3.50969C16.7899 -1.18031 9.19485 -1.18031 4.49985 3.50969C-0.186148 8.18969 -0.186148 15.7937 4.49985 20.4797C9.18585 25.1597 16.7799 25.1597 21.4699 20.4787C26.1499 15.7927 26.1499 8.19369 21.4699 3.50769L21.4849 3.50969ZM18.7549 8.63969L12.1449 16.3497L7.39485 12.7797C7.28836 12.702 7.1985 12.6038 7.13059 12.4908C7.06268 12.3778 7.01809 12.2524 6.99945 12.1219C6.98081 11.9914 6.98849 11.8585 7.02205 11.731C7.05561 11.6035 7.11437 11.4841 7.19485 11.3797C7.2728 11.2735 7.37114 11.184 7.48413 11.1163C7.59711 11.0486 7.72246 11.0042 7.85283 10.9856C7.98321 10.9669 8.11599 10.9745 8.24341 11.0078C8.37082 11.0412 8.4903 11.0996 8.59485 11.1797L11.8449 13.6097L17.2349 7.31969C17.5949 6.89969 18.2249 6.84969 18.6449 7.20969C19.0649 7.56869 19.1049 8.19969 18.7449 8.61969L18.7549 8.63969Z" fill="#007272"/>
</svg>
