<svg width="19" height="31" viewBox="0 0 19 31" fill="none" xmlns="http://www.w3.org/2000/svg">
<path d="M16.6538 2.41508H14.0923V1.32339C14.0852 1.04004 13.9957 0.771472 13.8429 0.574391C13.69 0.37731 13.4857 0.26714 13.2731 0.26714C13.0604 0.26714 12.8561 0.37731 12.7033 0.574391C12.5504 0.771472 12.461 1.04004 12.4538 1.32339V2.41508H9.9966V1.32339C9.99611 1.03373 9.9096 0.756119 9.75598 0.551297C9.60236 0.346475 9.39415 0.231119 9.17691 0.230469C8.95966 0.231119 8.75145 0.346475 8.59784 0.551297C8.44422 0.756119 8.3577 1.03373 8.35722 1.32339V2.41508H5.89999V1.32339C5.89285 1.04004 5.80341 0.771472 5.65056 0.574391C5.4977 0.37731 5.29339 0.26714 5.08075 0.26714C4.86812 0.26714 4.66381 0.37731 4.51095 0.574391C4.3581 0.771472 4.26866 1.04004 4.26152 1.32339V2.41508H1.69999C0.79537 2.41508 0.0615234 3.39355 0.0615234 4.5997V27.9535C0.0615234 29.1597 0.794447 30.1382 1.69999 30.1382H16.6538C17.5584 30.1382 18.2923 29.1597 18.2923 27.9535V4.5997C18.2923 3.39355 17.5594 2.41508 16.6538 2.41508ZM13.2735 19.892H5.08029C4.86337 19.891 4.65553 19.7757 4.50214 19.5712C4.34875 19.3667 4.26225 19.0896 4.26152 18.8003C4.26152 18.1997 4.63075 17.7074 5.08029 17.7074H13.2735C13.724 17.7074 14.0923 18.1997 14.0923 18.8003C14.0916 19.0896 14.0051 19.3667 13.8517 19.5712C13.6983 19.7757 13.4905 19.891 13.2735 19.892ZM13.2735 13.3382H5.08029C4.86337 13.3372 4.65553 13.2219 4.50214 13.0173C4.34875 12.8128 4.26225 12.5357 4.26152 12.2465C4.26152 11.6446 4.63075 11.1535 5.08029 11.1535H13.2735C13.724 11.1535 14.0923 11.6459 14.0923 12.2465C14.0916 12.5357 14.0051 12.8128 13.8517 13.0173C13.6983 13.2219 13.4905 13.3372 13.2735 13.3382Z" fill="#007272"/>
</svg>
