<svg width="37" height="34" viewBox="0 0 37 34" fill="none" xmlns="http://www.w3.org/2000/svg">
<path d="M34.9951 6.5H28.9951V5L25.9951 3.5H24.4951V12.5H25.9951L28.9951 11V9.5H34.9951L36.4951 8L34.9951 6.5ZM16.9951 27.5H1.99512C1.59729 27.5 1.21576 27.658 0.934457 27.9393C0.653152 28.2206 0.495117 28.6022 0.495117 29L0.495117 32C0.495117 32.3978 0.653152 32.7794 0.934457 33.0607C1.21576 33.342 1.59729 33.5 1.99512 33.5H16.9951C17.3929 33.5 17.7745 33.342 18.0558 33.0607C18.3371 32.7794 18.4951 32.3978 18.4951 32V29C18.4951 28.6022 18.3371 28.2206 18.0558 27.9393C17.7745 27.658 17.3929 27.5 16.9951 27.5ZM18.4951 0.5H7.99512C6.00599 0.5 4.09834 1.29018 2.69182 2.6967C1.28529 4.10322 0.495117 6.01088 0.495117 8C0.495117 11.528 2.94012 14.4665 6.22212 15.266L4.68312 24.5H13.8061L15.3061 15.5H18.4951C19.2908 15.5 20.0538 15.1839 20.6164 14.6213C21.179 14.0587 21.4951 13.2956 21.4951 12.5V3.5C21.4951 2.70435 21.179 1.94129 20.6164 1.37868C20.0538 0.816071 19.2908 0.5 18.4951 0.5Z" fill="#007272"/>
</svg>
