<svg width="178" height="42" viewBox="0 0 178 42" fill="none" xmlns="http://www.w3.org/2000/svg">
<path d="M60.0529 32.2256C60.0529 30.5266 58.756 29.2168 56.8627 29.2168H53.9316V38.4246H55.449V35.2343H56.8627C58.756 35.2343 60.0529 33.9245 60.0529 32.2256ZM58.5615 32.2256C58.5615 33.1204 57.9261 33.8077 56.8497 33.8077H55.449V30.6434H56.8497C57.9261 30.6434 58.5615 31.3307 58.5615 32.2256Z" fill="#007272"/>
<path d="M63.2041 38.4246H64.7215V34.3784H65.4086L68.7806 38.4246H70.6478L67.2242 34.2876C68.5471 33.9764 69.3123 33.1334 69.3123 31.8365C69.3123 30.3192 68.2359 29.2168 66.5241 29.2168H63.2041V38.4246ZM64.7215 33.0555V30.6174H66.3422C67.2372 30.6174 67.7949 31.0454 67.7949 31.8365C67.7949 32.6276 67.2372 33.0555 66.3422 33.0555H64.7215Z" fill="#007272"/>
<path d="M77.1962 37.1141C75.3676 37.1141 73.9669 35.6487 73.9669 33.8201C73.9669 31.9915 75.3676 30.526 77.1962 30.526C79.0117 30.526 80.4124 31.9915 80.4124 33.8201C80.4124 35.6487 79.0117 37.1141 77.1962 37.1141ZM77.1962 38.5796C79.829 38.5796 81.9558 36.4787 81.9558 33.8201C81.9558 31.1615 79.829 29.0605 77.1962 29.0605C74.5507 29.0605 72.4365 31.1615 72.4365 33.8201C72.4365 36.4787 74.5507 38.5796 77.1962 38.5796Z" fill="#007272"/>
<path d="M85.3066 38.4246H86.824V34.4821H89.9365V33.0426H86.824V30.6693H90.7794V29.2168H85.3066V38.4246Z" fill="#007272"/>
<path d="M93.9834 38.4246H95.5008V34.4821H98.6133V33.0426H95.5008V30.6693H99.4562V29.2168H93.9834V38.4246Z" fill="#007272"/>
<path d="M53.9316 21.015H57.5065V11.5972L62.7332 16.9471L67.9598 11.5972V21.015H71.5347V3.21484L62.7332 12.1889L53.9316 3.21484V21.015Z" fill="#007272"/>
<path d="M76.7874 6.66673C77.9957 6.66673 78.957 5.70523 78.957 4.52185C78.957 3.33846 77.9957 2.37695 76.7874 2.37695C75.6287 2.37695 74.6426 3.33846 74.6426 4.52185C74.6426 5.70523 75.6287 6.66673 76.7874 6.66673ZM75.1113 21.0153H78.4888V8.68835H75.1113V21.0153Z" fill="#007272"/>
<path d="M83.2356 21.0144H86.6131V11.6459H90.3362V8.68741H86.6131V3.97852L83.2356 5.95081V8.68741H80.499V11.6459H83.2356V21.0144Z" fill="#007272"/>
<path d="M93.805 21.0144H97.1824V11.6459H100.905V8.68741H97.1824V3.97852L93.805 5.95081V8.68741H91.0684V11.6459H93.805V21.0144Z" fill="#007272"/>
<path d="M107.876 21.2854C109.577 21.2854 110.859 20.4225 111.426 19.6335V21.0141H114.803V8.6872H111.426V10.0678C110.859 9.27891 109.577 8.41602 107.876 8.41602C104.596 8.41602 102.082 11.3745 102.082 14.8507C102.082 18.3269 104.596 21.2854 107.876 21.2854ZM108.59 18.2036C106.717 18.2036 105.484 16.7983 105.484 14.8507C105.484 12.903 106.717 11.4978 108.59 11.4978C110.464 11.4978 111.697 12.903 111.697 14.8507C111.697 16.7983 110.464 18.2036 108.59 18.2036Z" fill="#007272"/>
<path d="M118.087 21.0141H121.464V14.9986C121.464 12.6318 122.623 11.4978 124.201 11.4978C125.606 11.4978 126.371 12.5825 126.371 14.3576V21.0141H129.748V13.7906C129.748 10.5856 127.973 8.41602 124.99 8.41602C123.387 8.41602 122.13 9.10634 121.464 10.0925V8.6872H118.087V21.0141Z" fill="#007272"/>
<path d="M139.797 21.2851C143.076 21.2851 145.591 18.3266 145.591 14.8504C145.591 11.3742 143.076 8.41573 139.797 8.41573C138.096 8.41573 136.789 9.27862 136.222 10.0676V2.52344H132.845V21.0139H136.222V19.6333C136.789 20.4222 138.096 21.2851 139.797 21.2851ZM139.058 18.2033C137.184 18.2033 135.951 16.798 135.951 14.8504C135.951 12.9027 137.184 11.4975 139.058 11.4975C140.931 11.4975 142.164 12.9027 142.164 14.8504C142.164 16.798 140.931 18.2033 139.058 18.2033Z" fill="#007272"/>
<path d="M152.548 21.2857C154.126 21.2857 155.26 20.5953 155.925 19.6092V21.0144H159.303V8.6875H155.925V14.7031C155.925 17.0945 154.89 18.2039 153.386 18.2039C151.907 18.2039 151.291 17.1438 151.291 15.2701V8.6875H147.913V15.8371C147.913 19.0915 149.59 21.2857 152.548 21.2857Z" fill="#007272"/>
<path d="M167.559 21.2851C169.261 21.2851 170.542 20.4222 171.11 19.6333V21.0139H174.487V2.52344H171.11V10.0676C170.542 9.27862 169.261 8.41573 167.559 8.41573C164.28 8.41573 161.766 11.3742 161.766 14.8504C161.766 18.3266 164.28 21.2851 167.559 21.2851ZM168.274 18.2033C166.401 18.2033 165.168 16.798 165.168 14.8504C165.168 12.9027 166.401 11.4975 168.274 11.4975C170.148 11.4975 171.381 12.9027 171.381 14.8504C171.381 16.798 170.148 18.2033 168.274 18.2033Z" fill="#007272"/>
<path d="M16.9744 2.94141L1.85645 18.0594L6.05597 22.2589L21.174 7.14097L16.9744 2.94141Z" fill="#007272"/>
<path d="M15.2959 16.3801C16.4099 17.4935 17.9204 18.1189 19.4955 18.1189C21.0705 18.1189 22.5811 17.4935 23.6951 16.3801L28.7345 11.3406L39.6535 22.2595L43.8531 18.0599L28.7345 2.94141L15.2959 16.3801Z" fill="#007272"/>
<path d="M25.3746 18.0609C23.8152 19.62 21.7004 20.496 19.4952 20.496C17.29 20.496 15.1752 19.62 13.6158 18.0609L7.73633 23.9402L22.8548 39.0588L25.3746 36.539L19.4952 30.6596L21.175 28.9798L27.0544 34.8592L29.5742 32.3394L23.6948 26.46L25.3746 24.7802L31.254 30.6596L33.7738 28.1398L27.8944 22.2604L29.5742 20.5806L35.4536 26.46L37.9734 23.9402L28.7343 14.7012L25.3746 18.0609Z" fill="#007272"/>
</svg>
