<svg width="591" height="140" viewBox="0 0 591 140" fill="none" xmlns="http://www.w3.org/2000/svg">
<path d="M0 78.1467C6.70626 74.5189 13.2102 70.6891 20.1852 67.332C25.1867 64.7541 30.6406 62.6328 36.4142 61.0196C46.4501 58.4321 55.7624 54.4748 65.4681 51.234C69.0665 50.0299 72.9627 49.2615 76.6501 48.1771C82.5243 46.4483 88.2189 44.3879 94.2113 42.8995C100.469 41.3457 106.999 40.338 113.391 39.0267C120.326 37.6038 127.613 36.665 134.056 34.5131C144.786 30.9315 156.188 29.3224 167.549 27.3601C176.362 25.8379 184.9 23.5235 193.742 22.1242C206.238 20.1405 218.907 18.6848 231.494 16.9719C242.299 15.5049 253.04 13.7706 263.904 12.5609C273.07 11.5397 282.389 11.191 291.608 10.3661C296.726 9.90796 301.745 8.92175 306.864 8.4648C313.4 7.88027 319.996 7.63077 326.556 7.16251C337.553 6.37789 348.544 5.55714 359.528 4.7003C363.575 4.38209 367.562 3.75809 371.607 3.50645C373.915 3.36428 376.285 3.80892 378.623 3.78071C382.388 3.73557 386.166 3.63626 389.903 3.34625C395.809 2.88699 401.897 1.30379 407.526 1.9075C416.428 2.86214 424.901 0.867125 433.443 1.23048C441.65 1.58367 449.717 0.579356 457.844 1.03749C460.588 1.19321 463.321 1.53735 466.065 1.57347C468.974 1.63842 471.887 1.52713 474.769 1.24067C480.248 0.641479 485.635 0.00617534 491.064 1.51713C492.495 1.75862 493.982 1.79421 495.434 1.62195C499.851 1.45607 504.264 1.09279 508.678 1.09617C510.867 1.09617 513.033 1.83639 515.245 2.06095C517.999 2.43388 520.801 2.60416 523.606 2.56882C535.765 1.91789 547.994 2.39829 559.971 3.99738C562.597 4.23936 565.255 4.26391 567.89 4.07066C572.182 3.93864 576.469 3.66218 580.761 3.50645C582.428 3.47299 584.08 3.73226 585.566 4.26034C587.052 4.78842 588.325 5.56836 589.266 6.5286C590.207 7.48885 590.786 8.59854 590.951 9.75571C591.117 10.9129 590.861 12.0804 590.21 13.151C589.355 14.7444 588.08 16.2282 587.222 17.8216C585.501 21.0172 581.858 22.1615 577.401 22.2461C571.805 22.359 566.169 22.0001 560.609 22.324C557.116 22.6999 553.707 23.3871 550.465 24.3686C549.818 24.5311 549.432 25.5039 549.225 26.1482C548.956 27.7475 548.523 29.3313 547.93 30.8875C546.016 34.661 543.72 38.3351 541.059 41.8817C539.354 44.0984 536.813 45.9487 533.711 47.2337C528.999 48.9748 528.255 52.1017 526.362 54.8697C524.135 58.1287 522.43 61.5804 519.888 64.7084C519.038 65.976 517.582 66.998 515.769 67.5992C513.957 68.2001 511.9 68.343 509.953 68.0036C509.306 67.8997 508.322 67.7098 507.969 67.9292C503.773 70.5456 498.672 68.9232 494.066 69.4926C488.253 70.2129 483.015 67.9044 477.356 68.3262C475.465 68.3249 473.604 68.6522 471.94 69.2793C467.764 71.4799 463.613 70.6992 459.117 70.064C455.953 69.722 452.729 69.7461 449.576 70.1351C445.274 70.5422 441.057 71.3639 436.772 71.885C435.483 72.1291 434.111 72.0399 432.908 71.6335C429.743 69.8823 426.92 70.398 423.873 71.6952C420.992 72.9253 418.219 74.8267 414.428 72.9072C414.136 72.7609 413.408 72.9843 412.908 73.0916C410.172 73.6738 407.443 74.2741 404.491 74.9173C407.566 75.9441 410.698 77.1662 414.014 78.0414C417.604 78.9898 417.63 80.3064 416.126 81.7183C404.039 80.9054 392.493 79.8215 380.906 79.4613C373.708 79.415 366.516 79.7839 359.405 80.5626C346.26 81.6854 333.152 83.0308 320.037 84.3206C319.095 84.4132 318.244 84.9102 317.3 85.0369C314.449 85.4212 311.57 85.7016 308.709 86.0524C307.445 86.208 305.736 86.1396 305.025 86.6788C301.248 89.5468 296.258 88.5575 291.688 89.1182C285.824 89.8385 280.109 91.1565 274.352 92.2779C270.159 93.0928 265.974 93.9379 261.842 94.8903C259.298 95.4758 256.943 96.604 254.358 96.9212C250.38 97.4142 246.137 97.0433 242.263 97.7348C237.779 98.5369 232.925 98.2244 228.858 100.857C226.683 102.264 221.988 101.63 218.602 102.324C212.703 103.534 206.974 105.137 201.108 106.432C193.708 108.064 186.237 109.545 178.81 111.119C178.167 111.276 177.582 111.528 177.095 111.859C176.465 112.268 176.078 113.056 175.39 113.191C169.055 114.432 164.416 118.401 157.038 118.222C154.043 118.15 151.048 120.267 147.901 120.574C141.982 121.151 136.777 121.739 132.466 125.4C130.748 126.859 125.221 126.098 121.459 126.473C120.188 126.558 118.984 126.913 118.009 127.488C112.002 131.793 104.598 133.64 96.157 134.293C92.837 134.549 89.7842 136.168 86.4675 136.816C81.2245 137.838 75.8617 138.567 70.5508 139.419H67.9058C67.2125 138.677 66.4214 137.984 65.5426 137.345C62.5998 135.557 58.791 134.209 56.6996 132.042C52.8663 127.984 49.5276 123.709 46.7187 119.262C44.022 115.108 42.7109 110.799 48.1125 106.857C50.7025 104.964 52.5834 102.612 55.0421 100.619C56.3837 99.5215 58.0257 98.6208 59.8723 97.9709C62.3002 97.1459 65.0975 96.842 67.5789 96.0667C70.5444 95.1452 73.1893 93.6186 76.2454 92.9607C86.4512 90.7648 96.7818 88.8432 107.058 86.7982C107.731 86.6486 108.371 86.4347 108.959 86.161C111.889 84.8753 114.798 83.5654 118.185 82.0576C117.616 81.2836 116.978 79.124 115.685 78.9194C112.545 78.5585 109.338 78.5907 106.214 79.0133C103.846 79.2393 101.62 80.1843 99.254 80.4224C96.2088 80.7296 92.4161 81.456 90.1467 80.5499C86.5143 78.9583 83.4361 76.8221 81.1355 74.2975C78.1302 70.8394 75.3944 67.2706 72.9401 63.607C62.9478 65.8898 52.4813 68.1592 42.1411 70.6797C33.5167 72.7824 25.0234 75.1487 16.5107 77.466C13.9985 78.1501 10.923 78.6565 9.3237 79.9637C5.86778 82.7847 3.12729 82.6183 0.0177836 79.9704L0 78.1467Z" fill="#DCEAEA"/>
</svg>
