<svg width="37" height="36" viewBox="0 0 37 36" fill="none" xmlns="http://www.w3.org/2000/svg">
<path d="M5.01953 27C4.62171 27 4.24018 27.158 3.95887 27.4393C3.67757 27.7206 3.51953 28.1022 3.51953 28.5C3.51953 28.8978 3.67757 29.2794 3.95887 29.5607C4.24018 29.842 4.62171 30 5.01953 30C5.41736 30 5.79889 29.842 6.08019 29.5607C6.3615 29.2794 6.51953 28.8978 6.51953 28.5C6.51953 28.1022 6.3615 27.7206 6.08019 27.4393C5.79889 27.158 5.41736 27 5.01953 27ZM9.51953 16.5C9.51953 16.8978 9.67757 17.2794 9.95887 17.5607C10.2402 17.842 10.6217 18 11.0195 18C11.4174 18 11.7989 17.842 12.0802 17.5607C12.3615 17.2794 12.5195 16.8978 12.5195 16.5C12.5195 16.1022 12.3615 15.7206 12.0802 15.4393C11.7989 15.158 11.4174 15 11.0195 15C10.6217 15 10.2402 15.158 9.95887 15.4393C9.67757 15.7206 9.51953 16.1022 9.51953 16.5ZM2.01953 33C1.62171 33 1.24018 33.158 0.958871 33.4393C0.677567 33.7206 0.519531 34.1022 0.519531 34.5C0.519531 34.8978 0.677567 35.2794 0.958871 35.5607C1.24018 35.842 1.62171 36 2.01953 36C2.41736 36 2.79889 35.842 3.08019 35.5607C3.3615 35.2794 3.51953 34.8978 3.51953 34.5C3.51953 34.1022 3.3615 33.7206 3.08019 33.4393C2.79889 33.158 2.41736 33 2.01953 33ZM8.01953 21C7.62171 21 7.24018 21.158 6.95887 21.4393C6.67757 21.7206 6.51953 22.1022 6.51953 22.5C6.51953 22.8978 6.67757 23.2794 6.95887 23.5607C7.24018 23.842 7.62171 24 8.01953 24C8.41736 24 8.79889 23.842 9.08019 23.5607C9.3615 23.2794 9.51953 22.8978 9.51953 22.5C9.51953 22.1022 9.3615 21.7206 9.08019 21.4393C8.79889 21.158 8.41736 21 8.01953 21ZM9.51953 12H27.5195C28.3445 12 29.0195 11.325 29.0195 10.5C29.0195 9.675 28.3445 9 27.5195 9C27.5195 6.61305 26.5713 4.32387 24.8835 2.63604C23.1957 0.948211 20.9065 0 18.5195 0C16.1326 0 13.8434 0.948211 12.1556 2.63604C10.4677 4.32387 9.51953 6.61305 9.51953 9C8.69453 9 8.01953 9.675 8.01953 10.5C8.01953 11.325 8.69453 12 9.51953 12ZM17.0195 16.5C17.0195 16.8978 17.1776 17.2794 17.4589 17.5607C17.7402 17.842 18.1217 18 18.5195 18C18.9174 18 19.2989 17.842 19.5802 17.5607C19.8615 17.2794 20.0195 16.8978 20.0195 16.5C20.0195 16.1022 19.8615 15.7206 19.5802 15.4393C19.2989 15.158 18.9174 15 18.5195 15C18.1217 15 17.7402 15.158 17.4589 15.4393C17.1776 15.7206 17.0195 16.1022 17.0195 16.5ZM11.0195 33C10.6217 33 10.2402 33.158 9.95887 33.4393C9.67757 33.7206 9.51953 34.1022 9.51953 34.5C9.51953 34.8978 9.67757 35.2794 9.95887 35.5607C10.2402 35.842 10.6217 36 11.0195 36C11.4174 36 11.7989 35.842 12.0802 35.5607C12.3615 35.2794 12.5195 34.8978 12.5195 34.5C12.5195 34.1022 12.3615 33.7206 12.0802 33.4393C11.7989 33.158 11.4174 33 11.0195 33ZM24.5195 16.5C24.5195 16.8978 24.6776 17.2794 24.9589 17.5607C25.2402 17.842 25.6217 18 26.0195 18C26.4174 18 26.7989 17.842 27.0802 17.5607C27.3615 17.2794 27.5195 16.8978 27.5195 16.5C27.5195 16.1022 27.3615 15.7206 27.0802 15.4393C26.7989 15.158 26.4174 15 26.0195 15C25.6217 15 25.2402 15.158 24.9589 15.4393C24.6776 15.7206 24.5195 16.1022 24.5195 16.5ZM35.0195 33C34.6217 33 34.2402 33.158 33.9589 33.4393C33.6776 33.7206 33.5195 34.1022 33.5195 34.5C33.5195 34.8978 33.6776 35.2794 33.9589 35.5607C34.2402 35.842 34.6217 36 35.0195 36C35.4174 36 35.7989 35.842 36.0802 35.5607C36.3615 35.2794 36.5195 34.8978 36.5195 34.5C36.5195 34.1022 36.3615 33.7206 36.0802 33.4393C35.7989 33.158 35.4174 33 35.0195 33ZM29.0195 21C28.6217 21 28.2402 21.158 27.9589 21.4393C27.6776 21.7206 27.5195 22.1022 27.5195 22.5C27.5195 22.8978 27.6776 23.2794 27.9589 23.5607C28.2402 23.842 28.6217 24 29.0195 24C29.4174 24 29.7989 23.842 30.0802 23.5607C30.3615 23.2794 30.5195 22.8978 30.5195 22.5C30.5195 22.1022 30.3615 21.7206 30.0802 21.4393C29.7989 21.158 29.4174 21 29.0195 21ZM26.0195 33C25.6217 33 25.2402 33.158 24.9589 33.4393C24.6776 33.7206 24.5195 34.1022 24.5195 34.5C24.5195 34.8978 24.6776 35.2794 24.9589 35.5607C25.2402 35.842 25.6217 36 26.0195 36C26.4174 36 26.7989 35.842 27.0802 35.5607C27.3615 35.2794 27.5195 34.8978 27.5195 34.5C27.5195 34.1022 27.3615 33.7206 27.0802 33.4393C26.7989 33.158 26.4174 33 26.0195 33ZM32.0195 27C31.6217 27 31.2402 27.158 30.9589 27.4393C30.6776 27.7206 30.5195 28.1022 30.5195 28.5C30.5195 28.8978 30.6776 29.2794 30.9589 29.5607C31.2402 29.842 31.6217 30 32.0195 30C32.4174 30 32.7989 29.842 33.0802 29.5607C33.3615 29.2794 33.5195 28.8978 33.5195 28.5C33.5195 28.1022 33.3615 27.7206 33.0802 27.4393C32.7989 27.158 32.4174 27 32.0195 27ZM23.0195 27C22.6217 27 22.2402 27.158 21.9589 27.4393C21.6776 27.7206 21.5195 28.1022 21.5195 28.5C21.5195 28.8978 21.6776 29.2794 21.9589 29.5607C22.2402 29.842 22.6217 30 23.0195 30C23.4174 30 23.7989 29.842 24.0802 29.5607C24.3615 29.2794 24.5195 28.8978 24.5195 28.5C24.5195 28.1022 24.3615 27.7206 24.0802 27.4393C23.7989 27.158 23.4174 27 23.0195 27ZM18.5195 33C18.1217 33 17.7402 33.158 17.4589 33.4393C17.1776 33.7206 17.0195 34.1022 17.0195 34.5C17.0195 34.8978 17.1776 35.2794 17.4589 35.5607C17.7402 35.842 18.1217 36 18.5195 36C18.9174 36 19.2989 35.842 19.5802 35.5607C19.8615 35.2794 20.0195 34.8978 20.0195 34.5C20.0195 34.1022 19.8615 33.7206 19.5802 33.4393C19.2989 33.158 18.9174 33 18.5195 33ZM15.5195 21C15.1217 21 14.7402 21.158 14.4589 21.4393C14.1776 21.7206 14.0195 22.1022 14.0195 22.5C14.0195 22.8978 14.1776 23.2794 14.4589 23.5607C14.7402 23.842 15.1217 24 15.5195 24C15.9174 24 16.2989 23.842 16.5802 23.5607C16.8615 23.2794 17.0195 22.8978 17.0195 22.5C17.0195 22.1022 16.8615 21.7206 16.5802 21.4393C16.2989 21.158 15.9174 21 15.5195 21ZM23.0195 22.5C23.0195 22.1022 22.8615 21.7206 22.5802 21.4393C22.2989 21.158 21.9174 21 21.5195 21C21.1217 21 20.7402 21.158 20.4589 21.4393C20.1776 21.7206 20.0195 22.1022 20.0195 22.5C20.0195 22.8978 20.1776 23.2794 20.4589 23.5607C20.7402 23.842 21.1217 24 21.5195 24C21.9174 24 22.2989 23.842 22.5802 23.5607C22.8615 23.2794 23.0195 22.8978 23.0195 22.5ZM14.0195 27C13.6217 27 13.2402 27.158 12.9589 27.4393C12.6776 27.7206 12.5195 28.1022 12.5195 28.5C12.5195 28.8978 12.6776 29.2794 12.9589 29.5607C13.2402 29.842 13.6217 30 14.0195 30C14.4174 30 14.7989 29.842 15.0802 29.5607C15.3615 29.2794 15.5195 28.8978 15.5195 28.5C15.5195 28.1022 15.3615 27.7206 15.0802 27.4393C14.7989 27.158 14.4174 27 14.0195 27Z" fill="#007272"/>
</svg>
