<svg width="37" height="36" viewBox="0 0 37 36" fill="none" xmlns="http://www.w3.org/2000/svg">
<path d="M33.7598 15.8325V9C33.7598 6.61305 32.8116 4.32387 31.1237 2.63604C29.4359 0.948211 27.1467 0 24.7598 0L12.7598 0C10.3728 0 8.08363 0.948211 6.3958 2.63604C4.70798 4.32387 3.75977 6.61305 3.75977 9V15.8325C1.97327 16.872 0.759766 18.7845 0.759766 21V33C0.759766 33.7957 1.07584 34.5587 1.63845 35.1213C2.20105 35.6839 2.96412 36 3.75977 36C4.55542 36 5.31848 35.6839 5.88109 35.1213C6.4437 34.5587 6.75977 33.7957 6.75977 33V30H30.7598V33C30.7598 33.7957 31.0758 34.5587 31.6384 35.1213C32.2011 35.6839 32.9641 36 33.7598 36C34.5554 36 35.3185 35.6839 35.8811 35.1213C36.4437 34.5587 36.7598 33.7957 36.7598 33V21C36.7598 18.7845 35.5463 16.872 33.7598 15.8325ZM8.25977 9C8.25977 6.519 10.2788 4.5 12.7598 4.5H24.7598C27.2408 4.5 29.2598 6.519 29.2598 9V15H8.25977V9ZM8.25977 25.5C7.8657 25.4999 7.47552 25.4222 7.11149 25.2713C6.74746 25.1204 6.41671 24.8993 6.13813 24.6206C5.85956 24.3419 5.63861 24.011 5.4879 23.6469C5.33719 23.2828 5.25967 22.8926 5.25977 22.4985C5.25986 22.1044 5.33758 21.7142 5.48847 21.3502C5.63936 20.9862 5.86048 20.6554 6.13919 20.3769C6.41791 20.0983 6.74877 19.8773 7.11287 19.7266C7.47698 19.5759 7.8672 19.4984 8.26127 19.4985C9.05711 19.4987 9.82029 19.815 10.3829 20.3779C10.9455 20.9408 11.2615 21.7042 11.2613 22.5C11.2611 23.2958 10.9447 24.059 10.3818 24.6216C9.81894 25.1842 9.05561 25.5002 8.25977 25.5ZM29.2598 25.5C28.8657 25.4999 28.4755 25.4222 28.1115 25.2713C27.7475 25.1204 27.4167 24.8993 27.1381 24.6206C26.8596 24.3419 26.6386 24.011 26.4879 23.6469C26.3372 23.2828 26.2597 22.8926 26.2598 22.4985C26.2599 22.1044 26.3376 21.7142 26.4885 21.3502C26.6394 20.9862 26.8605 20.6554 27.1392 20.3769C27.4179 20.0983 27.7488 19.8773 28.1129 19.7266C28.477 19.5759 28.8672 19.4984 29.2613 19.4985C30.0571 19.4987 30.8203 19.815 31.3829 20.3779C31.9455 20.9408 32.2615 21.7042 32.2613 22.5C32.2611 23.2958 31.9447 24.059 31.3818 24.6216C30.8189 25.1842 30.0556 25.5002 29.2598 25.5Z" fill="#007272"/>
</svg>
