<svg width="37" height="36" viewBox="0 0 37 36" fill="none" xmlns="http://www.w3.org/2000/svg">
<path d="M22.8701 1.5C22.4723 1.5 22.0908 1.65804 21.8095 1.93934C21.5282 2.22064 21.3701 2.60218 21.3701 3C21.3701 3.39782 21.5282 3.77936 21.8095 4.06066C22.0908 4.34196 22.4723 4.5 22.8701 4.5C23.2679 4.5 23.6495 4.34196 23.9308 4.06066C24.2121 3.77936 24.3701 3.39782 24.3701 3C24.3701 2.60218 24.2121 2.22064 23.9308 1.93934C23.6495 1.65804 23.2679 1.5 22.8701 1.5ZM17.5256 18.624L9.37012 15V9H3.37012V33C3.37012 33.7957 3.68619 34.5587 4.2488 35.1213C4.81141 35.6839 5.57447 36 6.37012 36H19.8701C20.6658 36 21.4288 35.6839 21.9914 35.1213C22.554 34.5587 22.8701 33.7957 22.8701 33V26.8485C22.8702 25.1076 22.3653 23.404 21.4167 21.9442C20.4681 20.4844 19.1165 19.3311 17.5256 18.624ZM34.8701 4.5C35.2679 4.5 35.6495 4.34196 35.9308 4.06066C36.2121 3.77936 36.3701 3.39782 36.3701 3C36.3701 2.60218 36.2121 2.22064 35.9308 1.93934C35.6495 1.65804 35.2679 1.5 34.8701 1.5C34.4723 1.5 34.0908 1.65804 33.8095 1.93934C33.5282 2.22064 33.3701 2.60218 33.3701 3C33.3701 3.39782 33.5282 3.77936 33.8095 4.06066C34.0908 4.34196 34.4723 4.5 34.8701 4.5ZM12.3701 11.5815L17.8961 13.4235C18.0551 13.4745 18.2131 13.5 18.3701 13.5C18.7254 13.4984 19.0687 13.3709 19.3388 13.1402C19.609 12.9094 19.7885 12.5903 19.8456 12.2396C19.9026 11.8889 19.8335 11.5293 19.6504 11.2248C19.4673 10.9203 19.1821 10.6906 18.8456 10.5765L15.3701 9.4185V6H18.3701V0H3.13912L0.370117 6H12.3701V11.5815ZM28.8701 7.5C28.4723 7.5 28.0908 7.65804 27.8095 7.93934C27.5282 8.22064 27.3701 8.60218 27.3701 9C27.3701 9.39782 27.5282 9.77936 27.8095 10.0607C28.0908 10.342 28.4723 10.5 28.8701 10.5C29.2679 10.5 29.6495 10.342 29.9308 10.0607C30.2121 9.77936 30.3701 9.39782 30.3701 9C30.3701 8.60218 30.2121 8.22064 29.9308 7.93934C29.6495 7.65804 29.2679 7.5 28.8701 7.5ZM34.8701 7.5C34.4723 7.5 34.0908 7.65804 33.8095 7.93934C33.5282 8.22064 33.3701 8.60218 33.3701 9C33.3701 9.39782 33.5282 9.77936 33.8095 10.0607C34.0908 10.342 34.4723 10.5 34.8701 10.5C35.2679 10.5 35.6495 10.342 35.9308 10.0607C36.2121 9.77936 36.3701 9.39782 36.3701 9C36.3701 8.60218 36.2121 8.22064 35.9308 7.93934C35.6495 7.65804 35.2679 7.5 34.8701 7.5ZM34.8701 13.5C34.4723 13.5 34.0908 13.658 33.8095 13.9393C33.5282 14.2206 33.3701 14.6022 33.3701 15C33.3701 15.3978 33.5282 15.7794 33.8095 16.0607C34.0908 16.342 34.4723 16.5 34.8701 16.5C35.2679 16.5 35.6495 16.342 35.9308 16.0607C36.2121 15.7794 36.3701 15.3978 36.3701 15C36.3701 14.6022 36.2121 14.2206 35.9308 13.9393C35.6495 13.658 35.2679 13.5 34.8701 13.5ZM28.8701 1.5C28.4723 1.5 28.0908 1.65804 27.8095 1.93934C27.5282 2.22064 27.3701 2.60218 27.3701 3C27.3701 3.39782 27.5282 3.77936 27.8095 4.06066C28.0908 4.34196 28.4723 4.5 28.8701 4.5C29.2679 4.5 29.6495 4.34196 29.9308 4.06066C30.2121 3.77936 30.3701 3.39782 30.3701 3C30.3701 2.60218 30.2121 2.22064 29.9308 1.93934C29.6495 1.65804 29.2679 1.5 28.8701 1.5Z" fill="#007272"/>
</svg>
