<svg width="37" height="29" viewBox="0 0 37 29" fill="none" xmlns="http://www.w3.org/2000/svg">
<path d="M15.6107 0.154297H36.3799V25.0774H32.1734C32.0096 26.1394 31.4711 27.1077 30.6554 27.8072C29.8397 28.5067 28.8006 28.8912 27.726 28.8912C26.6515 28.8912 25.6124 28.5067 24.7967 27.8072C23.981 27.1077 23.4425 26.1394 23.2787 25.0774H15.6107V0.154297ZM6.87511 8.46199C3.28896 8.46199 0.379883 11.3697 0.379883 14.9572V24.3851H3.84142C3.84142 25.5785 4.31553 26.7231 5.15944 27.567C6.00335 28.411 7.14795 28.8851 8.34142 28.8851C9.5349 28.8851 10.6795 28.411 11.5234 27.567C12.3673 26.7231 12.8414 25.5785 12.8414 24.3851V8.46199H6.87511ZM3.27096 14.9558C3.27096 13.968 3.66337 13.0206 4.36187 12.3221C5.06038 11.6236 6.00775 11.2312 6.99557 11.2312H10.194V17.1089H3.27096V14.9558Z" fill="#007272"/>
</svg>
