<svg width="191" height="42" viewBox="0 0 191 42" fill="none" xmlns="http://www.w3.org/2000/svg">
<path d="M14.2656 4.35938L0.00195312 18.6229L3.96416 22.5852L18.2277 8.32158L14.2656 4.35938Z" fill="#101F41"/>
<path d="M12.6816 17.0385C13.7327 18.0891 15.1579 18.6791 16.6439 18.6791C18.1299 18.6791 19.5551 18.0891 20.6061 17.0385L25.3608 12.2838L35.6626 22.5857L39.6249 18.6234L25.3608 4.35938L12.6816 17.0385Z" fill="#007272"/>
<path d="M22.1902 18.6229C20.719 20.094 18.7237 20.9205 16.6431 20.9205C14.5625 20.9205 12.5672 20.094 11.096 18.6229L5.54883 24.1701L19.8129 38.4341L22.1902 36.0568L16.6431 30.5096L18.228 28.9247L23.7751 34.4719L26.1525 32.0945L20.6053 26.5474L22.1902 24.9625L27.7374 30.5096L30.1147 28.1323L24.5676 22.5852L26.1525 21.0003L31.6996 26.5474L34.077 24.1701L25.36 15.4531L22.1902 18.6229Z" fill="#101F41"/>
<path d="M52.3018 30.0951H56.3676V19.3835L62.3124 25.4684L68.257 19.3835V30.0951H72.323V9.84961L62.3124 20.0565L52.3018 9.84961V30.0951Z" fill="#101F41"/>
<path d="M78.297 13.7756C79.6707 13.7756 80.7643 12.682 80.7643 11.336C80.7643 9.99006 79.6707 8.89648 78.297 8.89648C76.9791 8.89648 75.8574 9.99006 75.8574 11.336C75.8574 12.682 76.9791 13.7756 78.297 13.7756ZM76.3902 30.0953H80.2317V16.075H76.3902V30.0953Z" fill="#101F41"/>
<path d="M85.6323 30.095H89.4733V19.4395H93.7081V16.0746H89.4733V10.7188L85.6323 12.962V16.0746H82.5195V19.4395H85.6323V30.095Z" fill="#101F41"/>
<path d="M97.6538 30.095H101.495V19.4395H105.73V16.0746H101.495V10.7188L97.6538 12.962V16.0746H94.541V19.4395H97.6538V30.095Z" fill="#101F41"/>
<path d="M113.656 30.405C115.591 30.405 117.049 29.4235 117.694 28.5262V30.0965H121.535V16.0761H117.694V17.6464C117.049 16.749 115.591 15.7676 113.656 15.7676C109.926 15.7676 107.066 19.1326 107.066 23.0863C107.066 27.0401 109.926 30.405 113.656 30.405ZM114.469 26.8998C112.338 26.8998 110.936 25.3015 110.936 23.0863C110.936 20.871 112.338 19.2727 114.469 19.2727C116.6 19.2727 118.002 20.871 118.002 23.0863C118.002 25.3015 116.6 26.8998 114.469 26.8998Z" fill="#101F41"/>
<path d="M125.271 30.0965H129.112V23.2545C129.112 20.5626 130.43 19.2727 132.225 19.2727C133.823 19.2727 134.693 20.5065 134.693 22.5255V30.0965H138.534V21.8805C138.534 18.2352 136.515 15.7676 133.122 15.7676C131.299 15.7676 129.87 16.5527 129.112 17.6744V16.0761H125.271V30.0965Z" fill="#101F41"/>
<path d="M149.964 30.4036C153.694 30.4036 156.554 27.0387 156.554 23.0849C156.554 19.1312 153.694 15.7662 149.964 15.7662C148.029 15.7662 146.543 16.7476 145.898 17.645V9.06445H142.057V30.0951H145.898V28.5248C146.543 29.4221 148.029 30.4036 149.964 30.4036ZM149.123 26.8984C146.992 26.8984 145.59 25.3001 145.59 23.0849C145.59 20.8696 146.992 19.2713 149.123 19.2713C151.254 19.2713 152.656 20.8696 152.656 23.0849C152.656 25.3001 151.254 26.8984 149.123 26.8984Z" fill="#101F41"/>
<path d="M164.467 30.4051C166.262 30.4051 167.552 29.6199 168.308 28.4983V30.0966H172.15V16.0762H168.308V22.9182C168.308 25.6381 167.131 26.8999 165.42 26.8999C163.738 26.8999 163.037 25.6942 163.037 23.5631V16.0762H159.195V24.208C159.195 27.9094 161.102 30.4051 164.467 30.4051Z" fill="#101F41"/>
<path d="M181.54 30.4036C183.476 30.4036 184.934 29.4221 185.579 28.5248V30.0951H189.42V9.06445H185.579V17.645C184.934 16.7476 183.476 15.7662 181.54 15.7662C177.811 15.7662 174.951 19.1312 174.951 23.0849C174.951 27.0387 177.811 30.4036 181.54 30.4036ZM182.353 26.8984C180.223 26.8984 178.821 25.3001 178.821 23.0849C178.821 20.8696 180.223 19.2713 182.353 19.2713C184.484 19.2713 185.887 20.8696 185.887 23.0849C185.887 25.3001 184.484 26.8984 182.353 26.8984Z" fill="#101F41"/>
</svg>
