<svg width="41" height="41" viewBox="0 0 41 41" fill="none" xmlns="http://www.w3.org/2000/svg">
<path d="M32.9999 32.1668C35.3011 32.1668 37.1666 30.3013 37.1666 28.0002C37.1666 25.699 35.3011 23.8335 32.9999 23.8335C30.6987 23.8335 28.8333 25.699 28.8333 28.0002C28.8333 30.3013 30.6987 32.1668 32.9999 32.1668Z" stroke="#007272" stroke-width="1.5"/>
<path d="M7.99992 32.1668C10.3011 32.1668 12.1666 30.3013 12.1666 28.0002C12.1666 25.699 10.3011 23.8335 7.99992 23.8335C5.69873 23.8335 3.83325 25.699 3.83325 28.0002C3.83325 30.3013 5.69873 32.1668 7.99992 32.1668Z" stroke="#007272" stroke-width="1.5"/>
<path d="M34.2246 13.6161C36.3604 16.2151 37.1024 18.6863 37.1656 19.993C36.0489 19.4823 34.7951 19.1958 33.4701 19.1958C29.3948 19.1958 25.7364 21.9057 24.8628 25.5155C24.6539 26.3785 24.5496 26.81 24.3228 26.9883C24.0961 27.1668 23.7303 27.1668 22.9989 27.1668H18.2009C17.4639 27.1668 17.0955 27.1668 16.8678 26.986C16.6402 26.805 16.5404 26.375 16.341 25.5148C15.5148 21.9515 12.1611 18.8542 8.66987 19.1165C8.31807 19.143 8.14217 19.1562 8.02149 19.1293C7.90082 19.1023 7.77932 19.0338 7.53634 18.8965C6.83487 18.5003 6.11761 18.1242 5.42981 17.7047C4.47157 17.1201 3.87184 16.0926 3.83414 14.9708C3.81269 14.3324 4.17987 13.6979 4.92161 13.8725L15.6227 16.3907C16.4266 16.5799 16.8285 16.6745 17.1739 16.6101C17.5193 16.5457 17.9426 16.2562 18.7894 15.6771C20.9366 14.2088 24.3394 12.8219 27.7316 14.0472C28.6601 14.3826 29.1244 14.5503 29.3889 14.5587C29.6534 14.5671 30.0411 14.4543 30.8164 14.2286C32.0718 13.8632 33.2534 13.6736 34.2246 13.6161ZM34.2246 13.6161C32.8859 11.987 30.9994 10.3077 28.3893 8.8335" stroke="#007272" stroke-width="1.5" stroke-linecap="round" stroke-linejoin="round"/>
</svg>
