<svg width="38" height="39" viewBox="0 0 38 39" fill="none" xmlns="http://www.w3.org/2000/svg">
<path d="M34.8327 11.1872H30.4169C29.4652 11.1872 28.9892 11.1872 28.5405 11.0513C28.0918 10.9154 27.6958 10.6515 26.9038 10.1235C25.716 9.33156 24.3608 8.42814 23.6876 8.22431C23.0145 8.02051 22.3006 8.02051 20.8729 8.02051C18.9314 8.02051 17.68 8.02051 16.8071 8.38208C15.9342 8.74365 15.2477 9.4301 13.8748 10.803L12.6666 12.0112C12.3572 12.3206 12.2025 12.4753 12.107 12.628C11.753 13.1942 11.7922 13.9217 12.2051 14.4465C12.3165 14.5881 12.4869 14.7252 12.8278 14.9996C14.0878 16.0136 15.9042 15.9123 17.0452 14.7646L18.9993 12.7988H20.5827L30.0827 22.3553C30.9572 23.235 30.9572 24.6611 30.0827 25.5408C29.2082 26.4205 27.7905 26.4205 26.916 25.5408L26.1243 24.7444M26.1243 24.7444L21.3743 19.9662M26.1243 24.7444C26.9988 25.6241 26.9988 27.0504 26.1243 27.9299C25.2499 28.8096 23.8322 28.8096 22.9577 27.9299L21.3743 26.3373M21.3743 26.3373C22.2488 27.2168 22.2488 28.6431 21.3743 29.5228C20.4999 30.4023 19.0822 30.4023 18.2077 29.5228L15.8327 27.1335M21.3743 26.3373L18.2077 23.1706M15.8327 27.1335L15.041 26.3373M15.8327 27.1335C16.7072 28.0132 16.7072 29.4395 15.8327 30.3192C14.9582 31.1987 13.5405 31.1987 12.666 30.3192L8.19527 25.7552C7.27659 24.8174 6.81725 24.3486 6.22874 24.1011C5.64023 23.8538 4.98381 23.8538 3.671 23.8538H3.16602" stroke="#007272" stroke-width="1.5" stroke-linecap="round" stroke-linejoin="round"/>
<path d="M34.8333 23.8545H30.875" stroke="#007272" stroke-width="1.5" stroke-linecap="round"/>
<path d="M13.4577 11.1875H3.16602" stroke="#007272" stroke-width="1.5" stroke-linecap="round"/>
</svg>
