<svg width="38" height="39" viewBox="0 0 38 39" fill="none" xmlns="http://www.w3.org/2000/svg">
<path d="M3.16797 32.1665H28.5013" stroke="#007272" stroke-width="1.5" stroke-linecap="round" stroke-linejoin="round"/>
<path d="M6.05636 19.7632C5.62094 19.4465 5.22511 19.0507 4.75012 17.6652C4.62129 17.3217 4.13438 15.5991 3.72096 14.0236C3.37223 12.6945 3.06148 11.4814 3.20637 11.1736C3.32514 10.8569 3.48344 10.6194 3.99802 10.3027C4.31469 10.1079 5.93761 9.70897 6.25427 9.6298C6.57094 9.55064 7.00634 9.51105 7.36261 9.6298C8.03552 9.74855 9.42094 11.7673 9.77719 12.0048C9.93551 12.1631 10.4501 12.6237 11.0439 12.6777C11.4793 12.7173 11.9147 12.5986 12.3897 12.4006C12.8251 12.2192 21.4147 8.04647 22.2064 7.69022C28.6585 4.99855 33.3452 9.42397 34.0577 10.374C34.7939 11.2923 34.9522 11.5694 34.7543 12.3611C34.4985 13.1923 33.8043 13.3506 33.4085 13.4694C33.0127 13.5881 27.5502 15.0527 25.4127 15.6465C24.9457 15.7985 24.7177 16.1038 24.6606 16.1611C24.3835 16.5569 23.1247 19.2486 22.7685 19.8423C22.5231 20.4757 21.8502 21.2673 20.9793 21.584C20.0689 21.9007 18.4856 22.2569 18.1293 22.3757C17.7731 22.4944 16.9418 22.7319 16.6647 22.6527C16.3085 22.5736 15.9681 22.2173 16.1264 21.6632C16.2847 21.109 16.5856 19.5652 16.6252 19.3277C16.6647 19.0902 17.0606 18.1007 16.6252 18.0611C16.546 17.9423 15.7147 18.2986 14.4876 18.5757C13.576 18.8323 12.6212 19.0863 11.9543 19.2486C9.38136 20.0007 7.98793 20.1986 7.67927 20.1986C7.08552 20.1986 6.65011 20.1194 6.05636 19.7632Z" stroke="#007272" stroke-width="1.5"/>
</svg>
