<svg width="38" height="39" viewBox="0 0 38 39" fill="none" xmlns="http://www.w3.org/2000/svg">
<path d="M3.16602 34.0557C4.25098 35.72 5.6535 35.72 6.76492 34.0557C10.3383 28.5894 13.742 37.9875 16.2649 34.1173C20.1124 28.3181 22.8798 38.376 25.7649 34.0557C29.5272 28.3003 31.8711 37.831 34.8327 34.6748" stroke="#007272" stroke-width="1.5" stroke-linecap="round"/>
<path d="M5.65546 27.4165L3.28446 20.5222C2.85525 19.2741 3.6455 17.9165 4.80117 17.9165H33.0248C37.9237 17.9165 31.657 27.4165 28.494 27.4165" stroke="#007272" stroke-width="1.5" stroke-linecap="round" stroke-linejoin="round"/>
<path d="M28.5 17.9167L24.0683 12.3769C22.8663 10.8746 21.0466 10 19.1227 10H12.6667C10.9178 10 9.5 11.4178 9.5 13.1667V17.9167" stroke="#007272" stroke-width="1.5" stroke-linecap="round" stroke-linejoin="round"/>
<path d="M15.8327 9.99984V5.24984C15.8327 4.37539 15.1238 3.6665 14.2493 3.6665H12.666" stroke="#007272" stroke-width="1.5" stroke-linecap="round" stroke-linejoin="round"/>
</svg>
