<svg width="38" height="39" viewBox="0 0 38 39" fill="none" xmlns="http://www.w3.org/2000/svg">
<path d="M6.33268 25.0413C4.58378 25.0413 3.16602 23.6236 3.16602 21.8747C3.16602 20.1257 4.58378 18.708 6.33268 18.708" stroke="#007272" stroke-width="1.5" stroke-linecap="round" stroke-linejoin="round"/>
<path d="M31.666 25.0413C33.415 25.0413 34.8327 23.6236 34.8327 21.8747C34.8327 20.1257 33.415 18.708 31.666 18.708" stroke="#007272" stroke-width="1.5" stroke-linecap="round" stroke-linejoin="round"/>
<path d="M11.084 11.5835V6.8335" stroke="#007272" stroke-width="1.5" stroke-linejoin="round"/>
<path d="M26.916 11.5835V6.8335" stroke="#007272" stroke-width="1.5" stroke-linejoin="round"/>
<path d="M11.0833 6.83317C11.9578 6.83317 12.6667 6.12429 12.6667 5.24984C12.6667 4.37539 11.9578 3.6665 11.0833 3.6665C10.2089 3.6665 9.5 4.37539 9.5 5.24984C9.5 6.12429 10.2089 6.83317 11.0833 6.83317Z" stroke="#007272" stroke-width="1.5" stroke-linejoin="round"/>
<path d="M26.9173 6.83317C27.7918 6.83317 28.5007 6.12429 28.5007 5.24984C28.5007 4.37539 27.7918 3.6665 26.9173 3.6665C26.0429 3.6665 25.334 4.37539 25.334 5.24984C25.334 6.12429 26.0429 6.83317 26.9173 6.83317Z" stroke="#007272" stroke-width="1.5" stroke-linejoin="round"/>
<path d="M21.375 11.5835H16.625C12.1467 11.5835 9.90749 11.5835 8.51624 13.0227C7.125 14.4619 7.125 16.7783 7.125 21.4111C7.125 26.0439 7.125 28.3602 8.51624 29.7994C9.90749 31.2387 12.1467 31.2387 16.625 31.2387H18.2484C19.5018 31.2387 19.944 31.4976 20.8077 32.4381C21.7629 33.4783 23.2419 34.8664 24.58 35.1896C26.4819 35.6492 26.6948 35.0135 26.2705 33.2009C26.1497 32.6846 25.8482 31.859 26.1662 31.378C26.3443 31.1085 26.641 31.0423 27.2346 30.9098C28.171 30.7007 28.943 30.3588 29.4837 29.7994C30.875 28.3602 30.875 26.0439 30.875 21.4111C30.875 16.7783 30.875 14.4619 29.4837 13.0227C28.0925 11.5835 25.8533 11.5835 21.375 11.5835Z" stroke="#007272" stroke-width="1.5" stroke-linejoin="round"/>
<path d="M15.041 24.25C15.9437 25.2114 17.3807 25.8333 18.9993 25.8333C20.618 25.8333 22.055 25.2114 22.9577 24.25" stroke="#007272" stroke-width="1.5" stroke-linecap="round" stroke-linejoin="round"/>
<path d="M14.2642 17.917H14.25" stroke="#007272" stroke-width="2" stroke-linecap="round" stroke-linejoin="round"/>
<path d="M23.7642 17.917H23.75" stroke="#007272" stroke-width="2" stroke-linecap="round" stroke-linejoin="round"/>
</svg>
