<svg width="38" height="39" viewBox="0 0 38 39" fill="none" xmlns="http://www.w3.org/2000/svg">
<path d="M19.0007 3.66699C24.9717 3.66699 27.9574 3.66699 29.8123 5.52198C31.6673 7.37698 31.6673 10.3625 31.6673 16.3337V22.667C31.6673 28.6381 31.6673 31.6237 29.8123 33.4786C27.9574 35.3337 24.9717 35.3337 19.0007 35.3337C13.0295 35.3337 10.044 35.3337 8.18897 33.4786C6.33398 31.6237 6.33398 28.6381 6.33398 22.667V16.3337C6.33398 10.3625 6.33398 7.37698 8.18897 5.52198C10.044 3.66699 13.0295 3.66699 19.0007 3.66699Z" stroke="#007272" stroke-width="1.5" stroke-linecap="round"/>
<path d="M6.33398 16.333H31.6673" stroke="#007272" stroke-width="1.5" stroke-linecap="round"/>
<path d="M12.666 10H12.6802" stroke="#007272" stroke-width="2" stroke-linecap="round" stroke-linejoin="round"/>
<path d="M12.666 27.417V22.667" stroke="#007272" stroke-width="1.5" stroke-linecap="round"/>
</svg>
