<svg width="40" height="41" viewBox="0 0 40 41" fill="none" xmlns="http://www.w3.org/2000/svg">
<path d="M8.59961 32.375V39.5M31.3996 32.375V39.5" stroke="#007272" stroke-width="1.5" stroke-linecap="round" stroke-linejoin="round"/>
<path d="M35.2008 13.375C35.2008 8.93558 35.2008 6.71586 34.4372 5.0625C33.9369 3.97936 33.2174 3.07992 32.3508 2.45456C31.028 1.5 29.2523 1.5 25.7008 1.5H14.3008C10.7492 1.5 8.97347 1.5 7.65078 2.45456C6.78427 3.07992 6.06472 3.97936 5.56443 5.0625C4.80078 6.71586 4.80078 8.93558 4.80078 13.375" stroke="#007272" stroke-width="1.5" stroke-linecap="round" stroke-linejoin="round"/>
<path d="M35.2 13.375C33.1013 13.375 31.4 15.5016 31.4 18.125V22.875C31.4 24.8398 31.0719 25.25 29.5 25.25H10.5C8.92807 25.25 8.6 24.8398 8.6 22.875V18.125C8.6 15.5016 6.89868 13.375 4.8 13.375C2.70132 13.375 1 15.5016 1 18.125C1 19.8832 1.76418 21.4182 2.9 22.2394V22.875C2.9 27.3533 2.9 29.5924 4.013 30.9837C5.12598 32.375 6.91732 32.375 10.5 32.375H29.5C33.0826 32.375 34.874 32.375 35.987 30.9837C37.1 29.5924 37.1 27.3533 37.1 22.875V22.2394C38.2358 21.4182 39 19.8832 39 18.125C39 15.5016 37.2987 13.375 35.2 13.375Z" stroke="#007272" stroke-width="1.5" stroke-linejoin="round"/>
</svg>
