<svg width="38" height="39" viewBox="0 0 38 39" fill="none" xmlns="http://www.w3.org/2000/svg">
<path d="M14.25 35.3333L14.253 28.9962C14.2537 27.5228 14.2541 26.786 14.4948 26.2049C14.8164 25.4285 15.4335 24.8116 16.21 24.4905C16.7914 24.25 17.5281 24.25 19.0016 24.25C20.4755 24.25 21.2126 24.25 21.7941 24.4907C22.5709 24.8121 23.1879 25.4291 23.5093 26.2059C23.75 26.7874 23.75 27.5245 23.75 28.9984V35.3333" stroke="#007272" stroke-width="1.5"/>
<path d="M11.2234 8.04035L9.64008 9.27622C7.2387 11.1506 6.03801 12.0878 5.394 13.4093C4.75 14.7307 4.75 16.2572 4.75 19.3103V22.6214C4.75 28.6138 4.75 31.61 6.60499 33.4716C8.45999 35.3332 11.4455 35.3332 17.4167 35.3332H20.5833C26.5544 35.3332 29.5401 35.3332 31.395 33.4716C33.25 31.61 33.25 28.6138 33.25 22.6214V19.3103C33.25 16.2572 33.25 14.7307 32.6061 13.4093C31.962 12.0878 30.7613 11.1506 28.3599 9.27622L26.7765 8.04035C23.0408 5.12445 21.173 3.6665 19 3.6665C16.827 3.6665 14.9591 5.12445 11.2234 8.04035Z" stroke="#007272" stroke-width="1.5" stroke-linejoin="round"/>
</svg>
