<svg width="38" height="39" viewBox="0 0 38 39" fill="none" xmlns="http://www.w3.org/2000/svg">
<path d="M17.4263 33.7501H15.208C9.53135 33.7501 6.69303 33.7501 4.92952 31.9532C3.16602 30.1561 3.16602 27.2638 3.16602 21.4793C3.16602 15.6948 3.16602 12.8025 4.92952 11.0055C6.69303 9.2085 9.53135 9.2085 15.208 9.2085H21.229C26.9056 9.2085 29.744 9.2085 31.5075 11.0055C32.8643 12.3881 33.1771 14.4191 33.2493 17.9168" stroke="#007272" stroke-width="1.5" stroke-linecap="round"/>
<path d="M31.6928 32.2034L34.8327 35.3332M33.3333 28.2501C33.3333 25.1664 30.8333 22.6665 27.7496 22.6665C24.6658 22.6665 22.166 25.1664 22.166 28.2501C22.166 31.334 24.6658 33.8339 27.7496 33.8339C30.8333 33.8339 33.3333 31.334 33.3333 28.2501Z" stroke="#007272" stroke-width="1.5" stroke-linecap="round" stroke-linejoin="round"/>
<path d="M25.3321 9.20817L25.1747 8.71883C24.391 6.28041 23.9991 5.06121 23.066 4.36385C22.1331 3.6665 20.8939 3.6665 18.4153 3.6665H17.9987C15.5202 3.6665 14.2809 3.6665 13.348 4.36385C12.415 5.06121 12.0231 6.28041 11.2393 8.71883L11.082 9.20817" stroke="#007272" stroke-width="1.5"/>
</svg>
