<svg width="38" height="39" viewBox="0 0 38 39" fill="none" xmlns="http://www.w3.org/2000/svg">
<path d="M30.8743 30.5832C33.0605 30.5832 34.8327 28.811 34.8327 26.6248C34.8327 24.4387 33.0605 22.6665 30.8743 22.6665C28.6882 22.6665 26.916 24.4387 26.916 26.6248C26.916 28.811 28.6882 30.5832 30.8743 30.5832Z" stroke="#007272" stroke-width="1.5"/>
<path d="M7.12435 30.5832C9.31048 30.5832 11.0827 28.811 11.0827 26.6248C11.0827 24.4387 9.31048 22.6665 7.12435 22.6665C4.93822 22.6665 3.16602 24.4387 3.16602 26.6248C3.16602 28.811 4.93822 30.5832 7.12435 30.5832Z" stroke="#007272" stroke-width="1.5"/>
<path d="M32.0378 12.96C34.0668 15.429 34.7717 17.7767 34.8317 19.018C33.7709 18.5329 32.5798 18.2607 31.321 18.2607C27.4494 18.2607 23.974 20.8351 23.144 24.2644C22.9457 25.0843 22.8465 25.4942 22.631 25.6636C22.4157 25.8332 22.0682 25.8332 21.3734 25.8332H16.8153C16.1152 25.8332 15.7651 25.8332 15.5489 25.6614C15.3326 25.4894 15.2378 25.0809 15.0484 24.2638C14.2635 20.8786 11.0775 17.9361 7.76081 18.1854C7.4266 18.2105 7.25949 18.223 7.14484 18.1975C7.03021 18.1719 6.91478 18.1068 6.68395 17.9764C6.01756 17.6 5.33615 17.2426 4.68274 16.8441C3.77242 16.2888 3.20267 15.3127 3.16686 14.247C3.14648 13.6404 3.49531 13.0377 4.19995 13.2035L14.366 15.5959C15.1297 15.7756 15.5115 15.8655 15.8397 15.8043C16.1677 15.7431 16.5699 15.468 17.3744 14.9179C19.4142 13.523 22.6469 12.2055 25.8694 13.3695C26.7515 13.6882 27.1926 13.8475 27.4439 13.8555C27.6952 13.8634 28.0635 13.7562 28.8 13.5419C29.9926 13.1948 31.1152 13.0146 32.0378 12.96ZM32.0378 12.96C30.7661 11.4123 28.9739 9.81699 26.4942 8.4165" stroke="#007272" stroke-width="1.5" stroke-linecap="round" stroke-linejoin="round"/>
</svg>
