<svg width="151" height="150" viewBox="0 0 151 150" fill="none" xmlns="http://www.w3.org/2000/svg">
<mask id="mask0_82_5072" style="mask-type:alpha" maskUnits="userSpaceOnUse" x="21" y="40" width="110" height="110">
<path d="M75.8026 149.038C105.824 149.038 130.16 124.701 130.16 94.6801C130.16 64.6591 105.824 40.3223 75.8026 40.3223C45.7816 40.3223 21.4448 64.6591 21.4448 94.6801C21.4448 124.701 45.7816 149.038 75.8026 149.038Z" fill="#C4C4C4"/>
</mask>
<g mask="url(#mask0_82_5072)">
<path d="M75.8026 149.038C105.824 149.038 130.16 124.701 130.16 94.6801C130.16 64.6591 105.824 40.3223 75.8026 40.3223C45.7816 40.3223 21.4448 64.6591 21.4448 94.6801C21.4448 124.701 45.7816 149.038 75.8026 149.038Z" fill="#B6F0FF"/>
<path fill-rule="evenodd" clip-rule="evenodd" d="M69.1895 135.985H130.973V120.676C130.973 120.676 118.503 118.704 100.931 122.301C81.6593 126.243 69.1895 135.985 69.1895 135.985Z" fill="#2EE69F"/>
<path fill-rule="evenodd" clip-rule="evenodd" d="M68.1379 132.172V132.608H71.6845V136.462H62.0605V132.172H68.1379ZM88.5007 132.887V133.25H86.18V136.462H92.4772V132.887H88.5007Z" fill="#C5B8A4"/>
<path fill-rule="evenodd" clip-rule="evenodd" d="M94.3224 132.886V133.25H92.0019V136.461H98.2989V132.886H94.3224ZM75.1262 128.954V129.487H75.8341V129.929H76.7776V130.121H77.9162V130.396H78.6949V137.653H71.0908V130.396H71.8697V130.121H73.0086V129.929H73.9507V129.487H74.6594V128.954H75.1262Z" fill="#C5B8A4"/>
<path fill-rule="evenodd" clip-rule="evenodd" d="M81.5462 132.172V138.011H77.8628V132.172H81.5462Z" fill="#C5B8A4"/>
<path fill-rule="evenodd" clip-rule="evenodd" d="M86.5366 129.312V136.461H80.9521V129.312H86.5366Z" fill="#C5B8A4"/>
<path d="M147.37 139.982C147.37 142.917 117.633 150.226 80.9522 150.226C44.2707 150.226 14.5347 142.917 14.5347 139.982C14.5347 137.047 44.2707 135.612 80.9522 135.612C117.633 135.612 147.37 137.047 147.37 139.982Z" fill="#CCFFEC"/>
<path fill-rule="evenodd" clip-rule="evenodd" d="M40.0615 102.422C40.0858 102.319 40.1012 102.213 40.1012 102.103C40.1012 101.318 39.4478 100.68 38.6455 100.68C38.6213 100.68 38.5987 100.686 38.5745 100.687C38.4828 98.8669 36.947 97.4176 35.0601 97.4176C33.6825 97.4176 32.4936 98.1915 31.9145 99.3166C31.8099 99.3026 31.707 99.2861 31.5988 99.2861C30.3234 99.2861 29.2891 100.295 29.2891 101.54C29.2891 101.853 29.3554 102.151 29.4732 102.422H40.0615ZM96.4833 107.391C96.5078 107.288 96.5232 107.182 96.5232 107.072C96.5232 106.286 95.8698 105.649 95.0675 105.649C95.0433 105.649 95.021 105.654 94.9965 105.655C94.9048 103.835 93.3691 102.386 91.4821 102.386C90.1046 102.386 88.9156 103.16 88.3368 104.285C88.2322 104.271 88.129 104.255 88.0208 104.255C86.7454 104.255 85.7111 105.264 85.7111 106.508C85.7111 106.822 85.7774 107.12 85.8952 107.391H96.4833ZM64.4906 89.7921C64.7125 89.3693 64.8336 88.9127 64.8336 88.4363C64.8336 86.26 62.3083 84.4961 59.1936 84.4961C56.9562 84.4961 55.0233 85.406 54.1117 86.7252C53.4504 86.6322 52.7833 86.5858 52.1155 86.5862C47.1305 86.5862 42.9823 89.1169 42.0586 92.4703C42.0512 92.4703 42.0439 92.4698 42.0366 92.4689C42.0294 92.4683 42.0223 92.4679 42.0151 92.4678C39.5474 92.4678 37.5459 93.8911 37.5459 95.6467C37.5459 95.7059 37.5564 95.7626 37.5671 95.8196C37.5732 95.8523 37.5792 95.8851 37.5834 95.9184H37.9059C39.2898 96.937 45.6949 97.7071 53.3876 97.7071C61.0803 97.7071 67.4857 96.937 68.8695 95.9184H69.1825C69.1838 95.9046 69.1866 95.8911 69.1893 95.8774C69.1932 95.8567 69.1973 95.8361 69.1973 95.8149C69.1973 95.7095 69.1797 95.6068 69.1464 95.5086V95.5053C69.1464 95.3828 69.0748 95.2628 68.9375 95.1461C68.6339 94.7861 68.0928 94.5392 67.4686 94.5155C67.3893 94.4935 67.3076 94.4718 67.2236 94.4503C67.3552 94.1112 67.4444 93.76 67.4444 93.3912C67.4444 91.8464 66.2537 90.5002 64.4906 89.7921Z" fill="white"/>
<path d="M122.907 103.168C122.703 103.25 122.486 103.293 122.266 103.294H100.113C98.9704 103.294 97.9598 102.36 98.4563 101.331C99.0513 100.097 100.293 99.2083 101.769 99.2083C101.776 99.2083 101.781 99.2091 101.787 99.2096C101.793 99.2106 101.799 99.2112 101.805 99.2113C102.572 95.2408 106.013 92.2441 110.149 92.2441C112.875 92.2441 115.298 93.5545 116.852 95.5832C117.239 95.4828 117.635 95.4115 118.053 95.4115C118.589 95.4115 119.105 95.5007 119.586 95.665C120.455 94.4044 121.909 93.5782 123.555 93.5782C126.215 93.5782 128.372 95.7346 128.372 98.3947C128.372 101.055 126.215 103.211 123.555 103.211C123.335 103.211 123.119 103.197 122.907 103.168Z" fill="white"/>
<path d="M59.5642 111.882L41.6743 139.13H53.922L54.4725 138.029H60.8028L64.656 128.671C69.4397 123.882 74.0138 121.652 77.7294 121.652C81.445 121.652 86.019 123.882 90.8028 128.671L94.656 138.029H100.986L101.537 139.13H113.784L95.8945 111.882H59.5642Z" fill="#C3CCD9"/>
<path d="M64.5181 128.532C69.3522 123.837 73.9744 121.651 77.7291 121.651C81.4838 121.651 86.106 123.837 90.9401 128.532" stroke="#767676" stroke-width="0.275229" stroke-linecap="round" stroke-linejoin="round"/>
<path d="M62.3164 122.753C67.9561 118.057 73.3487 115.872 77.7293 115.872C82.1098 115.872 87.5024 118.057 93.1421 122.753" stroke="#767676" stroke-width="0.825688" stroke-linecap="round" stroke-linejoin="round"/>
<path d="M102.362 139.129H103.326L95.139 125.484C95.1068 125.429 95.054 125.389 94.9923 125.373C94.9306 125.357 94.8649 125.366 94.8098 125.398C94.7547 125.43 94.7146 125.483 94.6984 125.545C94.6822 125.606 94.6912 125.672 94.7234 125.727L102.362 139.129ZM53.0963 139.129H52.133L60.3197 125.484C60.3519 125.429 60.4047 125.389 60.4664 125.373C60.5282 125.357 60.5938 125.366 60.6489 125.398C60.704 125.43 60.7441 125.483 60.7603 125.545C60.7765 125.606 60.7675 125.672 60.7353 125.727L53.0963 139.129ZM41.6743 138.991L58.9439 112.675C58.9775 112.623 59.0306 112.586 59.0917 112.572C59.1527 112.559 59.2166 112.57 59.2693 112.603C59.322 112.637 59.3592 112.69 59.3727 112.751C59.3862 112.812 59.3749 112.876 59.3413 112.929L43.1881 138.991H41.6743ZM113.784 138.854L96.5149 112.539C96.4813 112.486 96.4281 112.449 96.367 112.435C96.306 112.422 96.2421 112.433 96.1894 112.467C96.1367 112.5 96.0995 112.553 96.086 112.614C96.0725 112.676 96.0838 112.739 96.1174 112.792L112.271 138.854H113.784Z" fill="#767676"/>
<path d="M97.2704 106.928H58.1878C57.5798 106.928 57.0869 107.421 57.0869 108.029V110.781C57.0869 111.389 57.5798 111.882 58.1878 111.882H97.2704C97.8784 111.882 98.3713 111.389 98.3713 110.781V108.029C98.3713 107.421 97.8784 106.928 97.2704 106.928Z" fill="#C3CCD9"/>
<path d="M96.3071 111.057H59.1511C58.9231 111.057 58.7383 111.241 58.7383 111.469C58.7383 111.697 58.9231 111.882 59.1511 111.882H96.3071C96.5351 111.882 96.7199 111.697 96.7199 111.469C96.7199 111.241 96.5351 111.057 96.3071 111.057Z" fill="#767676"/>
<path d="M71.6743 90H83.7844V94.4037H71.6743V90Z" fill="#C3CCD9"/>
<path d="M80.3439 90.2754H75.1145C74.8865 90.2754 74.7017 90.4602 74.7017 90.6882C74.7017 90.9162 74.8865 91.1011 75.1145 91.1011H80.3439C80.5719 91.1011 80.7567 90.9162 80.7567 90.6882C80.7567 90.4602 80.5719 90.2754 80.3439 90.2754Z" fill="#767676"/>
<path d="M70.8485 86.6973L68.8946 89.4496L68.0962 86.6973H70.8485ZM84.61 86.6973L86.5638 89.1743L87.3622 86.6973H84.61Z" fill="#767676"/>
<path d="M69.564 87.1113H85.8945L93.1421 106.928H84.7936L80.9404 90.1389H74.5181L70.6649 106.928H62.3164L69.564 87.1113Z" fill="#C3CCD9"/>
<path d="M68.0962 84.2201C68.0962 83.9281 68.2122 83.6481 68.4186 83.4416C68.6251 83.2351 68.9051 83.1191 69.1971 83.1191H86.2613C86.5533 83.1191 86.8333 83.2351 87.0398 83.4416C87.2463 83.6481 87.3622 83.9281 87.3622 84.2201V86.4219C87.3622 86.7139 87.2463 86.9939 87.0398 87.2004C86.8333 87.4068 86.5533 87.5228 86.2613 87.5228H69.1971C68.9051 87.5228 68.6251 87.4068 68.4186 87.2004C68.2122 86.9939 68.0962 86.7139 68.0962 86.4219V84.2201Z" fill="#C3CCD9"/>
<path d="M69.7476 86.6971C69.7476 86.6241 69.7766 86.5541 69.8282 86.5025C69.8798 86.4509 69.9498 86.4219 70.0228 86.4219H85.4356C85.5086 86.4219 85.5786 86.4509 85.6302 86.5025C85.6819 86.5541 85.7109 86.6241 85.7109 86.6971C85.7109 86.7701 85.6819 86.8401 85.6302 86.8917C85.5786 86.9433 85.5086 86.9723 85.4356 86.9723H70.0228C69.9498 86.9723 69.8798 86.9433 69.8282 86.8917C69.7766 86.8401 69.7476 86.7701 69.7476 86.6971Z" fill="#767676"/>
<path fill-rule="evenodd" clip-rule="evenodd" d="M35.5257 120.992C37.4317 120.008 39.6195 120.239 40.7922 121.683C41.5026 122.557 41.7033 123.707 41.4517 124.849C43.5214 124.764 45.3528 125.831 45.8482 127.574C46.239 128.949 45.7029 130.408 44.5739 131.466C45.4998 132.483 45.9913 133.765 45.8391 135.097C45.5215 137.869 42.5292 139.809 39.1566 139.425C38.4933 139.35 37.8433 139.186 37.2244 138.936C36.9268 139.186 36.6128 139.417 36.2845 139.626C32.9699 141.734 28.8877 141.235 27.1667 138.514C26.2557 137.074 26.1869 135.3 26.8144 133.637C25.2561 133.587 24.0038 132.55 23.9771 131.249C23.946 129.894 25.2624 128.763 26.9113 128.726C27.0148 128.723 27.1172 128.725 27.2182 128.731C25.4713 126.867 24.9566 124.453 26.1209 122.946C27.069 121.717 28.8806 121.421 30.7304 122.017C30.7259 121.999 30.7214 121.981 30.7172 121.963C30.3388 120.353 31.1009 118.794 32.4195 118.481C33.7359 118.168 35.1118 119.219 35.491 120.828C35.504 120.883 35.5155 120.938 35.5257 120.992ZM113.23 126.041L113.232 126.009C113.311 125.101 114.501 124.393 115.892 124.427C117.282 124.461 118.346 125.225 118.269 126.133C118.266 126.163 118.262 126.193 118.257 126.222C120.418 125.991 122.515 126.445 123.269 127.386C123.725 127.955 123.601 128.592 123.033 129.157C125.102 129.426 126.611 130.267 126.611 131.263C126.611 132.05 125.67 132.74 124.256 133.128C124.884 133.805 125.009 134.556 124.484 135.236C123.391 136.654 119.889 137.225 116.663 136.511C116.007 136.366 115.413 136.179 114.892 135.961C114.519 136.05 114.143 136.124 113.765 136.184C109.896 136.796 106.001 135.914 105.065 134.215C104.569 133.316 104.998 132.37 106.083 131.586C104.558 131.323 103.613 130.586 103.952 129.895C104.302 129.174 105.921 128.775 107.562 129.006C107.666 129.02 107.769 129.037 107.868 129.056C106.665 127.806 106.835 126.452 108.409 125.832C109.692 125.326 111.568 125.444 113.23 126.041Z" fill="#06C484"/>
<path d="M49.4663 151.295L64.4963 135.611H91.586L106.26 151.295H49.4663Z" fill="#F0D9B4"/>
<path fill-rule="evenodd" clip-rule="evenodd" d="M57.5944 136.329C58.612 135.302 60.2655 135.291 61.2866 136.307C62.3075 137.322 62.3094 138.978 61.2919 140.006C60.2738 141.034 58.6213 141.044 57.6008 140.029C56.5797 139.014 56.5766 137.357 57.5944 136.329Z" fill="#06C484"/>
<path fill-rule="evenodd" clip-rule="evenodd" d="M58.4505 134.704C59.1139 134.034 60.1919 134.027 60.8577 134.689C61.5232 135.351 61.5243 136.431 60.861 137.101C60.1974 137.771 59.1202 137.778 58.4547 137.116C57.7889 136.454 57.787 135.374 58.4505 134.704Z" fill="#06C484"/>
<path fill-rule="evenodd" clip-rule="evenodd" d="M50.1347 143.626C51.663 145.169 54.147 145.185 55.6808 143.66C57.2139 142.136 57.2169 139.648 55.6883 138.105C54.1594 136.562 51.6771 136.546 50.144 138.07C48.6102 139.595 48.6055 142.083 50.1347 143.626Z" fill="#06C484"/>
<path fill-rule="evenodd" clip-rule="evenodd" d="M51.4204 146.067C52.417 147.073 54.0362 147.083 55.0361 146.089C56.0358 145.095 56.0377 143.473 55.0411 142.467C54.0445 141.461 52.4261 141.451 51.4268 142.445C50.4266 143.439 50.4238 145.06 51.4204 146.067Z" fill="#06C484"/>
<path fill-rule="evenodd" clip-rule="evenodd" d="M93.8328 136.329C94.8503 135.302 96.5039 135.291 97.525 136.307C98.5458 137.322 98.5478 138.978 97.5302 140.006C96.5122 141.034 94.8597 141.044 93.8391 140.029C92.8178 139.014 92.815 137.357 93.8328 136.329Z" fill="#06C484"/>
<path fill-rule="evenodd" clip-rule="evenodd" d="M94.6888 134.704C95.3521 134.034 96.4302 134.027 97.096 134.689C97.7615 135.351 97.7626 136.431 97.0993 137.101C96.4357 137.771 95.3582 137.778 94.693 137.116C94.0272 136.454 94.0253 135.374 94.6888 134.704Z" fill="#06C484"/>
<path fill-rule="evenodd" clip-rule="evenodd" d="M101.848 144.615C100.091 143.606 99.4763 141.362 100.478 139.606C101.478 137.85 103.716 137.246 105.474 138.256C107.232 139.266 107.846 141.508 106.845 143.263C105.844 145.02 103.607 145.625 101.848 144.615Z" fill="#06C484"/>
<path fill-rule="evenodd" clip-rule="evenodd" d="M99.3418 144.042C98.1957 143.384 97.7952 141.921 98.4481 140.776C99.1004 139.632 100.559 139.238 101.705 139.896C102.852 140.554 103.252 142.016 102.599 143.161C101.947 144.306 100.488 144.7 99.3418 144.042Z" fill="#06C484"/>
</g>
<path d="M104.834 66.8177C110.412 66.8177 114.933 62.2961 114.933 56.7184C114.933 51.1407 110.412 46.6191 104.834 46.6191C99.2565 46.6191 94.7349 51.1407 94.7349 56.7184C94.7349 62.2961 99.2565 66.8177 104.834 66.8177Z" fill="#FFF5C8"/>
<path d="M74.086 56.973C73.0352 67.184 70.5732 83.1198 70.5732 83.1198H84.8852C84.8852 83.1198 82.4232 67.184 81.3724 56.973C80.3216 46.762 79.5033 30.8262 79.5033 30.8262H75.9551C75.9551 30.8262 75.1368 46.762 74.086 56.973Z" fill="#C3CCD9"/>
<path d="M84.7343 82.5684H70.7235C70.6275 83.099 70.5732 83.1188 70.5732 83.1188H84.8852C84.8852 83.1188 84.8307 83.099 84.7343 82.5684Z" fill="#767676"/>
<path d="M75.9011 27.8808C75.9402 27.7756 76.0106 27.6849 76.1028 27.6209C76.195 27.5568 76.3046 27.5225 76.4168 27.5225H79.042C79.1542 27.5225 79.2638 27.5568 79.356 27.6209C79.4482 27.6849 79.5186 27.7756 79.5578 27.8808L80.6188 30.7292C80.6343 30.7708 80.6395 30.8156 80.6339 30.8597C80.6284 30.9038 80.6122 30.9459 80.5868 30.9823C80.5615 31.0188 80.5276 31.0486 80.4882 31.0692C80.4488 31.0898 80.405 31.1005 80.3606 31.1004H75.0982C75.0538 31.1005 75.01 31.0898 74.9706 31.0692C74.9312 31.0486 74.8974 31.0188 74.872 30.9823C74.8466 30.9459 74.8305 30.9038 74.8249 30.8597C74.8194 30.8156 74.8246 30.7708 74.8401 30.7292L75.9011 27.8808Z" fill="#C3CCD9"/>
<path d="M77.4559 22.279C77.4603 22.2095 77.491 22.1443 77.5418 22.0966C77.5925 22.049 77.6595 22.0225 77.7292 22.0225C77.7988 22.0225 77.8658 22.049 77.9166 22.0966C77.9673 22.1443 77.9981 22.2095 78.0025 22.279L78.2796 28.0736H77.1787L77.4559 22.279Z" fill="#C3CCD9"/>
<path d="M75.8965 31.651H79.562C79.5334 31.1185 79.5182 31.1006 79.5182 31.1006H75.9402C75.9402 31.1006 75.9251 31.1185 75.8965 31.651Z" fill="#767676"/>
</svg>
