<svg width="150" height="150" viewBox="0 0 150 150" fill="none" xmlns="http://www.w3.org/2000/svg">
<mask id="mask0_82_5141" style="mask-type:alpha" maskUnits="userSpaceOnUse" x="20" y="41" width="110" height="109">
<path d="M74.995 150C105.016 150 129.353 125.663 129.353 95.642C129.353 65.621 105.016 41.2842 74.995 41.2842C44.974 41.2842 20.6372 65.621 20.6372 95.642C20.6372 125.663 44.974 150 74.995 150Z" fill="#C4C4C4"/>
</mask>
<g mask="url(#mask0_82_5141)">
<path d="M74.995 150C105.016 150 129.353 125.663 129.353 95.642C129.353 65.621 105.016 41.2842 74.995 41.2842C44.974 41.2842 20.6372 65.621 20.6372 95.642C20.6372 125.663 44.974 150 74.995 150Z" fill="#B6F0FF"/>
<path fill-rule="evenodd" clip-rule="evenodd" d="M53.9337 109.266C53.9353 109.246 53.94 109.226 53.94 109.205C53.9406 109.002 53.8606 108.808 53.7176 108.664C53.5745 108.52 53.3802 108.439 53.1774 108.438C53.1518 108.438 53.1281 108.443 53.1036 108.445C53.1652 108.231 53.2085 108.009 53.2085 107.776C53.2085 106.43 52.1241 105.34 50.7867 105.34C50.5767 105.34 50.3774 105.375 50.1829 105.425C49.4009 104.415 48.1822 103.762 46.8102 103.762C44.7295 103.762 42.9983 105.255 42.6124 107.232C42.6063 107.232 42.6006 107.231 42.5942 107.231C41.5643 107.231 40.729 108.07 40.729 109.106C40.729 109.161 40.74 109.213 40.7447 109.266H53.9337Z" fill="white"/>
<path d="M118.019 108.352C118.136 108.407 118.266 108.44 118.401 108.44H131.592C132.272 108.44 132.874 107.788 132.578 107.071C132.224 106.21 131.484 105.59 130.606 105.59C130.602 105.59 130.598 105.591 130.595 105.591C130.591 105.592 130.588 105.593 130.584 105.593C130.128 102.823 128.079 100.733 125.616 100.733C123.993 100.733 122.55 101.647 121.625 103.062C121.395 102.992 121.159 102.942 120.91 102.942C120.591 102.942 120.283 103.004 119.997 103.119C119.479 102.24 118.614 101.664 117.634 101.664C116.05 101.664 114.766 103.168 114.766 105.023C114.766 106.878 116.05 108.382 117.634 108.382C117.763 108.382 117.892 108.372 118.019 108.352Z" fill="white"/>
<path fill-rule="evenodd" clip-rule="evenodd" d="M76.7178 111.517L103.547 114.985L123.479 113.499L147.243 114.861L147.242 155.78H110.379C103.446 154.668 101.799 153.48 91.1037 152.693L90.4313 152.645C78.0804 151.786 65.7402 152.99 53.549 152.28C44.0945 151.729 45.2574 150.295 34.2565 149.552C24.0358 148.861 20.075 149.352 8.06482 148.776C-1.40252 148.322 -31.4201 145.538 -46.3896 144.121L-55.0508 143.295L-27.1133 140.825L-2.24142 136.553L7.29831 125.173L14.498 123.09L22.2895 116.823L42.9878 113.251L56.0194 114.861L76.7178 111.517Z" fill="#767676"/>
<path fill-rule="evenodd" clip-rule="evenodd" d="M76.8668 111.468L56.0091 114.847L71.788 116.848L91.6871 115.611L82.6474 113.449L84.9239 112.563L76.8668 111.468ZM43.0086 113.205L22.1201 116.792L20.3303 118.33L24.1637 118.691L24.4196 120.857L33.2776 121.541L46.8206 118.225L46.0758 114.798L49.1099 113.99L43.0086 113.205ZM103.546 114.973L123.565 113.455L131.725 113.958L124.523 115.804L103.546 114.973ZM63.156 117.719L69.2694 118.99L60.3206 121.431L55.6722 120.676L57.4092 118.577L63.156 117.719ZM91.9634 117.775L101.504 116.842L109.17 117.375L107.465 118.574L102.186 118.374L101.333 119.208L95.3707 119.241L91.9634 117.775ZM24.4194 124.007L18.3715 124.473L15.9863 126.04L21.0973 126.84L24.5047 125.806L29.1032 125.307L24.4194 124.007ZM61.7267 125.097L86.3427 122.815L96.9902 123.948L88.0461 125.397L89.3242 127.197L73.4806 131.046L68.1148 134.245L56.1054 138.445L52.5274 137.795L61.4705 131.413L71.6922 127.397L68.371 126.547L56.701 128.347L61.7267 125.097Z" fill="#909296"/>
<path d="M23.665 127.981H129.353V154.403H23.665V127.981Z" fill="#2EE69F"/>
<path fill-rule="evenodd" clip-rule="evenodd" d="M91.4484 143.824C81.9695 143.368 83.83 148.023 76.1825 149.374C67.2012 150.961 55.7054 152.617 44.5498 152.108C36.2041 151.727 29.0451 149.193 30.6898 147.297C32.9963 144.637 53.7777 143.925 53.9974 141.215C54.1856 138.895 22.7242 137.724 31.5607 136.559C45.1317 134.769 67.4748 140.772 77.7615 138.081C87.3502 135.572 59.1161 132.335 60.3532 129.025C60.9601 127.402 74.2823 128.12 81.4317 128.261C88.1167 128.393 96.9835 128.471 100.191 129.809C105.067 131.844 100.693 134.385 101.635 136.692C101.868 137.262 101.169 138.261 103.672 138.331C114.117 138.625 130.732 135.424 134.823 137.626C138.744 139.736 107.339 138.498 108.221 140.78C109.302 143.574 132.508 143.165 137.938 145.683C140.745 146.985 130.973 148.123 126.032 149.041C121.179 149.941 114.665 151.761 109.443 150.974C99.2869 149.442 103.377 144.398 91.4484 143.824Z" fill="#C3CCD9"/>
<path d="M63.3493 83.1398L63.1415 82.6201L62.7256 84.0753L63.1415 84.4909L63.3493 83.1398ZM98.6838 83.6599L98.9956 83.0363L99.4112 84.4914L98.8916 84.907L98.6838 83.6599Z" fill="#D9270A"/>
<path d="M63.1417 82.6204L62.8298 84.3873L58.6728 84.4911V83.0362L63.1417 82.6204ZM110.947 83.0365L110.636 84.8032L106.478 84.9072V83.4524L110.947 83.0365ZM98.9958 83.0365L99.2567 84.8032L102.737 84.9072V83.4524L98.9958 83.0365ZM50.2549 82.5166L50.5667 84.2836L54.7238 84.3873V82.9325L50.2549 82.5166Z" fill="#FF5844"/>
<path d="M39.3426 83.8682L120.508 84.3878L121.028 88.7527L39.1348 88.4408L39.3426 83.8682Z" fill="#FF5844"/>
<path d="M39.1344 88.4399L121.028 88.7517L120.716 89.3751L39.5536 89.0636L39.1344 88.4399ZM37.2637 75.8652C47.4485 77.2163 113.961 77.9438 122.586 77.1126L121.339 78.4634C114.453 80.6911 47.3916 80.0658 38.615 77.736L37.2637 75.8652Z" fill="#D9270A"/>
<path d="M35.7051 70.7734C45.6821 75.7617 115.52 76.5932 123.938 72.3321L122.587 77.1128C115.7 79.3402 46.0405 78.1953 37.264 75.8657L35.7051 70.7734Z" fill="#FF5844"/>
<path d="M106.848 79.3865C106.848 78.6087 105.614 78.203 104.167 78.2614C102.68 78.3217 101.698 78.8812 101.698 79.6403L106.894 131.881C109.726 132.111 110.749 131.967 113.026 131.569L106.848 79.3865Z" fill="#FF5844"/>
<path opacity="0.6" fill-rule="evenodd" clip-rule="evenodd" d="M107.528 131.913C107.341 131.902 107.148 131.89 106.948 131.876L101.714 79.5794C101.707 79.0523 102.174 78.6155 102.958 78.3711C102.491 78.6221 102.226 78.9686 102.231 79.3663L107.528 131.913Z" fill="#D9270A"/>
<path opacity="0.6" d="M106.926 79.1434L108.557 95.8198L106.309 79.4693C106.243 79.0768 106.168 78.6078 105.663 78.4443C106.478 78.5445 106.838 78.6238 106.926 79.1434Z" fill="#D9270A"/>
<path d="M54.5153 78.7616C54.5153 77.9835 55.7497 77.5778 57.1968 77.6364C58.6836 77.6964 59.6657 78.256 59.6657 79.0151L56.1785 133.44C53.3464 133.67 51.908 133.63 49.6313 133.232L54.5153 78.7616Z" fill="#FF5844"/>
<path opacity="0.6" fill-rule="evenodd" clip-rule="evenodd" d="M49.6421 133.115L49.6313 133.233C51.9083 133.63 53.3467 133.67 56.1788 133.44L59.6657 79.0153C59.6657 78.4882 59.1925 78.0575 58.4057 77.8232C58.8763 78.0682 59.146 78.4111 59.146 78.8091L55.6591 133.234C53.053 133.446 51.627 133.429 49.6421 133.115Z" fill="#D9270A"/>
<path opacity="0.6" d="M54.5154 78.3602L53.1646 95.6119L55.139 78.6721C55.1963 78.2782 55.2612 77.8076 55.7624 77.6328C54.95 77.7514 54.5913 77.8387 54.5154 78.3602Z" fill="#D9270A"/>
<path d="M61.8335 139.46C61.9164 139.451 61.9973 139.435 62.0837 139.435C64.359 139.435 62.8351 142.092 60.5598 142.102L19.8644 142.294C19.8484 142.108 19.8115 141.93 19.8115 141.741C19.8115 138.168 22.6483 135.271 26.1459 135.271C26.1671 135.271 26.1864 135.277 26.2076 135.277C27.5168 128.453 33.3968 123.303 40.4623 123.303C45.1211 123.303 49.26 125.555 51.9154 129.041C52.5759 128.869 53.2527 128.746 53.9661 128.746C58.5068 128.746 62.1894 132.506 62.1894 137.151C62.1894 137.957 62.0433 138.722 61.8335 139.46Z" fill="#2EE69F"/>
<path fill-rule="evenodd" clip-rule="evenodd" d="M115.856 141.193C115.859 141.158 115.866 141.124 115.866 141.089C115.866 140.369 115.298 139.784 114.595 139.784C114.553 139.784 114.513 139.792 114.472 139.797C114.575 139.433 114.647 139.056 114.647 138.659C114.647 136.37 112.84 134.517 110.611 134.517C110.261 134.517 109.929 134.578 109.604 134.663C108.301 132.945 106.27 131.835 103.983 131.835C100.516 131.835 97.6298 134.373 96.9874 137.735C96.977 137.735 96.9673 137.733 96.9571 137.733C95.2405 137.733 93.8481 139.16 93.8481 140.921C93.8481 141.014 93.8663 141.101 93.874 141.193H115.856Z" fill="#2EE69F"/>
<path fill-rule="evenodd" clip-rule="evenodd" d="M26.5684 107.934C26.5684 107.928 26.5684 107.923 26.5689 107.918C26.5945 107.447 27.5229 107.007 28.6428 106.934C29.7613 106.861 30.6487 107.184 30.6242 107.654C30.6233 107.67 30.6214 107.685 30.6187 107.701C32.346 107.442 34.0513 107.539 34.6965 107.972C35.0865 108.234 35.013 108.568 34.58 108.895C36.2542 108.898 37.503 109.231 37.544 109.742C37.5765 110.145 36.8482 110.559 35.7275 110.85C36.2603 111.156 36.3916 111.533 35.9983 111.916C35.1781 112.713 32.3853 113.233 29.7616 113.076C29.2765 113.049 28.7934 112.994 28.315 112.909C28.0174 112.979 27.7182 113.042 27.4175 113.097C24.3321 113.661 21.1637 113.462 20.3405 112.652C19.9048 112.224 20.2106 111.711 21.0509 111.239C19.8137 111.203 19.0232 110.886 19.2674 110.51C19.5189 110.118 20.8042 109.809 22.1325 109.82C22.2178 109.821 22.3004 109.823 22.3816 109.826C21.3624 109.264 21.4428 108.559 22.683 108.139C23.6942 107.797 25.2076 107.736 26.5684 107.934Z" fill="#06C484"/>
<path fill-rule="evenodd" clip-rule="evenodd" d="M31.3909 115.642C31.5411 115.355 31.604 115.031 31.5715 114.709C31.5391 114.387 31.4128 114.082 31.2084 113.831L28.807 110.886C28.548 110.568 28.774 110.092 29.1841 110.092C29.3052 110.092 29.4221 110.137 29.5116 110.219L32.6869 113.115C32.9508 113.355 33.1295 113.675 33.1963 114.026C33.2632 114.376 33.2145 114.739 33.0576 115.06L27.7603 125.892C27.476 126.473 27.9406 127.141 28.5843 127.076L41.1615 125.817C41.9019 125.742 42.3549 126.609 41.8716 127.174L33.1832 137.35C33.0037 137.56 32.8798 137.812 32.8229 138.082C32.7661 138.353 32.778 138.633 32.8576 138.898L35.0809 146.29L33.8522 148.073L30.4452 141.66C30.0335 140.885 29.8628 140.005 29.9548 139.132C30.0468 138.26 30.3973 137.434 30.9615 136.762L37.027 129.538C37.5018 128.972 37.0526 128.115 36.3175 128.185L25.7305 129.178C25.0782 129.24 24.6177 128.553 24.9221 127.973L31.3909 115.642ZM111.975 115.275C111.831 115.11 111.723 114.917 111.657 114.708C111.592 114.499 111.57 114.278 111.594 114.06C111.618 113.843 111.687 113.632 111.796 113.442C111.905 113.252 112.052 113.087 112.228 112.956L114.837 111.026C115.239 110.729 115.029 110.092 114.529 110.092C114.442 110.092 114.356 110.114 114.279 110.156L110.182 112.41C109.28 112.905 109.047 114.097 109.696 114.896L116.397 123.16C116.849 123.718 116.422 124.547 115.705 124.504L97.8447 123.425C97.0149 123.375 96.6395 124.444 97.3185 124.924L108.704 132.965C109.026 133.193 109.256 133.528 109.353 133.911C109.449 134.293 109.405 134.698 109.229 135.051L106.371 140.782L108.098 142.294L111.632 138.282C113.353 136.327 113.012 133.314 110.897 131.795L104.121 126.927C103.45 126.445 103.824 125.385 104.649 125.432L119.692 126.284C120.421 126.325 120.841 125.469 120.362 124.918L111.975 115.275Z" fill="#9A7743"/>
<path fill-rule="evenodd" clip-rule="evenodd" d="M110.364 117.647L110.365 117.653C110.399 117.845 110.958 118.001 111.613 118.003C112.267 118.005 112.77 117.852 112.737 117.66C112.735 117.654 112.734 117.647 112.731 117.641C113.748 117.704 114.737 117.622 115.094 117.43C115.311 117.313 115.254 117.178 114.988 117.056C115.963 117.013 116.676 116.846 116.679 116.636C116.681 116.471 116.24 116.32 115.576 116.229C115.873 116.091 115.934 115.934 115.689 115.788C115.179 115.483 113.531 115.34 112.011 115.469C111.731 115.492 111.452 115.526 111.175 115.573C110.998 115.552 110.822 115.534 110.645 115.519C108.825 115.365 106.989 115.525 106.543 115.876C106.307 116.061 106.506 116.263 107.015 116.435C106.296 116.48 105.849 116.629 106.007 116.776C106.169 116.93 106.93 117.024 107.703 116.987C107.753 116.985 107.801 116.982 107.848 116.978C107.278 117.233 107.354 117.519 108.093 117.659C108.696 117.774 109.58 117.762 110.364 117.647ZM115.186 109.762L115.186 109.754C115.214 109.516 115.685 109.324 116.239 109.325C116.791 109.327 117.217 109.521 117.19 109.758C117.189 109.766 117.187 109.774 117.186 109.782C118.044 109.709 118.879 109.816 119.182 110.058C119.366 110.205 119.319 110.372 119.095 110.523C119.918 110.582 120.521 110.794 120.525 111.054C120.528 111.26 120.156 111.446 119.596 111.555C119.848 111.729 119.9 111.924 119.694 112.105C119.265 112.482 117.874 112.651 116.588 112.482C116.35 112.451 116.115 112.406 115.882 112.347C115.74 112.372 115.59 112.394 115.435 112.412C113.899 112.593 112.347 112.384 111.968 111.945C111.768 111.713 111.935 111.463 112.364 111.252C111.756 111.191 111.378 111.004 111.51 110.821C111.647 110.631 112.289 110.517 112.942 110.568C112.984 110.572 113.024 110.576 113.064 110.58C112.581 110.26 112.644 109.905 113.267 109.734C113.776 109.594 114.523 109.615 115.186 109.762ZM119.767 120.489C119.77 120.487 119.773 120.486 119.776 120.485C120.022 120.387 120.345 120.577 120.498 120.91C120.651 121.242 120.576 121.592 120.33 121.691C120.322 121.694 120.313 121.697 120.305 121.7C120.617 122.18 120.743 122.734 120.585 123.033C120.49 123.214 120.309 123.266 120.096 123.205C120.266 123.728 120.223 124.193 119.962 124.321C119.757 124.422 119.468 124.289 119.202 124.004C119.098 124.24 118.917 124.366 118.678 124.33C118.181 124.254 117.624 123.5 117.435 122.646C117.398 122.486 117.377 122.322 117.372 122.157C117.306 122.081 117.242 122.001 117.183 121.919C116.572 121.084 116.349 120.051 116.683 119.611C116.86 119.379 117.157 119.358 117.488 119.514C117.379 119.12 117.461 118.802 117.681 118.793C117.91 118.783 118.202 119.114 118.333 119.531C118.342 119.558 118.349 119.584 118.356 119.61C118.542 119.165 118.915 119.031 119.26 119.323C119.542 119.561 119.729 120.019 119.767 120.489ZM99.6522 120.9L99.6478 120.89C99.5132 120.613 98.7681 120.595 97.9834 120.85C97.1999 121.104 96.6725 121.536 96.8063 121.813C96.8109 121.823 96.816 121.831 96.8217 121.84C95.5749 122.145 94.4319 122.658 94.0983 123.092C93.8966 123.354 94.0298 123.536 94.4077 123.618C93.2627 124.067 92.4912 124.601 92.59 124.921C92.6679 125.172 93.2693 125.229 94.109 125.105C93.8203 125.432 93.8242 125.695 94.1886 125.821C94.9482 126.083 96.9893 125.652 98.7461 124.857C99.0708 124.712 99.3874 124.549 99.6948 124.37C99.916 124.333 100.136 124.291 100.356 124.244C102.608 123.762 104.727 122.796 105.089 122.087C105.281 121.712 104.944 121.484 104.251 121.423C105.089 121.071 105.551 120.669 105.291 120.507C105.021 120.338 104.064 120.494 103.158 120.856C103.1 120.879 103.044 120.902 102.989 120.926C103.547 120.314 103.316 119.91 102.363 119.987C101.585 120.05 100.534 120.417 99.6522 120.9ZM113.43 134.323L113.43 134.338C113.399 134.775 112.843 135.124 112.187 135.116C111.533 135.109 111.027 134.748 111.057 134.312C111.058 134.297 111.06 134.283 111.062 134.269C110.046 134.394 109.056 134.189 108.695 133.742C108.477 133.472 108.531 133.164 108.794 132.889C107.819 132.773 107.103 132.379 107.096 131.9C107.091 131.522 107.529 131.185 108.192 130.989C107.892 130.668 107.828 130.307 108.071 129.977C108.576 129.288 110.221 128.991 111.745 129.313C112.054 129.379 112.335 129.465 112.582 129.566C112.751 129.522 112.927 129.484 113.111 129.452C114.929 129.132 116.768 129.531 117.221 130.341C117.46 130.77 117.264 131.228 116.758 131.611C117.478 131.728 117.928 132.076 117.773 132.41C117.613 132.759 116.853 132.961 116.08 132.861C116.03 132.855 115.982 132.848 115.935 132.839C116.51 133.432 116.439 134.084 115.702 134.392C115.101 134.644 114.217 134.599 113.43 134.323Z" fill="#06C484"/>
</g>
<path d="M32.6914 66.6172C42.3547 73.7842 113.964 74.2947 126.848 68.4879L126.016 71.5017C119.395 76.7132 42.7139 75.3835 33.6266 70.0468L32.6914 66.6172Z" fill="#767676"/>
<path d="M32.2759 66.4092C42.046 73.6928 114.446 74.2117 127.471 68.3102L126.631 69.9184C119.936 75.2146 42.409 73.8632 33.2216 68.4395L32.2759 66.4092Z" fill="#474445"/>
<path d="M30.8208 64.9541C40.8895 73.3304 115.503 73.9269 128.926 67.1405L128.06 69C121.161 75.0908 41.2636 73.5369 31.7954 67.2996L30.8208 64.9541Z" fill="#767676"/>
<path d="M123.315 74.5158L123.73 72.8927C110.174 76.6736 50.3892 75.6027 35.9133 71.3649L36.6407 73.7881L36.1211 73.6843L33.8348 70.6705L33.627 70.0469C42.6402 75.0665 117.51 76.7149 126.017 71.434L125.912 72.0137L123.315 74.5158Z" fill="#474445"/>
</svg>
