<svg width="151" height="150" viewBox="0 0 151 150" fill="none" xmlns="http://www.w3.org/2000/svg">
<mask id="mask0_82_5193" style="mask-type:alpha" maskUnits="userSpaceOnUse" x="20" y="41" width="110" height="109">
<path d="M75.33 150C105.351 150 129.688 125.663 129.688 95.642C129.688 65.621 105.351 41.2842 75.33 41.2842C45.309 41.2842 20.9722 65.621 20.9722 95.642C20.9722 125.663 45.309 150 75.33 150Z" fill="#C4C4C4"/>
</mask>
<g mask="url(#mask0_82_5193)">
<path d="M75.33 150C105.351 150 129.688 125.663 129.688 95.642C129.688 65.621 105.351 41.2842 75.33 41.2842C45.309 41.2842 20.9722 65.621 20.9722 95.642C20.9722 125.663 45.309 150 75.33 150Z" fill="#B6F0FF"/>
<path fill-rule="evenodd" clip-rule="evenodd" d="M84.7276 86.7376C84.7307 86.6966 84.74 86.6569 84.74 86.6148C84.74 85.7644 84.0613 85.0741 83.2238 85.0741C83.1734 85.0741 83.1258 85.0837 83.0774 85.089C83.2001 84.6596 83.2857 84.2143 83.2857 83.745C83.2857 81.0428 81.1304 78.855 78.4728 78.855C78.055 78.855 77.6589 78.926 77.2722 79.0268C75.718 76.998 73.2954 75.6877 70.5687 75.6877C66.4332 75.6877 62.9917 78.6841 62.2254 82.6548C62.2131 82.6548 62.2018 82.6515 62.1894 82.6515C60.1422 82.6515 58.4818 84.3368 58.4818 86.4158C58.4818 86.5259 58.5035 86.6297 58.5129 86.7376H84.7276ZM53.1514 96.3299C53.1572 96.2545 53.1743 96.1812 53.1743 96.1039C53.1743 94.5365 51.9225 93.2641 50.3776 93.2641C50.2843 93.2641 50.1968 93.2817 50.1074 93.2913C50.3339 92.4998 50.4916 91.6793 50.4916 90.8143C50.4916 85.8337 46.5154 81.8008 41.6127 81.8008C40.8421 81.8008 40.1116 81.9321 39.3979 82.1173C36.5311 78.378 32.062 75.9629 27.0316 75.9629C19.4022 75.9629 13.0535 81.4862 11.6402 88.8048C11.6171 88.8048 11.5962 88.799 11.5736 88.799C7.79691 88.799 4.73389 91.905 4.73389 95.7373C4.73389 95.9399 4.7738 96.1312 4.79086 96.3299H53.1514ZM125.833 85.3207C125.833 85.3127 125.835 85.3053 125.835 85.2973C125.835 83.172 124.124 81.4515 122.013 81.4515C121.623 81.4515 121.255 81.5275 120.9 81.6365C120.118 79.908 118.421 78.6912 116.432 78.6065C115.27 76.0733 112.73 74.3115 109.774 74.3115C107.139 74.3115 104.835 75.7144 103.543 77.8135C103.385 77.7993 103.227 77.7914 103.068 77.7899C99.9833 77.7899 97.4862 80.3041 97.4862 83.4092C97.4862 84.0813 97.6089 84.7226 97.825 85.3207H125.833ZM141.071 116.187C141.075 116.146 141.084 116.106 141.084 116.064C141.084 115.214 140.405 114.524 139.568 114.524C139.517 114.524 139.47 114.533 139.421 114.538C139.544 114.109 139.63 113.664 139.63 113.195C139.63 110.492 137.474 108.305 134.816 108.305C134.399 108.305 134.003 108.376 133.616 108.476C132.062 106.448 129.639 105.137 126.913 105.137C122.777 105.137 119.336 108.134 118.569 112.104C118.557 112.104 118.546 112.101 118.533 112.101C116.486 112.101 114.826 113.786 114.826 115.865C114.826 115.975 114.847 116.079 114.856 116.187H141.071ZM106.882 95.5402C106.907 95.4373 106.922 95.3319 106.922 95.2221C106.922 94.4388 106.269 93.803 105.466 93.803C105.442 93.803 105.42 93.8088 105.395 93.8099C105.304 91.995 103.768 90.5501 101.881 90.5501C100.504 90.5501 99.3145 91.3218 98.7357 92.4436C98.6311 92.4296 98.5279 92.4131 98.4198 92.4131C97.1443 92.4131 96.11 93.4193 96.11 94.6601C96.11 94.9727 96.1764 95.27 96.2942 95.5402H106.882Z" fill="white"/>
<path d="M105.957 97.4307L92.2744 131.773L75.4678 127.449L105.957 97.4307Z" fill="#C9AC82"/>
<path d="M105.995 97.4307L137.637 129.861L92.1255 131.773L105.995 97.4307Z" fill="#715C42"/>
<path d="M50.5325 67.1553L23.5559 134.862L-9.57812 126.337L50.5325 67.1553Z" fill="#C9AC82"/>
<path d="M50.6059 67.1553L112.989 131.091L23.2627 134.862L50.6059 67.1553Z" fill="#917655"/>
<path d="M24.8257 130.596L50.422 67.5684L28.2661 129.908L24.8257 130.596Z" fill="#77644C"/>
<path d="M72.6239 120.386C72.2716 117.214 69.4142 114.928 66.2419 115.28L60.4976 115.918L61.7735 127.407L73.2621 126.131L72.6239 120.386Z" fill="#AB9983"/>
<path d="M70.6981 120.427C70.3458 117.255 67.4884 114.968 64.3158 115.321L58.5718 115.959L59.8477 127.447L71.3361 126.171L70.6981 120.427Z" fill="#715C42"/>
<path fill-rule="evenodd" clip-rule="evenodd" d="M-54.7158 147.763L134.456 160.734L136.844 131.523C136.844 131.523 98.9684 125.143 44.6062 128.315C-15.0156 131.793 -54.7158 147.763 -54.7158 147.763Z" fill="#F0D9B4"/>
<path d="M21.7769 130.316C29.3656 129.428 36.9785 128.761 44.606 128.316C77.5185 126.395 104.388 127.976 120.467 129.522C121.706 129.642 123.082 127.156 121.981 126.182C106.146 125.193 85.0259 124.687 60.5693 126.114C47.5769 126.872 34.6302 128.274 21.7769 130.316Z" fill="#634F36"/>
</g>
</svg>
