<svg width="151" height="150" viewBox="0 0 151 150" fill="none" xmlns="http://www.w3.org/2000/svg">
<mask id="mask0_82_5229" style="mask-type:alpha" maskUnits="userSpaceOnUse" x="21" y="40" width="110" height="110">
<path d="M75.6649 149.45C105.686 149.45 130.023 125.113 130.023 95.0922C130.023 65.0712 105.686 40.7344 75.6649 40.7344C45.6439 40.7344 21.3071 65.0712 21.3071 95.0922C21.3071 125.113 45.6439 149.45 75.6649 149.45Z" fill="#C4C4C4"/>
</mask>
<g mask="url(#mask0_82_5229)">
<path d="M75.6649 149.45C105.686 149.45 130.023 125.113 130.023 95.0922C130.023 65.0712 105.686 40.7344 75.6649 40.7344C45.6439 40.7344 21.3071 65.0712 21.3071 95.0922C21.3071 125.113 45.6439 149.45 75.6649 149.45Z" fill="#B6F0FF"/>
<path d="M141.17 129.467C141.17 135.271 110.98 149.725 73.7383 149.725C36.497 149.725 6.30713 135.271 6.30713 129.467C6.30713 123.663 36.497 120.826 73.7383 120.826C110.98 120.826 141.17 123.663 141.17 129.467Z" fill="#C3CCD9"/>
<path fill-rule="evenodd" clip-rule="evenodd" d="M40.1055 95.5807C40.1406 95.4366 40.159 95.2888 40.1602 95.1404C40.1602 94.0563 39.2622 93.1763 38.1593 93.1763C38.126 93.1763 38.0952 93.1843 38.0619 93.1857C37.9356 90.6742 35.8243 88.6747 33.2308 88.6747C31.3372 88.6747 29.7026 89.7426 28.9069 91.2949C28.7633 91.2756 28.6212 91.253 28.4729 91.253C26.7197 91.253 25.2979 92.6452 25.2979 94.3626C25.2979 94.795 25.3892 95.2064 25.5511 95.5807H40.1055ZM69.7749 81.7962C69.847 81.4296 69.885 81.0503 69.885 80.6622C69.885 77.4605 67.2992 74.8623 64.1052 74.8623C62.1318 74.8623 60.3907 75.8542 59.3479 77.3672C58.4982 77.1706 57.6289 77.0717 56.7568 77.0721C51.0783 77.0721 46.3529 81.1926 45.3007 86.652C45.2924 86.6519 45.2841 86.6511 45.2759 86.6498C45.2677 86.6487 45.2594 86.6476 45.2512 86.6476C42.4402 86.6476 40.1602 88.9648 40.1602 91.8236C40.1602 91.9196 40.1723 92.0121 40.1842 92.1049C40.1911 92.158 40.1979 92.2114 40.2026 92.2656H76.1982C76.2001 92.2433 76.2027 92.2211 76.2062 92.199C76.2106 92.1654 76.2153 92.1319 76.2153 92.0972C76.2153 90.9277 75.2836 89.9787 74.1337 89.9787C74.0856 89.9787 74.0393 89.9851 73.9934 89.9911C73.973 89.9939 73.9529 89.9966 73.9325 89.9988C74.101 89.4085 74.2185 88.7963 74.2185 88.1512C74.2185 85.2076 72.3612 82.708 69.7749 81.7962Z" fill="white"/>
<path d="M63.1419 65.0918L62.8667 67.5689L64.2428 68.1193L63.5548 70.1835H66.7199L68.9217 74.1744V79.1285L69.885 82.2936L67.8208 101.697L69.4722 121.376L73.463 145.046L71.1236 161.147L64.9309 179.174L86.3988 176.835L112.408 179.45L108.83 174.908L107.729 166.101L105.665 151.514L107.729 150.275L105.114 141.055L107.454 140.505L105.114 112.982L109.793 111.468L114.059 100.596L113.509 94.8166L111.032 87.7982L106.903 80.9175L100.436 70.1835L94.1052 65.9175L91.9034 62.89C93.5061 62.342 93.9662 61.7156 93.0043 59.312C94.4691 56.2836 94.258 55.0682 91.3529 54.0826L84.3346 50.5046L84.6098 58.0734L78.9676 59.312L77.447 60.1569L76.7658 59.4496L74.5639 57.7982L72.4997 51.8808L70.0227 50.0918L65.8942 56.5597L63.1419 65.0918Z" fill="#2EE69F"/>
<path d="M83.2339 84.7859C79.3809 87.263 93.0042 69.0979 93.8302 67.8593C96.3871 66.5696 83.9219 80.9327 83.9219 83.1346C83.3712 84.9235 89.8394 82.4465 93.2797 85.3364C96.7201 88.2263 87.0871 82.3089 83.2339 84.7859ZM81.49 128.267C84.6485 132.365 80.1406 95.2969 80.6208 91.8098C78.8206 89.3867 82.5885 123.55 81.5946 126.103C81.2998 128.376 75.7652 124.685 71.8807 130.489C67.9958 136.293 78.3315 124.169 81.49 128.267ZM83.7538 133.894C88.2596 132.543 77.4216 142.918 77.5264 143.825C74.9459 144.619 84.4537 135.086 83.5782 134.471C83.5328 133.879 76.1302 135.302 72.1196 134.029C68.1086 132.756 79.248 135.245 83.7538 133.894ZM91.8805 66.8938C89.5066 66.4229 74.9998 79.1374 72.3623 86.0834C72.9711 86.808 75.6587 81.2567 81.9896 74.546C88.7153 67.6003 93.4374 67.2026 91.8805 66.8938ZM77.5457 60.0822C76.5962 59.799 70.7068 67.1503 69.6103 71.1866C69.8506 71.611 70.9595 68.3875 73.5359 64.5024C76.2722 60.4815 78.1685 60.2679 77.5457 60.0822ZM77.9974 83.4871C75.1884 84.6057 67.7335 106.864 69.2646 115.495C70.3611 115.805 69.7518 108.52 72.2814 97.6573C75.083 86.298 79.8397 82.7536 77.9974 83.4871Z" fill="#007200"/>
<path d="M88.3257 56.0499C88.659 60.6649 89.183 62.9364 91.4908 65.6829H93.9679L93.9065 65.5929C91.3383 61.8297 90.3123 60.3264 93.0046 59.3524C92.254 56.6202 91.4908 54.6737 88.3257 56.0499Z" stroke="#007200" stroke-width="0.550459"/>
<path d="M96.3071 123.854V130.858C96.3071 133.148 100.166 135.325 102.039 136.643C102.987 137.311 104.08 138.31 105.39 139.679" stroke="#007200" stroke-width="1.10092"/>
<path d="M94.5486 71.8352C94.6579 71.8322 94.8957 72.5723 94.9001 72.8008C94.9249 74.0726 94.7253 74.674 94.6579 76.6628C94.5902 78.6519 97.0103 101.526 97.0103 103.973C97.0103 106.42 95.9609 123.541 95.9609 123.541C97.233 124.06 98.2769 124.626 99.2886 125.699C100.357 126.833 101.366 128.509 102.596 131.227C102.687 131.429 102.622 131.679 102.451 131.787C102.279 131.894 102.067 131.818 101.975 131.616C100.759 128.927 99.7951 127.351 98.8175 126.314C97.8475 125.284 96.8421 124.761 95.4916 124.227C95.3457 124.17 95.2488 124.007 95.2521 123.826C95.4159 114.882 96.5435 105.821 96.5361 103.587C96.5289 101.352 94.5864 87.6692 94.3819 76.2268C94.3607 75.04 94.5731 74.0775 94.5486 72.8008C94.5442 72.5723 94.3543 71.8405 94.5486 71.8352ZM102.991 98.5099C103.104 102.77 100.05 108.129 100.163 108.404C100.276 108.679 101.751 107.325 103.448 107.051C105.144 106.776 106.008 106.553 105.936 106.363C105.782 105.962 104.122 104.556 104.122 102.907C104.122 101.258 102.878 94.2499 102.991 98.5099ZM106.078 79.8169C103.322 75.2811 100.848 69.2206 98.3534 68.8471C96.0632 68.1984 99.3407 70.7024 98.6465 71.6976C97.9521 72.6929 96.6894 73.2152 96.8815 73.382C97.2877 73.7354 99.7934 72.4586 101.124 74.3123C102.454 76.166 108.834 84.3524 106.078 79.8169Z" fill="#007200"/>
<path d="M110.206 111.606C108.692 111.881 106.215 112.398 104.564 113.361C105.114 111.159 107.16 110.777 108.417 108.82C110.376 105.772 111.542 104.151 112.683 100.976C113.825 97.801 113.338 94.9193 111.39 91.3449C109.441 87.7708 106.674 81.702 107.867 82.7068C109.06 83.7117 112.348 89.9897 113.371 94.5084C114.395 99.0268 114.402 99.2206 114.197 100.459C114.015 101.56 112.706 104.226 111.995 105.826C110.723 108.69 111.169 110.092 110.206 111.606ZM66.7783 70.3094L63.5978 70.1996C63.5504 70.198 63.5043 70.1841 63.4638 70.1594C63.4234 70.1347 63.39 70.1 63.3669 70.0586C63.3438 70.0172 63.3318 69.9706 63.332 69.9232C63.3323 69.8758 63.3447 69.8293 63.3682 69.7881L64.2429 68.2573L63.5548 67.8444L67.1328 60.138L73.0502 53.2573C73.0502 53.2573 73.1878 53.6701 73.0502 54.083C72.9126 54.4958 71.6741 56.8353 68.6466 60.138C66.0244 62.9985 66.8089 68.543 67.0659 69.9764C67.0733 70.0179 67.0713 70.0605 67.0602 70.1011C67.049 70.1418 67.0289 70.1794 67.0014 70.2113C66.9738 70.2432 66.9395 70.2686 66.9009 70.2856C66.8623 70.3025 66.8204 70.3107 66.7783 70.3094ZM71.5246 50.3715C71.5246 49.9584 70.4237 49.4082 70.0109 49.2706C69.598 49.133 69.7356 52.5733 67.809 56.2889C65.8824 60.0045 71.5246 50.7844 71.5246 50.3715ZM80.3232 60.8363C84.5892 60.6987 89.9562 64.4143 90.2314 64.2767C90.5067 64.139 89.1511 62.3451 88.8759 60.2809C88.6007 58.2164 88.3778 57.165 88.1878 57.2533C87.7855 57.44 86.3782 59.4601 84.7268 59.4601C83.0755 59.4601 76.0571 60.9739 80.3232 60.8363Z" fill="#007200"/>
<path d="M87.5829 55.1008L86.7854 55.3145C86.6386 55.3538 86.5514 55.5048 86.5908 55.6516L86.8045 56.4491C86.8438 56.596 86.9947 56.6831 87.1416 56.6438L87.9391 56.4301C88.0859 56.3907 88.1731 56.2398 88.1337 56.093L87.92 55.2954C87.8807 55.1486 87.7298 55.0615 87.5829 55.1008Z" stroke="#007200" stroke-width="0.550459"/>
<path d="M110.894 99.4954C109.926 98.6348 109.916 102.661 108.83 102.936C107.669 103.23 105.252 98.5321 106.035 100.734C107.591 104.587 107.867 105.275 106.49 107.064C104.725 109.359 104.564 109.404 103.05 111.743C102.224 113.807 102.224 114.495 104.013 118.349C105.802 122.202 103.05 130.734 104.642 126.862C106.766 120.55 103.463 115.459 104.177 112.162C104.654 109.96 106.313 109.678 107.336 107.715C108.952 104.614 113.371 101.697 110.894 99.4954Z" fill="#007200"/>
</g>
<path d="M83.5089 59.7245C81.8685 59.6362 80.8554 59.8263 79.3816 60.4957C79.0395 60.6509 78.636 60.4415 78.5683 60.0721C78.2999 58.6104 77.8667 56.9722 77.8667 56.9722C77.8667 56.9722 76.7421 54.0518 76.2153 52.7062L77.7291 47.8896L84.8851 51.4676L85.7107 57.3851C84.958 58.7304 84.484 59.2503 83.5089 59.7245Z" fill="#2EE69F" stroke="#007200" stroke-width="0.550459" stroke-linecap="round" stroke-linejoin="round"/>
<path d="M87.2246 44.0371C90.875 46.1589 92.4518 47.6214 91.7345 52.294L87.4899 49.2153L87.2246 44.0371Z" fill="#2EE69F" stroke="#007200" stroke-width="0.550459"/>
<path d="M97.4083 46.5137L87.5 47.477L89.289 49.6788L97.4083 46.5137Z" fill="#2EE69F"/>
<path d="M96.9954 46.6514L88.3257 48.578L89.289 49.266L96.9954 46.6514Z" fill="#007200"/>
<path d="M68.6467 48.3026L75.2522 47.064L75.9403 48.7154L68.6467 48.3026ZM75.5275 52.2934L71.399 52.431L74.9646 50.8462L75.5275 52.2934ZM65.7568 39.4952L76.6284 44.1741L75.5275 45.9631L65.7568 39.4952ZM71.6743 34.6787L80.344 43.0732L78.0045 43.6237L71.6743 34.6787ZM81.3073 35.9172V43.2108L83.7844 44.1741L81.3073 35.9172ZM91.3532 40.0457L84.8853 44.7246L87.0871 46.9264L91.3532 40.0457Z" fill="#2EE69F"/>
<path d="M79.6559 52.9814C80.5568 53.3046 81.1923 53.3425 82.5458 53.1191M76.6284 53.5319C76.9636 53.6225 77.167 53.6252 77.5917 53.5319" stroke="#007200" stroke-width="0.550459" stroke-linecap="round" stroke-linejoin="round"/>
<path d="M75.3896 45.1613V47.8137C75.3896 47.8625 75.4026 47.9104 75.4273 47.9525C75.4519 47.9946 75.4874 48.0293 75.53 48.0531C75.5725 48.077 75.6207 48.089 75.6695 48.088C75.7183 48.0869 75.7659 48.0729 75.8074 48.0474L75.8446 48.0245C79.5195 45.7709 81.715 44.4245 91.353 54.0823L91.803 52.8077C91.9167 52.4843 91.9423 52.1365 91.877 51.7999C91.8116 51.4634 91.6579 51.1503 91.4314 50.893C85.5434 44.2024 82.3546 40.8963 76.2756 43.729C75.7243 43.9858 75.3896 44.5533 75.3896 45.1613Z" fill="#2EE69F" stroke="#007200" stroke-width="0.550459"/>
<path d="M80.2065 52.2934C80.5225 51.9409 80.8674 52.0113 81.5827 52.2934" stroke="#007200" stroke-width="0.550459" stroke-linecap="round" stroke-linejoin="round"/>
<path d="M78.2798 58.0732L80.6192 57.7979M78.555 58.3484C79.2824 58.4549 79.708 58.4131 80.4816 58.2108M78.555 57.6603C78.9734 57.4071 79.2687 57.3375 79.9312 57.3851" stroke="#007200" stroke-width="0.275229" stroke-linecap="round" stroke-linejoin="round"/>
<path d="M76.7661 52.4312C77.7724 52.2719 78.3104 52.1984 78.0046 52.8441C77.9034 52.734 77.3862 56.3469 77.5918 56.8349C77.7974 57.3229 80.0689 56.2844 80.0689 56.2844C79.1133 54.534 78.9966 53.5421 79.3808 51.7432" stroke="#007200" stroke-width="0.550459" stroke-linecap="round" stroke-linejoin="round"/>
<path d="M75.5272 48.3028C74.8375 52.1874 74.8889 53.3714 76.2153 52.7064C76.7173 50.6103 77.1056 49.786 78.0043 48.9908C79.3804 50.9174 82.1327 49.5413 88.8758 55.0459L91.2153 54.0826C84.6021 47.8894 81.2533 43.5672 75.5272 48.3028Z" fill="#2EE69F" stroke="#007200" stroke-width="0.550459"/>
<path d="M86.6176 53.5536C86.1241 52.9476 85.7773 52.3979 85.3648 51.6009C85.1666 51.218 85.3075 50.7435 85.6928 50.5492C86.368 50.209 86.9226 50.0373 87.6872 49.8848C87.8009 49.8615 87.9183 49.8642 88.0309 49.8927C88.1434 49.9211 88.248 49.9746 88.337 50.0491C89.0608 50.6629 89.4478 51.2211 89.807 52.2047C89.9176 52.5078 89.829 52.8546 89.554 53.0235C89.1106 53.2966 88.501 53.5162 87.4441 53.8101C87.1417 53.8944 86.8161 53.7969 86.6176 53.5536Z" fill="#2EE69F" stroke="#007200" stroke-width="0.550459"/>
<path d="M61.7659 3.57798C58.876 4.81651 60.5274 8.80734 55.5733 9.08257H53.9219C54.8926 5.62459 55.7488 3.7756 58.3255 3.7156C59.5641 3.7156 60.5923 2.97908 62.454 0C62.454 1.51376 62.7292 2.88991 61.7659 3.57798Z" fill="#FFEC99"/>
<path d="M51.8575 3.99041C50.7985 6.31748 50.8056 7.53179 53.0961 9.35739L54.0594 9.77023L56.6741 3.99041C55.7187 4.01794 55.6937 3.13197 55.986 0.962891C54.1513 3.4295 53.2081 4.33362 51.8575 3.99041Z" fill="#FFEC99"/>
<path d="M53.0962 9.18808V11.5275L57.087 12.2156L56.8118 8.91286C55.4054 8.50276 54.5846 8.62331 53.0962 9.18808Z" fill="#007200"/>
<path d="M61.0781 15.8254C58.8763 16.9264 53.0965 18.0273 49.3809 16.1007L51.8579 15.1374L56.5368 14.5869L61.0781 15.8254Z" fill="#2EE69F"/>
<path d="M49.2435 16.1011C48.8488 15.5066 48.7729 15.1067 48.8307 14.3121C53.9964 13.3837 56.7336 13.3562 61.216 14.3121C61.3038 14.9795 61.3016 15.3263 61.0784 15.8259C56.0409 14.8361 53.3697 15.0918 49.2435 16.1011Z" fill="#007200"/>
<path d="M48.2416 14.7366C48.0204 13.5261 48.1723 13.0615 48.6545 12.3971C53.0909 10.8619 55.8237 10.8157 61.0398 11.8467C61.4163 13.02 61.4895 13.6489 61.4527 14.7366C56.8346 13.5515 54.0146 13.3926 48.2416 14.7366ZM55.5732 21.0548L57.2246 22.5685V20.0915L58.7383 21.0548L63.5549 34.6786L69.1971 46.1006L69.8851 50.2291L68.0961 54.908L65.0686 59.4493L62.0411 51.8804L57.4998 35.5043L56.5365 27.1098L55.7108 23.5318L52.3046 22.737C52.1011 22.6892 51.9223 22.5683 51.8021 22.3974C51.6819 22.2264 51.6287 22.0172 51.6526 21.8096C51.6765 21.602 51.7759 21.4104 51.9318 21.2712C52.0877 21.1321 52.2893 21.055 52.4983 21.0548H55.5732Z" fill="#2EE69F"/>
<path d="M53.5089 15.8261L56.8116 15.6885V16.7082L58.0502 16.6518L58.463 19.1288L57.3414 19.1049L56.9492 31.6518H56.3564L56.674 34.4041H56.158L55.8483 36.4683H54.197L53.9217 34.4041H53.3713V31.6518H52.8208L52.6835 19.0058L51.9951 18.9912V16.927L53.5089 16.8582V15.8261Z" fill="#2EE69F"/>
<path d="M54.0568 23.4488L52.3934 23.1994C52.2505 23.178 52.105 23.2136 51.9882 23.2985C51.8714 23.3834 51.7926 23.5108 51.7689 23.6533L51.6745 24.2186C51.6625 24.2906 51.6649 24.3643 51.6817 24.4354C51.6985 24.5065 51.7292 24.5735 51.7722 24.6326C51.8151 24.6916 51.8694 24.7416 51.9318 24.7795C51.9942 24.8173 52.0635 24.8424 52.1357 24.8533L53.7992 25.1029C53.942 25.1243 54.0875 25.0887 54.2044 25.0038C54.3212 24.9189 54.4 24.7915 54.4237 24.6491L54.5181 24.0837C54.5301 24.0117 54.5276 23.938 54.5109 23.867C54.4941 23.7959 54.4633 23.7289 54.4204 23.6698C54.3775 23.6107 54.3232 23.5608 54.2608 23.5229C54.1984 23.485 54.129 23.4596 54.0568 23.4488Z" fill="#2EE69F"/>
<path d="M53.0529 24.9275L52.4265 25.0616C52.3533 25.0772 52.284 25.1077 52.223 25.151C52.162 25.1943 52.1104 25.2497 52.0715 25.3136C52.0326 25.3776 52.0071 25.4488 51.9966 25.5229C51.9862 25.597 51.9909 25.6725 52.0106 25.7447L52.1218 26.1526C52.1411 26.2235 52.1744 26.2898 52.2198 26.3476C52.2651 26.4055 52.3216 26.4536 52.3858 26.4893C52.4501 26.5249 52.5208 26.5474 52.5939 26.5552C52.667 26.5631 52.7409 26.5563 52.8113 26.5352L53.2902 26.3912C53.3954 26.3597 53.4887 26.2973 53.5582 26.2123C53.6277 26.1272 53.6702 26.0233 53.6802 25.914L53.7165 25.5154C53.7243 25.4295 53.7118 25.3429 53.68 25.2627C53.6482 25.1824 53.598 25.1108 53.5334 25.0536C53.4688 24.9963 53.3917 24.9551 53.3082 24.9331C53.2247 24.9112 53.1373 24.9095 53.0529 24.9275Z" fill="#2EE69F"/>
<path d="M59.2893 21.6052C59.1517 21.33 57.2248 19.8162 57.3624 20.2291C57.5 20.6419 58.4634 21.0548 58.8762 21.6052C59.289 22.1557 62.1789 33.7153 63.0049 35.367C63.8306 37.0183 68.5092 45.4128 68.6471 46.6514C68.7847 47.8899 68.7847 50.7798 69.06 51.055C69.3352 51.3303 69.6104 49.8165 69.6104 49.1284C69.6101 48.4404 69.3352 47.7523 69.3352 46.6514C69.3349 45.5505 64.6566 36.4679 63.693 34.8165C62.7297 33.1651 59.4269 21.8805 59.2893 21.6052ZM56.9496 30.9616V30.963C56.9496 32.4768 57.2248 32.752 57.3624 34.2658C57.4621 35.3623 57.9129 37.1557 58.4634 38.9447C58.809 40.0684 57.5 33.5777 57.6377 32.2016C57.7753 30.8254 57.2248 27.1098 57.0872 26.8346C56.9496 26.5594 56.9496 29.4473 56.9496 30.9616ZM57.2248 23.2566C56.9116 23.048 57.2248 22.1557 57.2248 22.1557C57.2248 22.1557 58.601 24.4951 58.601 25.1832C58.601 25.8713 58.0505 23.8071 57.2248 23.2566ZM53.2574 23.1391C52.4689 23.1801 52.8732 22.7964 52.8732 22.7964C52.8732 22.7964 55.9637 23.1341 55.8699 24.7252C55.582 24.4684 55.0791 23.0895 53.2574 23.1391Z" fill="#007200"/>
<path d="M52.8725 24.7264C52.3345 24.4264 52.6232 24.9545 52.6232 24.9545C52.6232 24.9545 54.7146 25.6173 54.5957 23.9447C54.4086 24.1153 54.1144 25.374 52.8725 24.7264ZM52.6592 26.3304C52.1982 26.1102 52.512 26.5891 52.512 26.5891C52.512 26.5891 54.2124 26.9499 53.8196 25.3217C53.709 25.5157 53.7147 26.7942 52.6592 26.3304ZM52.6835 18.9906L57.3624 19.1282V19.6786L52.6835 19.541V18.9906ZM53.6468 16.2383H56.6743V16.7887H53.6468V16.2383ZM53.3715 31.6511H56.3991V32.2016H53.3715V31.6511ZM53.922 34.4034H56.1238L55.9862 34.9539H54.0596L53.922 34.4034Z" fill="#007200"/>
</svg>
