<svg width="150" height="150" viewBox="0 0 150 150" fill="none" xmlns="http://www.w3.org/2000/svg">
<mask id="mask0_82_5288" style="mask-type:alpha" maskUnits="userSpaceOnUse" x="20" y="40" width="110" height="109">
<path d="M75.1327 148.899C105.154 148.899 129.491 124.562 129.491 94.5414C129.491 64.5204 105.154 40.1836 75.1327 40.1836C45.1117 40.1836 20.7749 64.5204 20.7749 94.5414C20.7749 124.562 45.1117 148.899 75.1327 148.899Z" fill="#C4C4C4"/>
</mask>
<g mask="url(#mask0_82_5288)">
<path d="M75.1327 148.899C105.154 148.899 129.491 124.562 129.491 94.5414C129.491 64.5204 105.154 40.1836 75.1327 40.1836C45.1117 40.1836 20.7749 64.5204 20.7749 94.5414C20.7749 124.562 45.1117 148.899 75.1327 148.899Z" fill="#B6F0FF"/>
<path fill-rule="evenodd" clip-rule="evenodd" d="M85.8667 149.449H132.38V98.1381C132.38 98.1381 122.992 91.5293 109.763 103.582C95.2545 116.798 85.8667 149.449 85.8667 149.449Z" fill="#CCFFEC"/>
<path fill-rule="evenodd" clip-rule="evenodd" d="M40.1928 97.9817C40.1889 97.9347 40.1785 97.889 40.1785 97.8419C40.1782 97.6101 40.2236 97.3804 40.3121 97.1661C40.4006 96.9518 40.5305 96.7571 40.6943 96.593C40.8581 96.4289 41.0527 96.2987 41.2669 96.2099C41.481 96.1211 41.7106 96.0753 41.9424 96.0752C42.0011 96.0752 42.0561 96.0871 42.1123 96.0923C41.9697 95.6004 41.8703 95.0904 41.8703 94.5518C41.8703 91.458 44.3782 88.9498 47.4707 88.9498C47.9556 88.9498 48.4172 89.031 48.8658 89.1474C50.6766 86.8223 53.493 85.3212 56.6678 85.3212C61.4782 85.3212 65.4831 88.7549 66.3734 93.3042C66.388 93.3042 66.401 93.299 66.4167 93.299C68.7963 93.299 70.7289 95.2305 70.7289 97.6129C70.7289 97.7398 70.7042 97.8587 70.6923 97.9817H40.1928ZM41.0427 102.421C41.0682 102.317 41.0815 102.211 41.0823 102.103C41.0823 101.32 40.4289 100.684 39.6267 100.684C39.6024 100.684 39.5799 100.69 39.5556 100.691C39.464 98.8762 37.9282 97.4313 36.0418 97.4313C34.664 97.4313 33.475 98.203 32.8959 99.3249C32.7913 99.3108 32.6884 99.2943 32.5802 99.2943C31.3048 99.2943 30.2705 100.301 30.2705 101.541C30.2705 101.854 30.3368 102.151 30.4546 102.421H41.0427ZM130.177 86.1469C130.177 86.1389 130.178 86.1315 130.178 86.1235C130.178 83.9982 128.468 82.2777 126.357 82.2777C125.967 82.2777 125.598 82.3537 125.244 82.4626C124.461 80.7342 122.765 79.5174 120.775 79.4326C119.614 76.8994 117.074 75.1377 114.117 75.1377C111.482 75.1377 109.179 76.5405 107.887 78.6397C107.729 78.6254 107.57 78.6175 107.412 78.616C104.327 78.616 101.83 81.1303 101.83 84.2354C101.83 84.9075 101.953 85.5488 102.169 86.1469H130.177ZM96.3652 93.8893C96.3396 93.7852 96.3262 93.6784 96.3253 93.5712C96.3253 92.7879 96.9787 92.1521 97.781 92.1521C97.8052 92.1521 97.8278 92.1579 97.852 92.159C97.9436 90.3441 99.4794 88.8992 101.366 88.8992C102.744 88.8992 103.933 89.6709 104.512 90.7927C104.616 90.7787 104.72 90.7622 104.828 90.7622C106.103 90.7622 107.137 91.7684 107.137 93.0092C107.137 93.3121 107.075 93.6118 106.953 93.8893H96.3652Z" fill="white"/>
<path d="M97.0134 128.258L77.1969 128.808V130.322L76.5088 131.01V151.928H99.2152L98.2519 129.909H97.0134V128.258Z" fill="#474445"/>
<path d="M72.7935 125.781L92.1619 125.368L97.0136 128.258L77.0595 129.084L72.7935 125.781Z" fill="#767676"/>
<path d="M72.7934 127.707V125.78L77.1971 128.945V130.322L76.509 131.01V151.927L71.0044 147.386L71.6925 127.707H72.7934Z" fill="#767676"/>
<path d="M70.1788 67.9828L74.9953 70.3222L76.0962 108.166L74.9953 126.194L78.1604 127.295H92.4724V89.1754C92.5384 87.8144 92.9675 87.1107 93.8485 85.8727C93.9107 73.4587 93.082 69.3234 94.1238 68.8085L99.9036 66.469L102.793 66.8818H106.647C110.796 62.4102 111.683 59.9119 112.702 55.4598L103.619 54.3589L88.4815 50.2305H80.2247L75.2744 52.8072C71.9102 54.5585 68.2342 55.6304 64.456 55.9618L54.4907 56.836L60.9586 69.0837L70.1788 67.9828Z" fill="#C3CCD9"/>
<path d="M45.1328 57.6615C49.6078 55.6257 51.9888 55.2899 55.8668 57.1111C57.9827 57.7887 57.5561 57.9736 53.696 59.9564C52.6031 60.5179 51.3568 60.7353 50.1458 60.5275C46.2687 59.8625 45.9156 59.4103 45.1328 57.6615Z" fill="#C3CCD9"/>
<path d="M91.3713 91.9277L93.2404 87.878C93.6409 87.0102 93.8483 86.0658 93.8484 85.11V83.6708C93.4336 85.9833 92.8303 87.8882 91.3713 91.9277ZM93.5732 126.469H92.0594L92.4723 93.1662L93.5732 126.469ZM89.0319 127.295H88.2062L88.4313 106.928L89.0319 127.295ZM88.8943 50.2305C85.7586 51.0721 83.9506 51.1321 80.6374 50.5057L82.3254 51.4621C83.0627 51.8799 83.8996 52.0897 84.7468 52.0689C85.594 52.0482 86.4196 51.7977 87.1356 51.3443L88.8943 50.2305ZM45.1345 57.6707C45.1337 57.6678 45.1332 57.6647 45.1328 57.6617L45.1345 57.6707C45.228 58.0594 48.6266 61.233 55.5915 58.9002C55.5915 58.9002 55.7941 59.2269 55.3821 59.4551C50.3652 62.2335 45.5363 59.8632 45.1345 57.6707ZM78.3409 74.7308C81.6907 71.6931 83.3267 69.2824 85.8668 64.68C82.6254 69.0977 81.1334 71.5346 78.8801 72.5791C78.3139 72.8417 77.8851 73.3715 77.8851 73.9954V74.5283C77.8851 74.7652 78.1653 74.8899 78.3409 74.7308ZM72.1053 60.1387C74.0217 63.2037 75.0869 65.1542 77.202 67.3032C77.4216 67.5264 77.7833 67.5124 77.9913 67.2785L78.2531 66.984C78.4876 66.72 78.4163 66.3069 78.1196 66.1156C76.1801 64.8647 74.6275 62.945 72.1053 60.1387ZM80.0404 65.5751L79.8797 65.6953C79.6213 65.8894 79.2516 65.8203 79.0868 65.5423C78.0668 63.8227 77.5628 62.5434 77.1257 61.0566C77.0335 60.7429 77.4706 60.5722 77.6278 60.8584C78.473 62.4019 79.1814 63.5538 80.1409 64.7818C80.3335 65.0285 80.2909 65.3873 80.0404 65.5751ZM77.0594 126.194L75.5457 125.506L75.9425 109.369C75.9527 108.956 76.1454 108.576 76.4586 108.306C80.3737 104.939 88.16 94.9184 93.298 81.7442C89.5824 93.7167 82.564 103.212 77.3346 109.68L77.0594 126.194ZM90.9552 78.8538C91.9595 76.3087 92.4252 73.6184 93.1006 69.5755C93.2264 68.8236 93.6637 68.1636 94.2794 67.7139C96.2754 66.256 98.1202 64.4073 101.28 60.2761C99.3813 63.641 98.2978 65.1972 96.3255 67.0192C100.732 64.6715 103.244 62.9196 108.023 58.3495C105.906 61.2107 101.954 65.4074 100.316 66.0559C102.73 65.6783 104.331 65.1022 106.922 62.4779C106.354 63.9154 105.367 65.1317 102.793 66.3311L105.959 66.4687L105.981 66.4558C107.005 65.853 107.623 65.4897 109.399 63.3036C110.988 61.3478 108.847 64.9181 107.418 66.8114C107.115 67.2132 106.629 67.4194 106.126 67.3974L103.757 67.2944L99.0778 67.0192L94.9546 68.7716C94.5473 68.9446 94.2017 69.2364 93.9627 69.6087C93.7237 69.9811 93.6024 70.4169 93.6147 70.8592L93.8484 79.2669C93.7273 80.5649 93.2247 81.1685 92.4902 81.8854C92.2912 82.0797 91.9513 81.8851 92.0124 81.6135C92.2975 80.3461 92.3809 79.5154 92.0594 78.7164L91.3925 79.2014C91.1635 79.3679 90.8514 79.1169 90.9552 78.8538ZM75.9888 78.4726C75.7873 78.8538 75.5889 79.3817 75.2704 80.2305L74.9792 73.4331C74.9093 71.8024 73.684 70.2958 72.2396 69.5359C68.7615 67.7056 63.1014 63.7742 59.9952 59.7259C61.2472 60.7973 73.8538 70.1246 75.1328 69.2213L67.564 61.102L67.5767 61.1133C70.6592 63.9118 72.6863 65.752 74.9462 67.0982C76.0339 67.7461 76.6031 69.0286 76.2979 70.2573C75.8217 72.1718 75.7386 73.7395 76.4 75.3C76.8365 76.3302 76.5123 77.4837 75.9888 78.4726ZM77.4723 86.7358V88.1221C77.4723 88.6985 78.0541 89.105 78.555 88.8198C79.2926 88.4001 79.8123 87.8736 80.4998 87.0088C79.7146 87.4109 79.2725 87.5876 78.4815 87.2967C79.4836 86.765 79.6419 86.228 79.779 85.1846L79.7776 85.1854C79.2794 85.4959 78.9213 85.7191 78.443 85.7918C77.9385 85.8688 77.4723 86.2255 77.4723 86.7358ZM75.6833 81.1938C75.8754 80.5533 75.9502 80.4672 76.3713 79.5424C76.7924 78.6174 76.9218 102.386 76.9218 102.386C76.5522 103.307 76.3713 103.075 76.3713 103.075C76.3141 94.2185 76.1435 88.8388 75.6833 81.1938ZM81.3255 95.3681L78.6335 97.1931C78.2715 97.4386 77.7475 97.211 77.7475 96.8086V95.9744C78.7262 96.1489 79.6028 95.9246 81.3255 95.3681ZM81.3255 92.4039C79.7905 92.2751 78.9357 92.1168 77.8204 91.6624C77.6553 91.595 77.4723 91.7147 77.4723 91.8928C77.4723 92.5896 78.0502 93.1594 78.7433 93.0886C79.7578 92.9849 80.4335 92.782 81.3255 92.4039ZM77.4723 81.8463L77.5485 82.2256C77.6616 82.7882 78.3183 83.0821 78.7265 82.6786C79.0631 82.3459 79.3251 81.9446 79.6146 81.3314C78.7455 81.791 78.2696 81.9531 77.4723 81.8463Z" fill="#767676"/>
<path d="M60.9585 69.0836L54.2153 59.7258C55.3622 59.2167 55.4318 58.4997 55.041 56.8359L60.9585 69.0836Z" fill="#767676"/>
<path fill-rule="evenodd" clip-rule="evenodd" d="M35.7729 149.545L116.739 155.607L117.761 141.956C117.761 141.956 101.55 138.974 78.283 140.456C52.7648 142.082 35.7729 149.545 35.7729 149.545Z" fill="#F0D9B4"/>
<path fill-rule="evenodd" clip-rule="evenodd" d="M26.6583 122.205C29.5551 119.285 34.2623 119.256 37.1693 122.141C40.0751 125.025 40.0806 129.732 37.1839 132.653C34.2862 135.573 29.5817 135.603 26.6759 132.718C23.7689 129.833 23.7604 125.126 26.6583 122.205Z" fill="#06C484"/>
<path fill-rule="evenodd" clip-rule="evenodd" d="M29.0953 117.587C30.9839 115.683 34.0527 115.664 35.948 117.545C37.8424 119.425 37.8459 122.494 35.9573 124.398C34.0684 126.302 31.0013 126.321 29.1069 124.441C27.2119 122.56 27.2064 119.491 29.0953 117.587ZM99.3193 131.563C102.216 128.643 106.923 128.613 109.831 131.498C112.736 134.383 112.742 139.09 109.845 142.01C106.947 144.931 102.243 144.96 99.3369 142.076C96.4299 139.19 96.4214 134.483 99.3193 131.563Z" fill="#06C484"/>
<path fill-rule="evenodd" clip-rule="evenodd" d="M101.756 126.945C103.644 125.041 106.713 125.022 108.608 126.903C110.503 128.784 110.506 131.852 108.618 133.756C106.729 135.66 103.662 135.679 101.767 133.799C99.8724 131.918 99.8669 128.849 101.756 126.945ZM47.3027 131.095C47.2972 131.071 47.292 131.048 47.2871 131.024C46.861 128.988 48.5988 126.811 51.1683 126.159C53.734 125.506 56.1629 126.628 56.5909 128.662C56.6049 128.729 56.6165 128.797 56.6259 128.864C60.4378 127.226 64.5643 127.126 66.5347 128.797C67.7261 129.809 67.899 131.272 67.2134 132.81C71.1709 132.319 74.4629 133.377 75.0874 135.565C75.5804 137.291 74.2893 139.299 71.9418 140.89C73.5164 142.048 74.2163 143.634 73.6824 145.401C72.5691 149.085 66.5118 152.172 60.1549 152.29C58.8627 152.314 57.6571 152.214 56.5664 152.008C55.9418 152.397 55.2992 152.758 54.6409 153.088C47.9382 156.456 40.2511 156.554 37.4704 153.313C35.9996 151.6 36.1917 149.297 37.6884 147.009C34.7303 147.229 32.5361 146.104 32.7241 144.409C32.9135 142.643 35.6289 140.921 38.7781 140.569C38.9755 140.546 39.1736 140.53 39.372 140.519C36.3844 138.404 35.8458 135.341 38.3407 133.157C40.3747 131.374 43.8847 130.652 47.3027 131.095Z" fill="#06C484"/>
</g>
<path d="M121.12 55.8235C116.645 53.7877 114.264 53.4522 110.386 55.2731C108.27 55.9507 108.697 56.1356 112.557 58.1187C113.65 58.6801 114.896 58.8973 116.107 58.6895C119.984 58.0248 120.337 57.5726 121.12 55.8235Z" fill="#C3CCD9"/>
<path d="M121.096 55.8711C119.582 57.6601 118.069 58.2105 112.014 57.7542C112.442 58.2254 113.803 58.761 115.041 58.761C116.83 58.6234 118.344 58.3482 119.582 57.7542C120.546 57.2472 120.821 56.4216 121.096 55.8711Z" fill="#767676"/>
<path d="M78.1603 41.9735C77.7474 45.1386 81.0502 47.6157 80.775 50.9184L90.1328 51.3313C88.8122 49.0138 88.0242 48.5944 86.9676 41.2854C86.2795 37.9826 79.1236 37.0193 78.1603 41.9735Z" fill="#C3CCD9"/>
</svg>
