<svg width="151" height="150" viewBox="0 0 151 150" fill="none" xmlns="http://www.w3.org/2000/svg">
<mask id="mask0_82_5330" style="mask-type:alpha" maskUnits="userSpaceOnUse" x="20" y="41" width="110" height="109">
<path d="M75.33 150C105.351 150 129.688 125.663 129.688 95.642C129.688 65.621 105.351 41.2842 75.33 41.2842C45.309 41.2842 20.9722 65.621 20.9722 95.642C20.9722 125.663 45.309 150 75.33 150Z" fill="#C4C4C4"/>
</mask>
<g mask="url(#mask0_82_5330)">
<path d="M75.33 150C105.351 150 129.688 125.663 129.688 95.642C129.688 65.621 105.351 41.2842 75.33 41.2842C45.309 41.2842 20.9722 65.621 20.9722 95.642C20.9722 125.663 45.309 150 75.33 150Z" fill="#B6F0FF"/>
<path fill-rule="evenodd" clip-rule="evenodd" d="M22.605 109.991C22.6028 109.981 22.6007 109.971 22.5987 109.961C22.4325 109.096 23.1833 108.185 24.2757 107.927C25.3667 107.669 26.3875 108.16 26.5546 109.025C26.5601 109.053 26.5645 109.082 26.5681 109.111C28.1933 108.443 29.9413 108.429 30.7642 109.151C31.2618 109.587 31.3248 110.208 31.0237 110.854C32.7026 110.674 34.0895 111.144 34.3389 112.075C34.5357 112.81 33.975 113.651 32.9704 114.308C33.6291 114.81 33.9145 115.486 33.6764 116.23C33.1796 117.783 30.5933 119.048 27.9007 119.054C27.3533 119.056 26.8438 119.005 26.3831 118.91C26.1158 119.071 25.8412 119.219 25.5602 119.354C22.6989 120.733 19.4435 120.722 18.2883 119.331C17.6773 118.595 17.7745 117.621 18.424 116.663C17.1701 116.736 16.2486 116.244 16.3397 115.528C16.4322 114.781 17.5939 114.071 18.9296 113.943C19.0149 113.935 19.0992 113.93 19.1815 113.926C17.9311 113.01 17.7241 111.71 18.7956 110.802C19.6692 110.061 21.1609 109.78 22.605 109.991ZM115.89 109.721L115.907 109.677C116.393 108.42 118.105 107.849 119.731 108.4C121.356 108.95 122.281 110.416 121.797 111.672C121.781 111.714 121.763 111.755 121.745 111.795C124.394 112.248 126.672 113.647 127.154 115.251C127.446 116.22 127.024 117.077 126.109 117.671C128.433 118.799 129.85 120.534 129.419 121.944C129.078 123.056 127.669 123.692 125.832 123.73C126.28 124.915 126.101 126.023 125.188 126.796C123.285 128.406 118.904 127.949 115.406 125.773C114.695 125.331 114.076 124.851 113.555 124.355C113.078 124.346 112.602 124.316 112.128 124.263C107.297 123.732 103.083 121.076 102.714 118.334C102.518 116.884 103.435 115.7 105.055 114.984C103.369 114.061 102.573 112.676 103.272 111.821C103.998 110.927 106.08 110.948 107.917 111.867C108.034 111.925 108.147 111.986 108.257 112.049C107.378 109.846 108.165 107.991 110.291 107.683C112.025 107.431 114.188 108.276 115.89 109.721Z" fill="#06C484"/>
<path d="M96.9354 78.1648C103.472 78.1648 108.77 72.8662 108.77 66.33C108.77 59.7938 103.472 54.4951 96.9354 54.4951C90.3992 54.4951 85.1006 59.7938 85.1006 66.33C85.1006 72.8662 90.3992 78.1648 96.9354 78.1648Z" fill="#FFF5C8"/>
<path fill-rule="evenodd" clip-rule="evenodd" d="M64.8325 70.4991C64.8358 70.4581 64.8449 70.4185 64.8449 70.3764C64.8449 69.5259 64.1665 68.8356 63.3289 68.8356C63.2786 68.8356 63.231 68.8453 63.1825 68.8505C63.3053 68.4211 63.3909 67.9758 63.3909 67.5066C63.3909 64.8044 61.2355 62.6166 58.5776 62.6166C58.1601 62.6166 57.7641 62.6876 57.3774 62.7883C55.8232 60.7593 53.4006 59.4492 50.6739 59.4492C46.5383 59.4492 43.0968 62.4456 42.3306 66.4164C42.3182 66.4164 42.3069 66.4133 42.2945 66.4133C40.2474 66.4133 38.5869 68.0983 38.5869 70.1774C38.5869 70.2875 38.6087 70.3912 38.6177 70.4991H64.8325ZM123.08 75.963C123.08 75.955 123.082 75.9476 123.082 75.9396C123.082 73.8143 121.371 72.0938 119.261 72.0938C118.871 72.0938 118.502 72.1698 118.148 72.2788C117.365 70.5503 115.669 69.3335 113.679 69.2488C112.518 66.7155 109.978 64.9538 107.021 64.9538C104.386 64.9538 102.083 66.3566 100.791 68.4558C100.633 68.4415 100.474 68.4337 100.315 68.4322C97.2309 68.4322 94.7337 70.9464 94.7337 74.0515C94.7337 74.7236 94.8565 75.3649 95.0725 75.963H123.08Z" fill="white"/>
<path d="M23.9995 128.807H129.688V154.403H23.9995V128.807Z" fill="#0293F4"/>
<path fill-rule="evenodd" clip-rule="evenodd" d="M112.15 142.724C102.671 142.268 104.532 146.923 96.8842 148.274C87.9029 149.86 76.4071 151.517 65.2515 151.007C56.906 150.626 49.7467 148.092 51.3915 146.196C53.6979 143.537 74.4794 142.824 74.699 140.115C74.8873 137.795 43.4258 136.624 52.2623 135.458C65.8333 133.668 88.1765 139.672 98.4632 136.98C108.052 134.471 79.8177 131.234 81.0549 127.925C81.6618 126.301 94.984 127.02 102.133 127.161C108.818 127.292 117.685 127.37 120.892 128.708C125.769 130.743 121.395 133.285 122.337 135.591C122.57 136.162 121.871 137.16 124.374 137.231C134.819 137.525 151.434 134.323 155.524 136.525C159.445 138.636 128.041 137.398 128.923 139.68C130.003 142.473 153.21 142.064 158.64 144.583C161.446 145.884 151.674 147.023 146.733 147.94C141.881 148.841 135.366 150.66 130.145 149.873C119.989 148.341 124.078 143.297 112.15 142.724Z" fill="#027DCF"/>
<path d="M43.4878 111.911H83.8287V121.479H43.4878V111.911Z" fill="#474445"/>
<path d="M95.724 88.8965L86.1559 90.3189L83.6992 96.6544L95.724 94.8442V88.8965Z" fill="#E8EEF4"/>
<path d="M22.541 96.9131C26.831 106.337 28.7549 111.378 30.5576 119.54H38.574L27.8422 97.689L22.5413 96.9131H22.541Z" fill="#E3E9F2"/>
<path d="M23.3169 97.1719C27.0666 104.671 29.5412 110.046 31.3335 119.023H37.9277L34.9536 107.257L23.3169 97.1719Z" fill="#C3CCD9"/>
<path d="M22.283 96.655C29.9908 105.174 33.3043 110.349 37.6694 120.316L58.4864 105.835C44.3258 96.5559 36.399 93.9905 22.283 96.655Z" fill="#F6F8FB"/>
<path d="M83.5697 78.165C80.4626 94.0194 81.26 99.3338 80.3371 112.558L49.6934 104.283C56.805 88.8968 67.278 79.3287 83.5697 78.165Z" fill="#F1F9FF"/>
<path d="M43.746 110.877C40.7465 110.877 38.3154 114.466 38.3154 118.894H49.1763C49.1763 114.466 46.7452 110.877 43.746 110.877Z" fill="#C3CCD9"/>
<path d="M36.7642 101.011C42.5825 108.162 47.6253 120.057 47.6253 120.057L63.3995 106.222C63.7306 105.569 51.2321 97.6431 36.7642 101.011Z" fill="white"/>
<path d="M119.005 97.7644C108.495 107.453 103.147 124.274 103.147 124.274L89.6802 106.125C90.2948 100.925 103.779 95.0454 119.005 97.7644Z" fill="#F6F8FB"/>
<path d="M104.774 117.268L98.3807 98.2061L92.103 119.411L104.774 117.268Z" fill="#C3CCD9"/>
<path d="M104.328 89.0605C96.8154 101.067 96.1703 118.35 96.1703 118.35L78.3789 105.012C77.5804 99.9558 88.9686 90.7083 104.328 89.0605Z" fill="#F6F8FB"/>
<path d="M92.6205 119.878L86.618 98.7236L80.7251 122.256L92.6205 119.878Z" fill="#F6F8FB"/>
<path d="M88.2243 96.6553L84.2161 97.3018L78.5269 120.705H81.2423L81.3493 120.252C83.8314 109.774 84.9997 104.841 88.2243 96.6553Z" fill="#C3CCD9"/>
<path d="M92.4914 79.8457C86.1556 85.9228 80.2079 112.041 80.2079 120.704L61.0718 106.223C62.7529 101.568 77.1047 80.2338 92.4914 79.8457Z" fill="white"/>
<path d="M50.7285 114.999L63.7703 105.705L72.9679 113.952L62.1227 116.308L50.7285 114.999Z" fill="#E8EEF4"/>
<path d="M27.584 118.118L-6.55078 126.91V129.237H144.728V124.195H120.291V119.798L117.575 115.014H109.559L103.094 113.463L93.1378 116.437H87.4489L80.4668 119.023L27.584 118.118Z" fill="#C9AC82"/>
<path d="M27.3022 127.156L80.5591 128.257V129.357H27.3022V127.156ZM120.207 125.779L104.917 125.229L105.001 124.679H120.207V125.779ZM119.504 120.275L105.192 119.862L105.271 119.449H119.504V120.275Z" fill="#767676"/>
<path d="M80.4668 129.237V119.022L87.3197 116.437H93.2674V126.134H97.0169V129.237H80.4668Z" fill="#917655"/>
</g>
</svg>
