<svg width="24" height="25" viewBox="0 0 24 25" fill="none" xmlns="http://www.w3.org/2000/svg">
<path d="M10.5286 8.5H13.4714C14.0307 8.5 14.6182 8.50228 14.8682 9.11732C15.0439 9.54998 15.0439 10.45 14.8682 10.8827C14.6182 11.4977 14.0307 11.5 13.4714 11.5H10.5286C9.96929 11.5 9.38175 11.4977 9.13185 10.8827C8.95605 10.45 8.95605 9.54998 9.13185 9.11732C9.38175 8.50228 9.96929 8.5 10.5286 8.5Z" stroke="#007272" stroke-width="1.5" stroke-linecap="round" stroke-linejoin="round"/>
<path d="M10.5286 11.5H13.4714C14.0307 11.5 14.6182 11.5023 14.8682 12.1173C15.0439 12.55 15.0439 13.45 14.8682 13.8827C14.6182 14.4977 14.0307 14.5 13.4714 14.5H10.5286C9.96929 14.5 9.38175 14.4977 9.13185 13.8827C8.95605 13.45 8.95605 12.55 9.13185 12.1173C9.38175 11.5023 9.96929 11.5 10.5286 11.5Z" stroke="#007272" stroke-width="1.5" stroke-linecap="round" stroke-linejoin="round"/>
<path d="M7.5 19.5C7.54219 19.3734 7.56329 19.3101 7.58586 19.254C7.87405 18.5371 8.54939 18.0504 9.32061 18.0037C9.38101 18 9.44772 18 9.58114 18H14.4189C14.5523 18 14.619 18 14.6794 18.0037C15.4506 18.0504 16.126 18.5371 16.4141 19.254C16.4367 19.3101 16.4578 19.3734 16.5 19.5" stroke="#007272" stroke-width="1.5" stroke-linecap="round" stroke-linejoin="round"/>
<path d="M12 18V22.5M12 22.5H19M12 22.5H5" stroke="#007272" stroke-width="1.5" stroke-linecap="round" stroke-linejoin="round"/>
<path d="M21 9L19.7959 7.59525C18.9123 6.56437 18.4705 6.04892 17.8738 5.77446C17.277 5.5 16.5981 5.5 15.2404 5.5H8.75961C7.40185 5.5 6.72297 5.5 6.12623 5.77446C5.5295 6.04892 5.08769 6.56437 4.20407 7.59525L3 9" stroke="#007272" stroke-width="1.5" stroke-linecap="round" stroke-linejoin="round"/>
<path d="M12 8.5V2.5" stroke="#007272" stroke-width="1.5" stroke-linecap="round" stroke-linejoin="round"/>
</svg>
