<svg width="24" height="25" viewBox="0 0 24 25" fill="none" xmlns="http://www.w3.org/2000/svg">
<path d="M22 18H2" stroke="#007272" stroke-width="1.5" stroke-linecap="round" stroke-linejoin="round"/>
<path d="M22 21.5V16.5C22 14.6144 22 13.6716 21.4142 13.0858C20.8284 12.5 19.8856 12.5 18 12.5H6C4.11438 12.5 3.17157 12.5 2.58579 13.0858C2 13.6716 2 14.6144 2 16.5V21.5" stroke="#007272" stroke-width="1.5" stroke-linecap="round" stroke-linejoin="round"/>
<path d="M11 12.5V10.7134C11 10.3327 10.9428 10.2054 10.6497 10.0554C10.0395 9.74292 9.29865 9.5 8.5 9.5C7.70135 9.5 6.96055 9.74292 6.35025 10.0554C6.05721 10.2054 6 10.3327 6 10.7134V12.5" stroke="#007272" stroke-width="1.5" stroke-linecap="round"/>
<path d="M18 12.5V10.7134C18 10.3327 17.9428 10.2054 17.6497 10.0554C17.0395 9.74292 16.2987 9.5 15.5 9.5C14.7013 9.5 13.9605 9.74292 13.3503 10.0554C13.0572 10.2054 13 10.3327 13 10.7134V12.5" stroke="#007272" stroke-width="1.5" stroke-linecap="round"/>
<path d="M21 12.5V7.86057C21 7.16893 21 6.82311 20.8079 6.49653C20.6157 6.16995 20.342 6.00091 19.7944 5.66283C17.5869 4.29978 14.8993 3.5 12 3.5C9.10067 3.5 6.41314 4.29978 4.20558 5.66283C3.65804 6.00091 3.38427 6.16995 3.19213 6.49653C3 6.82311 3 7.16893 3 7.86057V12.5" stroke="#007272" stroke-width="1.5" stroke-linecap="round"/>
</svg>
