<svg width="40" height="40" viewBox="0 0 40 40" fill="none" xmlns="http://www.w3.org/2000/svg">
<path d="M28.3333 33.3332C30.1743 33.3332 31.6667 31.8408 31.6667 29.9998C31.6667 28.1589 30.1743 26.6665 28.3333 26.6665C26.4924 26.6665 25 28.1589 25 29.9998C25 31.8408 26.4924 33.3332 28.3333 33.3332Z" stroke="#141B34" stroke-width="1.5"/>
<path d="M11.6663 33.3332C13.5073 33.3332 14.9997 31.8408 14.9997 29.9998C14.9997 28.1589 13.5073 26.6665 11.6663 26.6665C9.82539 26.6665 8.33301 28.1589 8.33301 29.9998C8.33301 31.8408 9.82539 33.3332 11.6663 33.3332Z" stroke="#141B34" stroke-width="1.5"/>
<path d="M8.33301 29.9538C6.50514 29.8628 5.36484 29.5908 4.55339 28.7795C3.74194 27.968 3.47004 26.8277 3.37892 24.9998M14.9997 29.9998H24.9997M31.6663 29.9538C33.4942 29.8628 34.6345 29.5908 35.446 28.7795C36.6663 27.559 36.6663 25.5948 36.6663 21.6665V18.3332H28.833C27.5922 18.3332 26.9717 18.3332 26.4697 18.17C25.4548 17.8403 24.6592 17.0447 24.3295 16.0299C24.1663 15.5278 24.1663 14.9074 24.1663 13.6665C24.1663 11.8052 24.1663 10.8746 23.9217 10.1214C23.427 8.59924 22.2337 7.4058 20.7115 6.91122C19.9583 6.6665 19.0277 6.6665 17.1663 6.6665H3.33301" stroke="#141B34" stroke-width="1.5" stroke-linecap="round" stroke-linejoin="round"/>
<path d="M3.33301 13.3335H13.333" stroke="#141B34" stroke-width="1.5" stroke-linecap="round" stroke-linejoin="round"/>
<path d="M3.33301 18.3335H9.99967" stroke="#141B34" stroke-width="1.5" stroke-linecap="round" stroke-linejoin="round"/>
<path d="M24.167 10H27.2023C29.628 10 30.8407 10 31.8277 10.5895C32.8147 11.179 33.3897 12.2469 34.5397 14.3825L36.667 18.3333" stroke="#141B34" stroke-width="1.5" stroke-linecap="round" stroke-linejoin="round"/>
</svg>
