<svg width="40" height="40" viewBox="0 0 40 40" fill="none" xmlns="http://www.w3.org/2000/svg">
<path d="M35 23.3332L34.5963 19.2958C34.3877 17.2103 34.2835 16.1676 33.6683 15.3982C33.0533 14.6287 32.0592 14.2973 30.0708 13.6346C29.4558 13.4296 29.039 13.2289 28.645 12.7082C27.3863 11.0442 25.5727 7.81044 24.2125 7.09634C23.3937 6.6665 22.428 6.6665 20.4965 6.6665H18.3333C16.762 6.6665 15.9763 6.6665 15.4881 7.15465C15 7.64282 15 8.42849 15 9.99984V22.4998" stroke="#141B34" stroke-width="1.5" stroke-linecap="round" stroke-linejoin="round"/>
<path d="M15 15.8335H5V23.3335" stroke="#141B34" stroke-width="1.5" stroke-linecap="round" stroke-linejoin="round"/>
<path d="M29.1667 13.3332H23.3333C21.762 13.3332 20.9763 13.3332 20.4882 12.845C20 12.3569 20 11.5712 20 9.99984V6.6665" stroke="#141B34" stroke-width="1.5" stroke-linecap="round" stroke-linejoin="round"/>
<path d="M14.9997 8.3335H13.333" stroke="#141B34" stroke-width="1.5" stroke-linecap="round" stroke-linejoin="round"/>
<path d="M20 17.5H21.6667" stroke="#141B34" stroke-width="1.5" stroke-linecap="round" stroke-linejoin="round"/>
<path d="M22.4997 28.3335H17.4997M15.833 23.3335H24.1663M7.49967 23.3335H5.83301C5.05644 23.3335 4.66816 23.3335 4.36187 23.4603C3.33681 23.885 3.33301 24.8832 3.33301 25.8335C3.33301 26.7838 3.33681 27.782 4.36187 28.2067C4.66816 28.3335 5.05644 28.3335 5.83301 28.3335M32.4997 23.3335H34.1663C34.9428 23.3335 35.3312 23.3335 35.6375 23.4603C36.6625 23.885 36.6663 24.8832 36.6663 25.8335C36.6663 26.7838 36.6625 27.782 35.6375 28.2067C35.3312 28.3335 34.9428 28.3335 34.1663 28.3335" stroke="#141B34" stroke-width="1.5" stroke-linecap="round" stroke-linejoin="round"/>
<path d="M17.4997 27.4998C17.4997 30.7215 14.888 33.3332 11.6663 33.3332C8.44467 33.3332 5.83301 30.7215 5.83301 27.4998C5.83301 24.2782 8.44467 21.6665 11.6663 21.6665C14.888 21.6665 17.4997 24.2782 17.4997 27.4998Z" stroke="#141B34" stroke-width="1.5" stroke-linecap="round" stroke-linejoin="round"/>
<path d="M28.3333 33.3332C31.555 33.3332 34.1667 30.7215 34.1667 27.4998C34.1667 24.2782 31.555 21.6665 28.3333 21.6665C25.1117 21.6665 22.5 24.2782 22.5 27.4998C22.5 30.7215 25.1117 33.3332 28.3333 33.3332Z" stroke="#141B34" stroke-width="1.5" stroke-linecap="round" stroke-linejoin="round"/>
</svg>
