<svg width="40" height="40" viewBox="0 0 40 40" fill="none" xmlns="http://www.w3.org/2000/svg">
<g clip-path="url(#clip0_2410_3056)">
<path d="M26.6671 26.6665L20.0004 19.9998M20.0004 19.9998L13.3338 26.6665M20.0004 19.9998V34.9998M33.9838 30.6498C35.6093 29.7636 36.8935 28.3613 37.6335 26.6642C38.3736 24.9671 38.5274 23.0719 38.0708 21.2776C37.6141 19.4834 36.5729 17.8923 35.1115 16.7556C33.6502 15.6188 31.8519 15.001 30.0004 14.9998H27.9004C27.3959 13.0485 26.4557 11.237 25.1503 9.70147C23.845 8.1659 22.2085 6.94623 20.3639 6.13416C18.5193 5.32208 16.5147 4.93874 14.5006 5.01295C12.4866 5.08715 10.5155 5.61698 8.73572 6.56259C6.9559 7.5082 5.41361 8.84498 4.22479 10.4724C3.03598 12.0999 2.23157 13.9757 1.87206 15.9588C1.51254 17.9419 1.60726 19.9807 2.14911 21.9219C2.69096 23.8631 3.66583 25.6563 5.00042 27.1665" stroke="#007272" stroke-width="4" stroke-linecap="round" stroke-linejoin="round"/>
</g>
<defs>
<clipPath id="clip0_2410_3056">
<rect width="40" height="40" fill="white"/>
</clipPath>
</defs>
</svg>
