<svg width="40" height="40" viewBox="0 0 40 40" fill="none" xmlns="http://www.w3.org/2000/svg">
<path d="M35 23.3337L34.5963 19.2963C34.3877 17.2108 34.2835 16.1681 33.6683 15.3987C33.0533 14.6292 32.0592 14.2978 30.0708 13.6351C29.4558 13.4301 29.039 13.2294 28.645 12.7086C27.3863 11.0447 25.5727 7.81093 24.2125 7.09683C23.3937 6.66699 22.428 6.66699 20.4965 6.66699H18.3333C16.762 6.66699 15.9763 6.66699 15.4881 7.15514C15 7.64331 15 8.42898 15 10.0003V22.5003" stroke="#141B34" stroke-width="1.5" stroke-linecap="round" stroke-linejoin="round"/>
<path d="M15 15.833H5V23.333" stroke="#141B34" stroke-width="1.5" stroke-linecap="round" stroke-linejoin="round"/>
<path d="M29.1667 13.3337H23.3333C21.762 13.3337 20.9763 13.3337 20.4882 12.8455C20 12.3573 20 11.5717 20 10.0003V6.66699" stroke="#141B34" stroke-width="1.5" stroke-linecap="round" stroke-linejoin="round"/>
<path d="M15.0007 8.33301H13.334" stroke="#141B34" stroke-width="1.5" stroke-linecap="round" stroke-linejoin="round"/>
<path d="M20 17.5H21.6667" stroke="#141B34" stroke-width="1.5" stroke-linecap="round" stroke-linejoin="round"/>
<path d="M22.5007 28.333H17.5007M15.834 23.333H24.1673M7.50065 23.333H5.83398C5.05742 23.333 4.66913 23.333 4.36285 23.4598C3.33778 23.8845 3.33398 24.8827 3.33398 25.833C3.33398 26.7833 3.33778 27.7815 4.36285 28.2062C4.66913 28.333 5.05742 28.333 5.83398 28.333M32.5007 23.333H34.1673C34.9438 23.333 35.3322 23.333 35.6385 23.4598C36.6635 23.8845 36.6673 24.8827 36.6673 25.833C36.6673 26.7833 36.6635 27.7815 35.6385 28.2062C35.3322 28.333 34.9438 28.333 34.1673 28.333" stroke="#141B34" stroke-width="1.5" stroke-linecap="round" stroke-linejoin="round"/>
<path d="M17.5007 27.5003C17.5007 30.722 14.889 33.3337 11.6673 33.3337C8.44565 33.3337 5.83398 30.722 5.83398 27.5003C5.83398 24.2787 8.44565 21.667 11.6673 21.667C14.889 21.667 17.5007 24.2787 17.5007 27.5003Z" stroke="#141B34" stroke-width="1.5" stroke-linecap="round" stroke-linejoin="round"/>
<path d="M28.3333 33.3337C31.555 33.3337 34.1667 30.722 34.1667 27.5003C34.1667 24.2787 31.555 21.667 28.3333 21.667C25.1117 21.667 22.5 24.2787 22.5 27.5003C22.5 30.722 25.1117 33.3337 28.3333 33.3337Z" stroke="#141B34" stroke-width="1.5" stroke-linecap="round" stroke-linejoin="round"/>
</svg>
