<svg width="20" height="28" viewBox="0 0 20 28" fill="none" xmlns="http://www.w3.org/2000/svg">
<path d="M19.8531 6.118C19.8531 6.394 20.0601 5.586 17.0791 16.009C16.9141 15.409 16.9641 16.707 16.9641 5.308C17.8191 4.087 19.8531 4.663 19.8531 6.118ZM16.0001 1.716V14.001C12.4931 8.31 14.0401 10.818 12.3371 8.056V1.716C12.3371 0.77 13.1591 0 14.1691 0C15.1941 0 16.0001 0.779 16.0001 1.716ZM13.8821 12.37L12.4611 11.038C11.2231 9.878 9.59514 9.213 7.65414 9.213L4.40614 4.137C3.90514 3.321 4.19814 2.271 5.07814 1.795C5.96214 1.317 7.07814 1.611 7.58014 2.423C12.5351 10.14 10.0001 6.067 13.8821 12.37Z" fill="#FFAF8C"/>
<path d="M16.507 18.888C16.507 21.708 15.311 24.425 13.174 26.429C12.1109 27.4135 10.7227 27.9723 9.274 27.999C9.039 27.999 10.176 28 6.715 28C3.013 28 0 25.177 0 21.707V13.037C0 12.754 0.245 12.525 0.546 12.525C0.59462 12.5261 0.643131 12.52 0.69 12.507C0.84 12.563 2.195 12.544 3.112 13.787C3.704 14.529 3.662 15.392 3.662 15.927C3.662 17.859 4.553 19.697 6.105 20.97C7.785 22.348 10.413 21.218 10.413 19.138C10.413 16.828 10.507 16.296 10.078 15.384C9.694 14.571 9.211 14.22 8.563 13.666C8.343 13.501 8.615 13.549 4.088 13.549C3.492 12.555 2.372 11.801 1.038 11.65C1.06957 11.3942 1.15889 11.1489 1.29922 10.9327C1.43955 10.7165 1.62721 10.535 1.848 10.402C2.64 10.04 1.755 10.116 7.758 10.116C9.278 10.116 10.706 10.671 11.78 11.677L15.746 15.393L16.046 15.88C16.327 16.848 16.507 17.739 16.507 18.888Z" fill="#FF8752"/>
</svg>
