<svg width="40" height="40" viewBox="0 0 40 40" fill="none" xmlns="http://www.w3.org/2000/svg">
<path d="M13.334 29.9997L20.0007 24.9163L26.6673 29.9997L24.1673 21.7497L30.834 16.9997H22.6673L20.0007 8.33301L17.334 16.9997H9.16732L15.834 21.7497L13.334 29.9997ZM20.0007 36.6663C17.6951 36.6663 15.5284 36.2288 13.5007 35.3538C11.4729 34.4788 9.70898 33.2913 8.20898 31.7913C6.70898 30.2913 5.52148 28.5275 4.64648 26.4997C3.77148 24.4719 3.33398 22.3052 3.33398 19.9997C3.33398 17.6941 3.77148 15.5275 4.64648 13.4997C5.52148 11.4719 6.70898 9.70801 8.20898 8.20801C9.70898 6.70801 11.4729 5.52051 13.5007 4.64551C15.5284 3.77051 17.6951 3.33301 20.0007 3.33301C22.3062 3.33301 24.4729 3.77051 26.5007 4.64551C28.5284 5.52051 30.2923 6.70801 31.7923 8.20801C33.2923 9.70801 34.4798 11.4719 35.3548 13.4997C36.2298 15.5275 36.6673 17.6941 36.6673 19.9997C36.6673 22.3052 36.2298 24.4719 35.3548 26.4997C34.4798 28.5275 33.2923 30.2913 31.7923 31.7913C30.2923 33.2913 28.5284 34.4788 26.5007 35.3538C24.4729 36.2288 22.3062 36.6663 20.0007 36.6663Z" fill="#1D1B20"/>
</svg>
