<svg width="40" height="40" viewBox="0 0 40 40" fill="none" xmlns="http://www.w3.org/2000/svg">
<path d="M20.0007 36.6663C19.6118 36.6663 19.2784 36.5552 19.0007 36.333C18.7229 36.1108 18.5145 35.8191 18.3757 35.458C17.8479 33.9025 17.1812 32.4441 16.3757 31.083C15.5979 29.7219 14.5007 28.1247 13.084 26.2913C11.6673 24.458 10.5145 22.708 9.62565 21.0413C8.76454 19.3747 8.33398 17.3608 8.33398 14.9997C8.33398 11.7497 9.45898 8.99967 11.709 6.74967C13.9868 4.4719 16.7507 3.33301 20.0007 3.33301C23.2507 3.33301 26.0007 4.4719 28.2507 6.74967C30.5284 8.99967 31.6673 11.7497 31.6673 14.9997C31.6673 17.5275 31.1812 19.6386 30.209 21.333C29.2645 22.9997 28.1673 24.6525 26.9173 26.2913C25.4173 28.2913 24.2784 29.958 23.5007 31.2913C22.7507 32.5969 22.1257 33.9858 21.6257 35.458C21.4868 35.8469 21.2645 36.1525 20.959 36.3747C20.6812 36.5691 20.3618 36.6663 20.0007 36.6663ZM20.0007 30.708C20.4729 29.7636 21.0007 28.833 21.584 27.9163C22.1951 26.9997 23.084 25.7775 24.2507 24.2497C25.4451 22.6941 26.4173 21.2636 27.1673 19.958C27.9451 18.6247 28.334 16.9719 28.334 14.9997C28.334 12.6941 27.5145 10.7358 25.8757 9.12467C24.2645 7.48579 22.3062 6.66634 20.0007 6.66634C17.6951 6.66634 15.7229 7.48579 14.084 9.12467C12.4729 10.7358 11.6673 12.6941 11.6673 14.9997C11.6673 16.9719 12.0423 18.6247 12.7923 19.958C13.5701 21.2636 14.5562 22.6941 15.7507 24.2497C16.9173 25.7775 17.7923 26.9997 18.3757 27.9163C18.9868 28.833 19.5284 29.7636 20.0007 30.708ZM20.0007 19.1663C21.1673 19.1663 22.1534 18.7636 22.959 17.958C23.7645 17.1525 24.1673 16.1663 24.1673 14.9997C24.1673 13.833 23.7645 12.8469 22.959 12.0413C22.1534 11.2358 21.1673 10.833 20.0007 10.833C18.834 10.833 17.8479 11.2358 17.0423 12.0413C16.2368 12.8469 15.834 13.833 15.834 14.9997C15.834 16.1663 16.2368 17.1525 17.0423 17.958C17.8479 18.7636 18.834 19.1663 20.0007 19.1663Z" fill="#1D1B20"/>
</svg>
