<svg width="40" height="40" viewBox="0 0 40 40" fill="none" xmlns="http://www.w3.org/2000/svg">
<path d="M25.834 18.333C26.5284 18.333 27.1187 18.09 27.6048 17.6038C28.0909 17.1177 28.334 16.5275 28.334 15.833C28.334 15.1386 28.0909 14.5483 27.6048 14.0622C27.1187 13.5761 26.5284 13.333 25.834 13.333C25.1395 13.333 24.5493 13.5761 24.0632 14.0622C23.577 14.5483 23.334 15.1386 23.334 15.833C23.334 16.5275 23.577 17.1177 24.0632 17.6038C24.5493 18.09 25.1395 18.333 25.834 18.333ZM14.1673 18.333C14.8618 18.333 15.452 18.09 15.9382 17.6038C16.4243 17.1177 16.6673 16.5275 16.6673 15.833C16.6673 15.1386 16.4243 14.5483 15.9382 14.0622C15.452 13.5761 14.8618 13.333 14.1673 13.333C13.4729 13.333 12.8826 13.5761 12.3965 14.0622C11.9104 14.5483 11.6673 15.1386 11.6673 15.833C11.6673 16.5275 11.9104 17.1177 12.3965 17.6038C12.8826 18.09 13.4729 18.333 14.1673 18.333ZM20.0007 29.1663C21.8895 29.1663 23.6048 28.6316 25.1465 27.5622C26.6882 26.4927 27.8062 25.083 28.5007 23.333H11.5007C12.1951 25.083 13.3132 26.4927 14.8548 27.5622C16.3965 28.6316 18.1118 29.1663 20.0007 29.1663ZM20.0007 36.6663C17.6951 36.6663 15.5284 36.2288 13.5007 35.3538C11.4729 34.4788 9.70898 33.2913 8.20898 31.7913C6.70898 30.2913 5.52148 28.5275 4.64648 26.4997C3.77148 24.4719 3.33398 22.3052 3.33398 19.9997C3.33398 17.6941 3.77148 15.5275 4.64648 13.4997C5.52148 11.4719 6.70898 9.70801 8.20898 8.20801C9.70898 6.70801 11.4729 5.52051 13.5007 4.64551C15.5284 3.77051 17.6951 3.33301 20.0007 3.33301C22.3062 3.33301 24.4729 3.77051 26.5007 4.64551C28.5284 5.52051 30.2923 6.70801 31.7923 8.20801C33.2923 9.70801 34.4798 11.4719 35.3548 13.4997C36.2298 15.5275 36.6673 17.6941 36.6673 19.9997C36.6673 22.3052 36.2298 24.4719 35.3548 26.4997C34.4798 28.5275 33.2923 30.2913 31.7923 31.7913C30.2923 33.2913 28.5284 34.4788 26.5007 35.3538C24.4729 36.2288 22.3062 36.6663 20.0007 36.6663ZM20.0007 33.333C23.7229 33.333 26.8757 32.0413 29.459 29.458C32.0423 26.8747 33.334 23.7219 33.334 19.9997C33.334 16.2775 32.0423 13.1247 29.459 10.5413C26.8757 7.95801 23.7229 6.66634 20.0007 6.66634C16.2784 6.66634 13.1257 7.95801 10.5423 10.5413C7.95898 13.1247 6.66732 16.2775 6.66732 19.9997C6.66732 23.7219 7.95898 26.8747 10.5423 29.458C13.1257 32.0413 16.2784 33.333 20.0007 33.333Z" fill="#1D1B20"/>
</svg>
