<svg width="40" height="40" viewBox="0 0 40 40" fill="none" xmlns="http://www.w3.org/2000/svg">
<path d="M25.5007 27.833L27.834 25.4997L21.6673 19.333V11.6663H18.334V20.6663L25.5007 27.833ZM20.0007 36.6663C17.6951 36.6663 15.5284 36.2288 13.5007 35.3538C11.4729 34.4788 9.70898 33.2913 8.20898 31.7913C6.70898 30.2913 5.52148 28.5275 4.64648 26.4997C3.77148 24.4719 3.33398 22.3052 3.33398 19.9997C3.33398 17.6941 3.77148 15.5275 4.64648 13.4997C5.52148 11.4719 6.70898 9.70801 8.20898 8.20801C9.70898 6.70801 11.4729 5.52051 13.5007 4.64551C15.5284 3.77051 17.6951 3.33301 20.0007 3.33301C22.3062 3.33301 24.4729 3.77051 26.5007 4.64551C28.5284 5.52051 30.2923 6.70801 31.7923 8.20801C33.2923 9.70801 34.4798 11.4719 35.3548 13.4997C36.2298 15.5275 36.6673 17.6941 36.6673 19.9997C36.6673 22.3052 36.2298 24.4719 35.3548 26.4997C34.4798 28.5275 33.2923 30.2913 31.7923 31.7913C30.2923 33.2913 28.5284 34.4788 26.5007 35.3538C24.4729 36.2288 22.3062 36.6663 20.0007 36.6663ZM20.0007 33.333C23.6951 33.333 26.8409 32.0344 29.4382 29.4372C32.0354 26.84 33.334 23.6941 33.334 19.9997C33.334 16.3052 32.0354 13.1594 29.4382 10.5622C26.8409 7.96495 23.6951 6.66634 20.0007 6.66634C16.3062 6.66634 13.1604 7.96495 10.5632 10.5622C7.96593 13.1594 6.66732 16.3052 6.66732 19.9997C6.66732 23.6941 7.96593 26.84 10.5632 29.4372C13.1604 32.0344 16.3062 33.333 20.0007 33.333Z" fill="#1D1B20"/>
</svg>
