<svg width="41" height="40" viewBox="0 0 41 40" fill="none" xmlns="http://www.w3.org/2000/svg">
<path d="M27.1673 35V8.33333C27.1673 7.44928 26.8161 6.60143 26.191 5.97631C25.5659 5.35119 24.718 5 23.834 5H17.1673C16.2833 5 15.4354 5.35119 14.8103 5.97631C14.1852 6.60143 13.834 7.44928 13.834 8.33333V35M7.16732 11.6667H33.834C35.6749 11.6667 37.1673 13.1591 37.1673 15V31.6667C37.1673 33.5076 35.6749 35 33.834 35H7.16732C5.32637 35 3.83398 33.5076 3.83398 31.6667V15C3.83398 13.1591 5.32637 11.6667 7.16732 11.6667Z" stroke="#007272" stroke-width="4" stroke-linecap="round" stroke-linejoin="round"/>
</svg>
