<svg width="41" height="40" viewBox="0 0 41 40" fill="none" xmlns="http://www.w3.org/2000/svg">
<g clip-path="url(#clip0_2560_9396)">
<path d="M20.5 1.66699V38.3337M28.8333 8.33366H16.3333C14.7862 8.33366 13.3025 8.94824 12.2085 10.0422C11.1146 11.1362 10.5 12.6199 10.5 14.167C10.5 15.7141 11.1146 17.1978 12.2085 18.2918C13.3025 19.3857 14.7862 20.0003 16.3333 20.0003H24.6667C26.2138 20.0003 27.6975 20.6149 28.7915 21.7089C29.8854 22.8028 30.5 24.2866 30.5 25.8337C30.5 27.3808 29.8854 28.8645 28.7915 29.9584C27.6975 31.0524 26.2138 31.667 24.6667 31.667H10.5" stroke="#007272" stroke-width="4" stroke-linecap="round" stroke-linejoin="round"/>
</g>
<defs>
<clipPath id="clip0_2560_9396">
<rect width="40" height="40" fill="white" transform="translate(0.5)"/>
</clipPath>
</defs>
</svg>
