<svg width="41" height="40" viewBox="0 0 41 40" fill="none" xmlns="http://www.w3.org/2000/svg">
<path d="M35.2342 7.68345C34.3829 6.83179 33.3722 6.15619 32.2598 5.69525C31.1473 5.23432 29.955 4.99707 28.7509 4.99707C27.5467 4.99707 26.3544 5.23432 25.2419 5.69525C24.1295 6.15619 23.1188 6.83179 22.2675 7.68345L20.5009 9.45011L18.7342 7.68345C17.0147 5.96396 14.6826 4.99796 12.2508 4.99796C9.81913 4.99796 7.487 5.96396 5.76752 7.68345C4.04803 9.40293 3.08203 11.7351 3.08203 14.1668C3.08203 16.5985 4.04803 18.9306 5.76752 20.6501L20.5009 35.3834L35.2342 20.6501C36.0858 19.7989 36.7614 18.7881 37.2224 17.6757C37.6833 16.5633 37.9206 15.3709 37.9206 14.1668C37.9206 12.9626 37.6833 11.7703 37.2224 10.6579C36.7614 9.54542 36.0858 8.53471 35.2342 7.68345Z" stroke="#007272" stroke-width="4" stroke-linecap="round" stroke-linejoin="round"/>
</svg>
