<svg width="41" height="40" viewBox="0 0 41 40" fill="none" xmlns="http://www.w3.org/2000/svg">
<path d="M24.6673 16.6663C23.284 16.6663 22.1673 15.5497 22.1673 14.1663V5.83301C22.1673 4.44967 23.284 3.33301 24.6673 3.33301C26.0507 3.33301 27.1673 4.44967 27.1673 5.83301V14.1663C27.1673 15.5497 26.0507 16.6663 24.6673 16.6663Z" stroke="#007272" stroke-width="4" stroke-linecap="round" stroke-linejoin="round"/>
<path d="M34.6673 16.6663H32.1673V14.1663C32.1673 12.783 33.284 11.6663 34.6673 11.6663C36.0507 11.6663 37.1673 12.783 37.1673 14.1663C37.1673 15.5497 36.0507 16.6663 34.6673 16.6663Z" stroke="#007272" stroke-width="4" stroke-linecap="round" stroke-linejoin="round"/>
<path d="M16.334 23.333C17.7173 23.333 18.834 24.4497 18.834 25.833V34.1663C18.834 35.5497 17.7173 36.6663 16.334 36.6663C14.9507 36.6663 13.834 35.5497 13.834 34.1663V25.833C13.834 24.4497 14.9507 23.333 16.334 23.333Z" stroke="#007272" stroke-width="4" stroke-linecap="round" stroke-linejoin="round"/>
<path d="M6.33398 23.333H8.83398V25.833C8.83398 27.2163 7.71732 28.333 6.33398 28.333C4.95065 28.333 3.83398 27.2163 3.83398 25.833C3.83398 24.4497 4.95065 23.333 6.33398 23.333Z" stroke="#007272" stroke-width="4" stroke-linecap="round" stroke-linejoin="round"/>
<path d="M23.834 24.1663C23.834 22.783 24.9507 21.6663 26.334 21.6663H34.6673C36.0507 21.6663 37.1673 22.783 37.1673 24.1663C37.1673 25.5497 36.0507 26.6663 34.6673 26.6663H26.334C24.9507 26.6663 23.834 25.5497 23.834 24.1663Z" stroke="#007272" stroke-width="4" stroke-linecap="round" stroke-linejoin="round"/>
<path d="M26.334 31.6663H23.834V34.1663C23.834 35.5497 24.9507 36.6663 26.334 36.6663C27.7173 36.6663 28.834 35.5497 28.834 34.1663C28.834 32.783 27.7173 31.6663 26.334 31.6663Z" stroke="#007272" stroke-width="4" stroke-linecap="round" stroke-linejoin="round"/>
<path d="M17.1673 15.833C17.1673 14.4497 16.0507 13.333 14.6673 13.333H6.33398C4.95065 13.333 3.83398 14.4497 3.83398 15.833C3.83398 17.2163 4.95065 18.333 6.33398 18.333H14.6673C16.0507 18.333 17.1673 17.2163 17.1673 15.833Z" stroke="#007272" stroke-width="4" stroke-linecap="round" stroke-linejoin="round"/>
<path d="M14.6673 8.33301H17.1673V5.83301C17.1673 4.44967 16.0507 3.33301 14.6673 3.33301C13.284 3.33301 12.1673 4.44967 12.1673 5.83301C12.1673 7.21634 13.284 8.33301 14.6673 8.33301Z" stroke="#007272" stroke-width="4" stroke-linecap="round" stroke-linejoin="round"/>
</svg>
