<svg width="25" height="25" viewBox="0 0 25 25" fill="none" xmlns="http://www.w3.org/2000/svg">
<path d="M7.5 9.5L12.2707 5.23514C13.5647 4.07838 14.2117 3.5 15 3.5C15.7883 3.5 16.4353 4.07838 17.7293 5.23514L22.5 9.5" stroke="#007272" stroke-width="1.5" stroke-linecap="round" stroke-linejoin="round"/>
<path d="M9 8.5V20.5M21 20.5V8.5" stroke="#007272" stroke-width="1.5" stroke-linecap="round" stroke-linejoin="round"/>
<path d="M4 14.5C4.82843 14.5 5.5 13.6046 5.5 12.5C5.5 11.3954 4.82843 10.5 4 10.5C3.17157 10.5 2.5 11.3954 2.5 12.5C2.5 13.6046 3.17157 14.5 4 14.5Z" stroke="#007272" stroke-width="1.5"/>
<path d="M4 14.5V20.5" stroke="#007272" stroke-width="1.5" stroke-linecap="round"/>
<path d="M2.5 20.5H22.5" stroke="#007272" stroke-width="1.5" stroke-linecap="round" stroke-linejoin="round"/>
<path d="M12.5 20.5V16.4997C12.5 15.5571 12.5 15.0858 12.7929 14.7929C13.0858 14.5 13.5572 14.5 14.5 14.5H15.5C16.4428 14.5 16.9142 14.5 17.2071 14.7929C17.5 15.0858 17.5 15.5572 17.5 16.5V20.5" stroke="#007272" stroke-width="1.5" stroke-linecap="round" stroke-linejoin="round"/>
<path d="M14 11.5H16M14 8.5H16" stroke="#007272" stroke-width="1.5" stroke-linecap="round" stroke-linejoin="round"/>
</svg>
