<svg width="25" height="25" viewBox="0 0 25 25" fill="none" xmlns="http://www.w3.org/2000/svg">
<path d="M15.6287 14.2468C15.4601 14.4092 15.2347 14.5 15.0001 14.5C14.7655 14.5 14.5401 14.4092 14.3715 14.2468C12.8272 12.7504 10.7576 11.0788 11.7669 8.65187C12.3126 7.33966 13.6225 6.5 15.0001 6.5C16.3777 6.5 17.6876 7.33966 18.2333 8.65187C19.2413 11.0757 17.1768 12.7555 15.6287 14.2468Z" stroke="#007272" stroke-width="1.5"/>
<path d="M15 10H15.009" stroke="#007272" stroke-width="2" stroke-linecap="round" stroke-linejoin="round"/>
<path d="M3 12.5C3 8.02166 3 5.78249 4.39124 4.39124C5.78249 3 8.02166 3 12.5 3C16.9783 3 19.2175 3 20.6088 4.39124C22 5.78249 22 8.02166 22 12.5C22 16.9783 22 19.2175 20.6088 20.6088C19.2175 22 16.9783 22 12.5 22C8.02166 22 5.78249 22 4.39124 20.6088C3 19.2175 3 16.9783 3 12.5Z" stroke="#007272" stroke-width="1.5"/>
<path d="M17.5 21.5L3.5 7.5" stroke="#007272" stroke-width="1.5" stroke-linecap="round" stroke-linejoin="round"/>
<path d="M10.5 14.5L4.5 20.5" stroke="#007272" stroke-width="1.5" stroke-linecap="round" stroke-linejoin="round"/>
</svg>
