<svg width="25" height="25" viewBox="0 0 25 25" fill="none" xmlns="http://www.w3.org/2000/svg">
<path d="M12.5 22.5V9.5" stroke="#007272" stroke-width="1.5" stroke-linecap="round" stroke-linejoin="round"/>
<path d="M15.5 17.6973C17.2934 16.6599 18.5 14.7208 18.5 12.5C18.5 10.8744 17.8535 9.39971 16.8036 8.31915C16.9313 7.90197 17 7.45901 17 7C17 4.51472 14.9853 2.5 12.5 2.5C10.0147 2.5 8 4.51472 8 7C8 7.45901 8.06872 7.90197 8.19645 8.31915C7.14651 9.39971 6.5 10.8744 6.5 12.5C6.5 14.7208 7.7066 16.6599 9.5 17.6973" stroke="#007272" stroke-width="1.5" stroke-linecap="round" stroke-linejoin="round"/>
<path d="M12.5 15.5L15 13" stroke="#007272" stroke-width="1.5" stroke-linecap="round" stroke-linejoin="round"/>
<path d="M12.5 13.5L10 11" stroke="#007272" stroke-width="1.5" stroke-linecap="round" stroke-linejoin="round"/>
<path d="M10.5 22.5H14.5" stroke="#007272" stroke-width="1.5" stroke-linecap="round" stroke-linejoin="round"/>
</svg>
