<svg width="21" height="23" viewBox="0 0 21 23" fill="none" xmlns="http://www.w3.org/2000/svg">
<path d="M5.58848 4.26243L4.58847 5.04298C3.07181 6.22681 2.31348 6.81873 1.90674 7.65333C1.5 8.48792 1.5 9.45205 1.5 11.3803V13.4715C1.5 17.2562 1.5 19.1485 2.67157 20.3243C3.84315 21.5 5.72876 21.5 9.5 21.5H11.5C15.2712 21.5 17.1569 21.5 18.3284 20.3243C19.5 19.1485 19.5 17.2562 19.5 13.4715V11.3803C19.5 9.45205 19.5 8.48792 19.0933 7.65333C18.6865 6.81873 17.9282 6.22681 16.4115 5.04298L15.4115 4.26243C13.0521 2.42081 11.8724 1.5 10.5 1.5C9.1276 1.5 7.94787 2.42081 5.58848 4.26243Z" stroke="#007272" stroke-width="1.5" stroke-linejoin="round"/>
</svg>
