<svg width="207" height="230" viewBox="0 0 207 230" fill="none" xmlns="http://www.w3.org/2000/svg">
<mask id="mask0_755_18313" style="mask-type:luminance" maskUnits="userSpaceOnUse" x="0" y="0" width="230" height="230">
<path d="M230 0H0V230H230V0Z" fill="white"/>
</mask>
<g mask="url(#mask0_755_18313)">
<path fill-rule="evenodd" clip-rule="evenodd" d="M92.868 24.7344L221.504 65.2911L146.864 221.782L13.127 168.334L92.868 24.7344Z" fill="#D9E0E8"/>
<path fill-rule="evenodd" clip-rule="evenodd" d="M91.8227 12.7637L219.05 57.6493L138.794 211.393L6.92383 153.459L91.8227 12.7637Z" fill="#E8EEF4"/>
<path fill-rule="evenodd" clip-rule="evenodd" d="M41.8225 136.427L44.4975 137.714C54.0634 142.284 61.1812 145.374 73.127 150.279L80.5012 153.297L82.8344 154.258C94.6604 159.154 103.074 162.989 114.01 168.64C115.141 169.225 115.561 170.544 114.949 171.587C114.336 172.629 112.923 173.001 111.793 172.417L109.732 171.358C99.9072 166.342 91.9393 162.74 80.9835 158.205L71.2865 154.229C58.175 148.847 50.8124 145.622 39.722 140.262C38.5743 139.707 38.1142 138.399 38.6942 137.34C39.249 136.327 40.5546 135.909 41.6715 136.36L41.8225 136.427Z" fill="#C3CCD9"/>
<path fill-rule="evenodd" clip-rule="evenodd" d="M75.2976 122.331L75.4382 122.312C75.7262 122.282 75.8929 122.361 76.7632 123.034L77.5607 123.657L77.7562 124.669L77.6501 125.201L77.5494 125.443L77.4506 125.621L77.3609 125.754L77.3201 125.809L76.7675 126.315C76.6974 126.373 76.6812 126.376 76.6506 126.382L76.4861 126.467L76.2144 126.595C75.9466 126.719 75.558 126.892 75.1253 127.079L74.2916 127.437L73.0467 127.961C70.1204 129.185 67.3231 130.17 64.0117 131.04L63.6256 131.138L63.4671 131.191C61.1667 131.944 59.8807 132.648 59.103 133.629L58.9953 133.771C58.3459 134.667 58.2737 135.077 58.6816 135.722C59.5523 137.099 62.6532 137.638 67.6997 137.125C69.0771 136.984 70.5581 136.773 72.2211 136.489L72.8535 136.379C73.3171 136.297 73.7835 136.211 74.2827 136.117L78.7002 135.258L79.7174 135.067C81.2937 134.78 82.3001 134.644 83.1155 134.63C84.9287 134.597 85.8853 136.072 85.6184 137.426C85.5352 137.849 85.3626 138.214 85.0966 138.653C84.8207 139.107 84.4131 139.675 83.8594 140.384L83.0493 141.401C82.6982 141.835 82.3581 142.247 81.8679 142.828L79.3091 145.824L79.4923 145.781C81.6506 145.281 83.7488 145.396 85.7848 146.154L86.0621 146.261C88.1562 147.103 90.2067 147.314 92.4402 147.08L92.8612 147.031C93.6853 146.926 96.1391 146.455 95.9635 146.485C96.6254 146.374 97.1082 146.337 97.6339 146.41C98.8097 146.573 99.8011 147.341 100.011 148.556C100.291 150.176 101.522 152.694 102.96 153.925L103.149 154.078C103.781 154.563 104.132 154.641 109.104 155.456C112.535 156.018 115.087 156.642 117.82 157.74C119.01 158.218 119.574 159.502 119.079 160.607C118.584 161.712 117.217 162.22 116.027 161.74C113.848 160.864 111.761 160.332 108.971 159.851L105.528 159.279C101.808 158.644 101.564 158.463 100.217 157.43C98.282 155.947 96.7756 153.501 95.9607 151.246L95.8619 150.963L95.5153 151.031C94.7971 151.169 94.1972 151.27 93.559 151.351C90.5297 151.737 87.6497 151.527 84.7103 150.432L84.269 150.261C80.9245 148.917 76.5262 150.911 71.0262 156.911C70.3194 157.682 69.1262 157.883 68.157 157.394C66.9396 156.78 66.6521 155.711 66.8565 154.707C66.9402 154.296 67.1082 153.9 67.3549 153.452C67.6713 152.878 68.1474 152.177 68.791 151.32L69.0118 151.029C70.0468 149.673 71.3389 148.109 73.3729 145.725L78.0932 140.207L78.4589 139.772L76.9298 140.072L75.2634 140.393C74.8784 140.465 74.5113 140.533 74.1491 140.598L73.788 140.663C71.7541 141.023 69.9585 141.287 68.2728 141.459C61.4917 142.149 56.8471 141.341 54.6697 137.897C53.5978 136.202 53.4981 134.621 54.1144 133.066L54.1928 132.878L53.9147 132.909C52.7348 133.031 51.5504 133.117 50.3623 133.168L49.4706 133.198C48.1825 133.233 47.0931 132.285 47.0374 131.082C46.9817 129.879 47.9808 128.875 49.2689 128.841C53.0842 128.739 56.8777 128.219 60.6189 127.352C60.9505 127.275 61.2761 127.198 61.5962 127.119L62.2003 126.966L63.1791 126.668L65.8316 125.88L66.4316 125.693C66.6236 125.631 66.8083 125.571 66.9884 125.512C68.0723 125.151 69.2955 124.694 70.5463 124.191L71.6252 123.75L72.5677 123.343L74.318 122.568L74.4975 122.494C74.5438 122.476 74.5824 122.462 74.6306 122.447L74.8006 122.397C74.8697 122.381 74.9685 122.37 75.2976 122.331Z" fill="#007272"/>
<path fill-rule="evenodd" clip-rule="evenodd" d="M97.3384 76.1034L97.9867 77.1735C98.7106 78.3426 99.1236 78.812 99.5933 79.0268L99.6768 79.0622C100.693 79.4586 101.842 79.6391 104.549 79.868L105.727 79.9643C108.844 80.2198 110.557 80.484 112.251 81.1334C114 81.8039 115.172 82.5876 117.368 84.4237L119.034 85.8304C120.681 87.2017 121.638 87.858 122.742 88.3255L123.089 88.4647C123.556 88.6371 123.983 88.6951 126.259 88.8105L128.992 88.9408C131.432 89.054 133.198 89.2176 134.933 89.5472C135.944 89.7394 136.886 89.9825 137.766 90.2874C140.18 91.1233 141.258 92.1556 142.172 93.9846L142.338 94.3296C142.777 95.2523 142.991 95.4906 143.964 95.9129C144.887 96.314 145.615 96.5744 146.833 96.9479L147.615 97.1843C150.932 98.177 152.748 98.9047 155.758 100.679C156.854 101.326 157.194 102.672 156.517 103.686C155.841 104.7 154.403 104.997 153.307 104.35C150.841 102.896 149.394 102.289 146.758 101.483L145.394 101.069C144.029 100.65 143.16 100.34 142.046 99.8551C139.992 98.9636 139.035 97.9663 138.201 96.3002L138.028 95.9423C137.565 94.9671 137.376 94.7739 136.199 94.3664C135.56 94.1456 134.851 93.9625 134.066 93.8135C132.718 93.5568 131.274 93.4142 129.295 93.3121L126.09 93.1704C125.583 93.1455 125.16 93.1198 124.757 93.0876C123.2 92.9671 122.068 92.7711 121.116 92.3893C119.286 91.6541 117.992 90.7702 115.757 88.894L114.359 87.7118C112.538 86.1873 111.646 85.5843 110.532 85.1571C109.479 84.7534 108.165 84.5393 105.756 84.3324L103.767 84.1674C100.827 83.9103 99.4772 83.679 97.9301 83.0752C96.1918 82.3967 95.2825 81.4428 94.0226 79.4195L93.4636 78.4974C92.6435 77.1352 92.2039 76.6496 91.7379 76.5017C90.1071 75.9845 89.1587 75.8667 87.6271 75.9163L86.5031 75.9649C84.8395 76.0313 83.5339 75.9566 81.8101 75.6134C80.5464 75.3617 79.7256 74.2047 79.9769 73.029C80.2281 71.8533 81.4563 71.1044 82.72 71.356C83.8719 71.5854 84.7287 71.6526 85.8159 71.6283L86.6031 71.5989L86.9982 71.5806C89.2799 71.4786 90.815 71.6311 93.1814 72.3817C95.0421 72.9719 96.0556 74.0248 97.3384 76.1034ZM111.862 56.3351L111.944 57.2755C111.988 57.6947 112.023 57.7555 112.121 57.7986L112.147 57.8092C113.209 58.2235 114.516 58.4207 117.727 58.7101L119.229 58.8462C122.248 59.1332 123.871 59.4097 125.462 60.0197L125.868 60.1802C127.462 60.8314 128.764 61.619 131.406 63.3975L132.849 64.367L133.523 64.8083C134.823 65.6446 135.834 66.2101 136.804 66.6225L137.353 66.8425C137.959 67.0717 138.603 67.2575 140.654 67.7683L146.191 69.13C146.437 69.1916 146.675 69.2516 146.91 69.3114L147.925 69.5737C149.895 70.0902 151.505 70.5617 152.898 71.044C155.032 71.7829 156.379 72.7154 158.578 74.7337L159.417 75.5152C161.12 77.1124 162.02 77.8065 163.188 78.3136C166.194 79.6197 169.652 80.1268 175.94 80.4439C177.228 80.5088 178.23 81.5347 178.179 82.7352C178.129 83.9357 177.044 84.8563 175.756 84.7914L174.575 84.7278C168.431 84.3743 164.775 83.7787 161.269 82.2559C159.541 81.5051 158.344 80.6131 156.454 78.8631L155.914 78.3575C153.801 76.3734 152.81 75.6353 151.331 75.1232L150.681 74.9049C149.45 74.5031 147.997 74.0915 146.232 73.6359L145.042 73.3335L138.807 71.7983C137.313 71.4218 136.634 71.2288 136.055 71.0245L135.827 70.9417C135.715 70.8996 135.602 70.8559 135.484 70.8091L135.254 70.7176C133.776 70.1237 132.386 69.345 130.577 68.1631L127.911 66.3795C126.01 65.1191 125.01 64.5457 123.896 64.1031L123.743 64.0435C122.652 63.6252 121.227 63.3978 118.409 63.1389L116.543 62.9699C113.361 62.6691 111.95 62.4268 110.4 61.8221C108.161 60.9482 107.494 59.5848 107.267 57.2542L107.206 56.5573C107.18 56.2884 107.155 56.1174 107.128 56.0041L107.118 55.9608L106.842 55.8783C105.714 55.5527 104.389 55.3428 102.738 55.2092L102.279 55.1746C101.513 55.1208 100.779 55.0852 99.6099 55.0412L97.7725 54.9706C94.9113 54.8518 93.6892 54.7386 92.0863 54.4193C90.8226 54.1677 90.0018 53.0106 90.253 51.835C90.5043 50.6593 91.7325 49.9103 92.9962 50.1619L93.4532 50.2476C94.4631 50.4239 95.4809 50.5123 97.4002 50.5988L100.645 50.7275C101.381 50.7591 101.957 50.7907 102.562 50.8331C104.946 51.0003 106.856 51.3004 108.588 51.8499C110.948 52.5983 111.631 53.9494 111.862 56.3351Z" fill="#C3CCD9"/>
<path fill-rule="evenodd" clip-rule="evenodd" d="M61.5925 104.585C59.771 105.662 50.0919 99.9094 37.8379 83.752C24.5275 66.2168 10.3791 36.1221 7.57622 29.8837C5.00538 24.2012 12.3642 19.6602 16.8077 24.848C21.2266 29.9842 42.1868 58.8741 51.7959 75.873C60.1187 90.5151 63.0964 103.707 61.5925 104.585Z" fill="#007272"/>
<path fill-rule="evenodd" clip-rule="evenodd" d="M4.47127 40.0697C5.36424 42.2559 6.92267 44.7806 8.56929 47.2804L9.23127 48.2783C11.4444 51.5939 13.6775 54.7794 14.5622 56.9736C16.3916 61.6073 14.755 68.5943 14.755 68.5943C14.755 68.5943 20.5672 63.5964 18.4207 56.4294C16.6463 50.5485 10.3077 45.0303 9.72293 40.4009C9.5252 38.8529 10.2879 38.2154 11.2328 37.5941C16.0344 47.5538 24.4202 63.9988 33.0577 76.9755C33.1186 77.0718 33.2729 77.2873 33.2729 77.2873L47.9029 69.4436C47.9029 69.4436 47.7556 69.2261 47.6862 69.1228C45.7013 65.8714 43.4989 62.4229 41.2063 58.9377L40.4795 57.836C40.1147 57.2849 39.748 56.7331 39.3799 56.1815L38.642 55.0788C29.5211 41.4849 19.7421 28.2344 16.8191 24.8223C12.4746 19.7433 5.33747 23.9987 7.46544 29.5126C6.38936 29.8587 5.40981 30.4224 4.75361 31.0712C2.62644 33.1968 2.75842 35.8934 4.47127 40.0697Z" fill="#0000B5"/>
</g>
</svg>
